<svg width="1280" height="720" xmlns="http://www.w3.org/2000/svg" xmlns:xlink="http://www.w3.org/1999/xlink" overflow="hidden"><defs><clipPath id="clip0"><rect x="0" y="0" width="1280" height="720"/></clipPath></defs><g clip-path="url(#clip0)"><rect x="0" y="0" width="1280" height="720" fill="#FFFFFF"/><path d="M426.878 475.323C370.919 534.903 277.256 537.837 217.677 481.878 158.098 425.918 155.163 332.256 211.122 272.677 267.082 213.098 360.744 210.163 420.323 266.122 421.031 266.787 421.732 267.459 422.427 268.137L394.762 296.453C351.934 254.611 283.296 255.41 241.453 298.238 199.611 341.066 200.41 409.704 243.238 451.547 286.066 493.389 354.704 492.59 396.546 449.762 397.043 449.253 397.535 448.74 398.022 448.221Z" stroke="#FFFFFF" stroke-width="4" stroke-miterlimit="8" fill-rule="evenodd"/><path d="M421.462 267.203C480.097 323.458 482.412 416.467 426.647 475.569L397.427 447.999C438.055 404.94 436.369 337.177 393.65 296.192Z" stroke="#FFFFFF" stroke-width="4" stroke-miterlimit="8" fill="#FFC000" fill-rule="evenodd"/><text font-family="Avenir LT Std,Avenir LT Std_MSFontService,sans-serif" font-weight="600" font-size="293" transform="translate(475.068 452)">circle</text></g></svg>