<svg id="Capa_1" enable-background="new 0 0 512 512" height="512" viewBox="0 0 512 512" width="512" xmlns="http://www.w3.org/2000/svg"><g><path d="m235.094 454.473h-2.154-74.457c-1.791-20.488-8.247-25.401-27.498-37.435-5.882-3.676-13.195-8.248-22.226-14.555-3.325-2.554-11.321-9.598-16.468-21.574l-40.764-95.198c-2.565-5.986-.003-10.366 3.674-12.051 3.484-1.598 8.422-.813 11.834 6.172.033.066.066.132.1.197l26.362 50.147c4.114 7.829 9.518 12.941 14.744 17.885 1.673 1.583 3.403 3.219 5.108 4.958.117.119.237.234.361.345l38.75 34.565c.165.147.335.286.512.417 10.801 8.047 21.864 4.7 27.574-1.815 5.924-6.761 7.527-18.12-.841-26.784-4.07-4.388-6.742-7.488-9.833-11.075-2.028-2.354-4.327-5.021-7.329-8.411-5.881-6.678-6.785-13.611-2.359-18.093 3.888-3.938 11.388-5.317 18.831.765l34.747 41.865c11.235 13.533 11.236 36.065 11.236 55.944 0 2.264 0 4.482.017 6.64.032 4.123 3.384 7.442 7.499 7.442h.06c4.142-.032 7.474-3.417 7.441-7.559-.017-2.12-.017-4.3-.017-6.524-.001-21.308-.001-47.826-14.695-65.524l-35.178-42.385c-.269-.325-.565-.626-.886-.9-14.223-12.211-30.752-9.395-39.728-.303-8.464 8.571-11.198 23.814 1.788 38.561 2.949 3.33 5.213 5.958 7.21 8.275 3.202 3.715 5.967 6.924 10.256 11.545.041.044.082.087.124.13 3.108 3.192.664 6.176.375 6.506-1.708 1.949-4.218 1.892-7.092-.154l-38.292-34.157c-1.838-1.866-3.613-3.544-5.331-5.169-4.927-4.661-8.819-8.343-11.774-13.966l-26.313-50.055c-7.606-15.446-21.655-17.635-31.51-13.118-10.03 4.596-17.368 17.232-11.213 31.594l40.767 95.205c6.378 14.842 16.072 23.715 21.282 27.683.081.062.164.122.247.18 9.407 6.576 16.943 11.287 23 15.072 16.339 10.213 19.526 12.207 20.55 25.932-5.854 2.417-9.988 8.18-9.988 14.895v25.272c0 8.9 7.23 16.141 16.118 16.141h85.379c8.887 0 16.118-7.241 16.118-16.141v-25.272c0-8.887-7.231-16.115-16.118-16.115zm1.118 41.386c0 .608-.522 1.141-1.118 1.141h-85.379c-.595 0-1.118-.533-1.118-1.141v-25.272c0-.593.522-1.113 1.118-1.113h1.701 81.524 2.154c.595 0 1.118.52 1.118 1.113z"/><path d="m469.407 260.021c-9.859-4.511-23.903-2.321-31.492 13.125l-26.313 50.054c-2.954 5.622-6.845 9.303-11.772 13.964-1.718 1.625-3.493 3.304-5.331 5.17l-38.292 34.157c-2.872 2.045-5.386 2.103-7.097.152-.29-.33-2.741-3.318.359-6.511l.117-.123c4.422-4.765 7.273-8.072 10.574-11.9 1.949-2.261 4.101-4.756 6.901-7.932 12.989-14.729 10.266-29.973 1.806-38.547-8.975-9.094-25.502-11.911-39.727.301-.32.274-.617.576-.886.9l-35.177 42.383c-14.703 17.706-14.705 44.218-14.706 65.521 0 1.586 0 3.151-.006 4.687-.016 4.142 3.328 7.513 7.47 7.53h.03c4.128 0 7.483-3.338 7.5-7.471.006-1.555.006-3.139.006-4.745.001-19.874.003-42.4 11.247-55.941l34.746-41.864c7.444-6.083 14.94-4.703 18.826-.766 4.421 4.481 3.51 11.413-2.378 18.09-2.845 3.226-5.032 5.761-7.012 8.058-3.323 3.855-5.952 6.903-10.158 11.437-8.352 8.67-6.736 20.028-.807 26.786 5.711 6.51 16.777 9.852 27.572 1.81.177-.131.347-.271.512-.417l38.75-34.565c.124-.111.245-.226.361-.345 1.706-1.739 3.436-3.375 5.109-4.958 5.226-4.944 10.63-10.056 14.743-17.883l26.362-50.148c.036-.067.07-.135.104-.204 3.4-6.978 8.337-7.759 11.819-6.165 3.683 1.686 6.251 6.065 3.686 12.052l-40.794 95.201c-5.134 12.01-13.138 19.029-16.459 21.564-9.03 6.313-16.342 10.886-22.223 14.564-19.237 12.032-25.689 16.945-27.479 37.431h-74.457-2.154c-8.887 0-16.118 7.228-16.118 16.113v25.272c0 8.9 7.23 16.141 16.118 16.141h85.38c8.887 0 16.117-7.241 16.117-16.141v-25.272c0-6.716-4.133-12.479-9.988-14.895 1.024-13.725 4.209-15.719 20.535-25.931 6.053-3.786 13.586-8.498 22.989-15.075.078-.054.154-.11.229-.167 5.224-3.958 14.938-12.819 21.3-27.702l40.791-95.195c6.156-14.368-1.193-27.005-11.233-31.6zm-99.626 235.838c0 .608-.522 1.141-1.117 1.141h-85.38c-.595 0-1.118-.533-1.118-1.141v-25.272c0-.593.522-1.113 1.118-1.113h2.154 81.524 1.701c.595 0 1.117.52 1.117 1.113v25.272z"/><path d="m504.5 96.499h-35.858c-4.142 0-7.5 3.358-7.5 7.5s3.358 7.5 7.5 7.5h35.858c4.142 0 7.5-3.358 7.5-7.5s-3.358-7.5-7.5-7.5z"/><path d="m453.793 53.702c1.603 0 3.219-.512 4.585-1.569l29.764-23.034c3.276-2.535 3.876-7.246 1.341-10.521s-7.245-3.876-10.521-1.341l-29.764 23.033c-3.276 2.535-3.876 7.246-1.341 10.521 1.478 1.91 3.695 2.911 5.936 2.911z"/><path d="m488.142 178.87-29.764-23.034c-3.275-2.536-7.987-1.935-10.521 1.341-2.535 3.276-1.935 7.986 1.341 10.521l29.764 23.034c1.366 1.058 2.981 1.569 4.585 1.569 2.241 0 4.459-1 5.937-2.91 2.534-3.275 1.934-7.985-1.342-10.521z"/><path d="m50.83 103.999c0-4.142-3.358-7.5-7.5-7.5h-35.83c-4.142 0-7.5 3.358-7.5 7.5s3.358 7.5 7.5 7.5h35.83c4.142 0 7.5-3.358 7.5-7.5z"/><path d="m23.83 29.098 29.764 23.034c1.366 1.058 2.981 1.569 4.585 1.569 2.241 0 4.459-1 5.937-2.91 2.535-3.276 1.935-7.986-1.341-10.521l-29.765-23.034c-3.276-2.536-7.987-1.935-10.521 1.341-2.535 3.276-1.935 7.986 1.341 10.521z"/><path d="m64.115 157.177c-2.535-3.275-7.245-3.876-10.521-1.341l-29.764 23.034c-3.276 2.535-3.876 7.246-1.341 10.521 1.478 1.91 3.695 2.91 5.937 2.91 1.603 0 3.219-.512 4.585-1.569l29.764-23.034c3.275-2.535 3.875-7.245 1.34-10.521z"/><path d="m274.27 273.772c-4.142 0-7.5 3.358-7.5 7.5s3.358 7.5 7.5 7.5h62.391c6.855 0 12.432-5.576 12.432-12.43v-16.206c0-8.039-1.379-14.708-3.748-20.293h78.084c6.871 0 12.461-5.576 12.461-12.43v-16.206c0-33.362-23.637-43.245-44.12-49.094-.292-.106-.591-.187-.894-.256-2.154-.606-4.268-1.17-6.311-1.715-1.346-.359-2.685-.716-3.996-1.073-1.975-.542-3.441-3.095-4.548-5.662 20.36-13.741 35.546-37.415 35.546-58.049v-18.757c0-23.119-7.386-42.74-21.361-56.742-12.497-12.522-29.318-19.575-47.362-19.858-.08-.001-.161 0-.242 0-26.854.444-56.344 16.915-65.719 52.456-6.618-2.192-13.622-3.407-20.828-3.527-.084-.001-.166-.001-.25 0-7.209.12-14.215 1.335-20.834 3.529-9.398-35.543-38.881-52.014-65.714-52.458-.08 0-.161-.001-.242 0-18.044.283-34.865 7.336-47.363 19.859-13.975 14.001-21.361 33.623-21.361 56.742v18.756c0 20.634 15.185 44.315 35.54 58.055-1.1 2.566-2.56 5.112-4.528 5.652-1.325.361-2.664.718-4.01 1.078-1.937.517-3.938 1.05-5.975 1.621-.443.083-.879.207-1.301.368-20.464 5.852-44.047 15.756-44.047 49.076v16.206c0 6.854 5.577 12.43 12.432 12.43h78.113c-2.369 5.585-3.748 12.254-3.748 20.293v16.206c0 6.854 5.577 12.43 12.432 12.43h65.311c4.142 0 7.5-3.358 7.5-7.5s-3.358-7.5-7.5-7.5h-62.743v-13.636c0-20.926 11.434-28.052 30.79-33.929l35.111 20.602c4.408 2.824 8.335 4.236 12.259 4.235 3.925 0 7.847-1.413 12.241-4.238l35.133-20.599c19.357 5.877 30.792 13.004 30.792 33.93v13.636h-59.823zm122.298-178.415c0 19.56-19.199 43.837-41.089 51.957-9.427 3.5-16.109 3.5-25.526.003-1.768-.659-3.502-1.421-5.198-2.261.005-.256.016-.514.016-.769v-18.756c0-20.914-6.066-38.949-17.567-52.564.632-.62 1.221-1.221 1.775-1.786 3.873-3.951 4.571-4.664 8.769-3.58 3.006.777 5.58 1.465 7.82 2.063 7.975 2.13 12.368 3.304 17.158 3.304 4.765 0 9.148-1.171 17.105-3.297 2.246-.6 4.828-1.29 7.844-2.069 4.205-1.083 4.903-.375 8.771 3.569 3.862 3.935 9.391 9.538 20.122 11.912zm-25.412 75.676-23.91 13.98c-.1.059-.199.12-.297.183-3.96 2.57-4.514 2.569-8.475 0-.095-.062-.192-.122-.291-.18l-21.515-12.607c2.197-3.97 4.002-8.039 5.348-12.115.896.377 1.797.742 2.707 1.081 6.389 2.373 12.189 3.559 17.989 3.559 5.799 0 11.6-1.186 17.986-3.558.7-.26 1.395-.541 2.089-.826 1.705 3.66 4.256 7.725 8.369 10.483zm-28.427-156.032c23.951.43 49.544 17.03 53.354 52.343-3.934-1.587-6.318-4.018-8.93-6.68-4.488-4.573-10.633-10.839-23.23-7.586-3.063.792-5.685 1.492-7.964 2.101-6.95 1.856-10.438 2.789-13.233 2.789-2.821 0-6.319-.934-13.287-2.795-2.274-.607-4.887-1.305-7.938-2.094-12.593-3.254-18.743 3.021-23.234 7.604-.654.668-1.303 1.314-1.96 1.945-1.789-1.35-3.638-2.609-5.545-3.77 6.72-29.701 30.424-43.451 51.967-43.857zm-86.8 48.929c23.951.454 49.544 17.064 53.356 52.344-3.93-1.585-6.311-4.012-8.918-6.669-3.623-3.693-8.327-8.488-16.658-8.488-1.979 0-4.163.271-6.586.891-3.027.784-5.622 1.478-7.882 2.083-6.981 1.868-10.485 2.806-13.312 2.806s-6.331-.938-13.312-2.806c-2.26-.604-4.855-1.299-7.902-2.088-12.598-3.227-18.741 3.032-23.224 7.602-2.607 2.658-4.988 5.084-8.918 6.669 3.812-35.28 29.405-51.89 53.356-52.344zm53.842 68.082v12.275c0 19.56-19.199 43.838-41.095 51.958-9.412 3.504-16.083 3.504-25.503-.003-21.887-8.117-41.086-32.395-41.086-51.955v-12.275c10.729-2.372 16.253-7.97 20.111-11.902 3.872-3.947 4.571-4.658 8.776-3.581 2.982.772 5.539 1.457 7.766 2.052 7.989 2.138 12.39 3.315 17.189 3.315s9.2-1.178 17.189-3.315c2.227-.596 4.783-1.28 7.746-2.047 4.227-1.083 4.924-.371 8.796 3.576 3.858 3.932 9.382 9.529 20.111 11.902zm-140.643-117.011c21.526.406 45.221 14.157 51.965 43.858-1.906 1.159-3.754 2.418-5.542 3.767-.656-.63-1.303-1.275-1.957-1.941-4.495-4.583-10.647-10.863-23.27-7.606-3.027.784-5.622 1.478-7.883 2.083-6.98 1.868-10.484 2.805-13.311 2.805-2.795 0-6.283-.932-13.232-2.789-2.28-.609-4.901-1.309-7.978-2.104-12.583-3.229-18.726 3.028-23.211 7.595-2.613 2.661-4.998 5.09-8.936 6.676 3.811-35.312 29.404-51.915 53.355-52.344zm-53.838 80.356v-12.258c10.746-2.37 16.26-7.985 20.124-11.92 3.873-3.945 4.572-4.653 8.768-3.579 3.018.78 5.601 1.47 7.846 2.07 7.957 2.125 12.34 3.296 17.104 3.296 4.799 0 9.2-1.177 17.188-3.315 2.227-.596 4.783-1.28 7.758-2.05 4.225-1.087 4.923-.375 8.807 3.586.552.563 1.139 1.161 1.769 1.779-11.501 13.616-17.567 31.65-17.567 52.564v18.756c0 .254.013.511.017.766-1.704.842-3.447 1.605-5.226 2.263-9.411 3.504-16.082 3.504-25.503-.003-21.886-8.117-41.085-32.395-41.085-51.955zm79.89 77.045-21.509 12.616c-.097.057-.193.116-.288.178-3.958 2.569-4.512 2.57-8.475 0-.095-.062-.191-.121-.289-.178l-23.892-14.008c4.07-2.768 6.633-6.857 8.326-10.457.696.286 1.396.56 2.097.82 12.771 4.754 23.19 4.754 35.946.005.919-.34 1.831-.706 2.737-1.086 1.344 4.076 3.151 8.142 5.347 12.11zm22.891 35.592c-1.321.36-2.656.716-3.998 1.074-11.796 3.148-25.957 6.941-36.414 15.774h-86.69v-13.636c0-20.92 11.434-28.048 30.797-33.927l35.127 20.595c8.804 5.663 15.701 5.664 24.506 0l22.216-13.031c5.422 6.673 11.899 12.688 19.011 17.489-1.102 2.569-2.567 5.118-4.555 5.662zm42.37 25.954c-.098.057-.193.116-.288.178-3.992 2.59-4.468 2.589-8.489-.008-.09-.059-.181-.115-.274-.169l-23.889-14.017c4.08-2.771 6.652-6.857 8.346-10.459.698.287 1.397.569 2.101.831 6.387 2.378 12.185 3.566 17.982 3.566 5.795 0 11.59-1.188 17.97-3.563.707-.262 1.41-.544 2.111-.832 1.694 3.6 4.264 7.683 8.342 10.454zm37.345-24.88c-1.342-.358-2.677-.714-3.991-1.072-1.995-.545-3.462-3.099-4.566-5.671 7.107-4.8 13.588-10.802 19.008-17.471l22.224 13.022c4.401 2.831 8.327 4.246 12.252 4.246 3.924 0 7.849-1.415 12.249-4.244l35.193-20.577c19.323 5.875 30.736 13.009 30.736 33.906v13.636h-86.691c-10.457-8.834-24.618-12.627-36.414-15.775z"/></g></svg>