<svg xmlns="http://www.w3.org/2000/svg" xmlns:xlink="http://www.w3.org/1999/xlink" viewBox="0 0 2280 2024"><defs><style>.cls-1,.cls-12,.cls-13,.cls-14,.cls-15,.cls-24,.cls-25,.cls-8,.cls-9{fill:none;}.cls-2{fill:#f9c1ac;}.cls-3{fill:#091c30;}.cls-16,.cls-22,.cls-4,.cls-5,.cls-6,.cls-7{fill:#fff;}.cls-4{opacity:0.16;}.cls-5{opacity:0.23;}.cls-6{opacity:0.57;}.cls-7{opacity:0.75;}.cls-12,.cls-13,.cls-14,.cls-15,.cls-8,.cls-9{stroke:#0d2545;}.cls-13,.cls-14,.cls-15,.cls-24,.cls-25,.cls-8{stroke-linecap:round;}.cls-12,.cls-13,.cls-14,.cls-15,.cls-24,.cls-25,.cls-8,.cls-9{stroke-miterlimit:10;}.cls-8{stroke-width:2.5px;}.cls-14,.cls-9{stroke-width:3.5px;}.cls-10{fill:#b3c6e5;}.cls-11{fill:#bfcfe8;}.cls-12,.cls-13,.cls-24{stroke-width:3px;}.cls-15{stroke-width:2px;}.cls-17{fill:#0d2545;}.cls-18{clip-path:url(#clip-path);}.cls-19{fill:#9b6751;}.cls-20{fill:#845040;}.cls-21{fill:#fffaf8;}.cls-22{opacity:0.04;}.cls-23{fill:#915c49;}.cls-24,.cls-25{stroke:#091c30;}.cls-25{stroke-width:4px;}.cls-26{font-size:87.58px;fill:#081828;font-family:MicrosoftNewTaiLue, Microsoft New Tai Lue;letter-spacing:0.05em;}</style><clipPath id="clip-path"><rect class="cls-1" x="544.71" y="57.71" width="955.79" height="813.07" transform="translate(627.55 -587.03) rotate(44.99)"/></clipPath></defs><title>d_il.4</title><g id="Слой_3" data-name="Слой 3"><path class="cls-2" d="M1959.1,829.25c-2.45,6.59-5.15,14.27-7.82,22.72A161.07,161.07,0,0,0,2022.49,1039c118,70.25,313.21,230.3,205.31,580.62-33,107.12-126.74,184.8-238.29,195.79-44.66,4.41-96.82,1.27-156.51-14.91-52.35-14.19-108-11.28-158.1,9.61-34.09,14.23-71.39,38-107.76,77.06-106.68,114.54-365.65,129.7-633.64-39.77-95.76-60.55-212.8-77.89-321.47-45.82q-2.88.84-5.79,1.74c-68.28,20.92-140.69,25.19-210.63,10.74-114.06-23.56-249.86-95.62-259.37-304-4.54-99.36,23.8-197.33,79-280.07,39.32-58.93,82.56-142.75,63.64-205.62-32.44-107.8-143.57-549,207.47-533.72C769.38,503,798.77,577,1191.78,346.16c367-215.59,836.39-26,793.89,371.78A459.72,459.72,0,0,1,1959.1,829.25Z"/><ellipse class="cls-3" cx="994.75" cy="1734.21" rx="153.37" ry="50.21"/><ellipse class="cls-3" cx="540.37" cy="1736.06" rx="153.37" ry="50.21"/><path class="cls-2" d="M2068.44,801.2c-3.08-26.38-24.69-62.55-53.78-2.38-11.58,24-18.26,53.84-16,86.33,4.29,61.33,25.22,98.22,53.23,123.78,22.41,20.44,52.58,33.7,85.36,36.33,27.75,2.22,54.86-3,39.43-37C2154,958.48,2079.78,898.42,2068.44,801.2Z"/><path class="cls-4" d="M1954.92,841c1.44-4.19,2.85-8.11,4.18-11.7a459.72,459.72,0,0,0,26.57-111.31c42.5-397.79-426.86-587.37-793.89-371.78-359.19,211-414.65,167.3-637.6,148.83,0,0,228.29,150.12,558.63,119.32,70-6.53,138.2-24.91,202.61-53C1636.2,421.61,2046.57,543.77,1954.92,841Z"/><path class="cls-4" d="M2068.44,801.2c-3.08-26.38-24.69-62.55-53.78-2.38-11.58,24-18.26,53.84-16,86.33,4.29,61.33,25.22,98.22,53.23,123.78,22.41,20.44,52.58,33.7,85.36,36.33,27.75,2.22,54.86-3,39.43-37C2154,958.48,2079.78,898.42,2068.44,801.2Z"/><path class="cls-4" d="M395.61,1814.09c69.94,14.45,142.35,10.18,210.63-10.74q2.91-.9,5.79-1.74c108.67-32.07,225.71-14.73,321.47,45.82,243.12,153.75,478.83,155.53,600.13,69-248.88,67.94-504.13-116.94-663.13-217.94-77.84-49.45-185.65-54.31-275.42-46.4-252.55,22.27-442.49-225.78-353.2-463.07,2.18-5.8,3.52-9,3.52-9h0c-9.63,17.92-20.15,35-30.39,50.29-55.18,82.59-83.31,180.53-78.77,279.75C145.77,1718.48,281.56,1790.53,395.61,1814.09Z"/></g><g id="Слой_6" data-name="Слой 6"><ellipse class="cls-3" cx="1934.25" cy="1737.9" rx="153.37" ry="50.21"/><ellipse class="cls-2" cx="1906.66" cy="1729.63" rx="136.82" ry="48.55"/><path class="cls-5" d="M1930.58,1360.46c2.48-5,6.81-10.56,11.78-15.94a148.18,148.18,0,0,1,51.12-35.7c8-3.41,17.9-7.66,28.71-12.48,78.43-34.93,119.43-122.22,95.93-204.79-.23-.81-.4-1.4-.52-1.78a2.6,2.6,0,0,0,.07-.56c0-12.79-94.23-23.17-210.47-23.17s-210.47,10.38-210.47,23.17c0,0,0,.06,0,.09h0s-.24.78-.66,2.25c-23.5,82.57,17.5,169.86,95.93,204.79,10.81,4.82,20.68,9.07,28.71,12.48a148.09,148.09,0,0,1,51.12,35.7c5,5.38,9.3,10.92,11.78,15.94a81.4,81.4,0,0,1,8.16,26.9c5.86,52.67,1.41,190.93-4.47,284.25-.39,6.15-4.74,11.05-10.22,11.47-61.35,4.78-107.24,24.07-107.24,47.15,0,26.53,60.62,48.06,135.65,48.29h3.77c74.77-.32,135.09-21.81,135.09-48.28,0-23.08-45.89-42.37-107.23-47.15-5.48-.42-9.84-5.32-10.22-11.47-5.89-93.32-10.34-231.58-4.47-284.25A81.15,81.15,0,0,1,1930.58,1360.46Z"/><path class="cls-6" d="M1890.12,1376.5s10.1,15.85,11.21,95.29-8,193.1,19.17,226.75c0,0-13.66,3.86-27.92,0l-7.81-1.67h0c1.11-9.93,2.21-30.9,2.21-30.9l3.19-68.14s4.57-47.8,3.43-174.61a282.46,282.46,0,0,0-8.83-60.44"/><path class="cls-7" d="M1907.59,1778.18c75.56,0,136.82-21.62,136.82-48.29,0-15.86-21.69-29.94-55.16-38.74,85,91.73-128.41,84.13-128.42,84.13A367.7,367.7,0,0,0,1907.59,1778.18Z"/><path class="cls-8" d="M1882,1696.33s25.37,9.93,49.65,0"/><path class="cls-9" d="M2117.58,1089.7c.11.37.3,1,.54,1.85,23.5,82.57-17.5,169.86-95.93,204.79-10.81,4.82-20.68,9.07-28.71,12.48a148.18,148.18,0,0,0-51.12,35.7c-5,5.38-9.3,10.92-11.78,15.94a81.15,81.15,0,0,0-8.15,26.9c-5.87,52.67-1.42,190.93,4.47,284.25.38,6.15,4.74,11.05,10.22,11.47,61.34,4.78,107.23,24.07,107.23,47.15,0,26.47-60.32,48-135.09,48.29h-3.77c-75-.23-135.65-21.76-135.65-48.29,0-23.08,45.89-42.37,107.24-47.15,5.48-.42,9.83-5.32,10.22-11.47,5.88-93.32,10.33-231.58,4.47-284.25a81.4,81.4,0,0,0-8.16-26.9c-2.48-5-6.81-10.56-11.78-15.94a148.09,148.09,0,0,0-51.12-35.7c-8-3.41-17.9-7.66-28.71-12.48-78.43-34.93-119.43-122.22-95.93-204.79.42-1.47.66-2.25.66-2.25"/><path class="cls-10" d="M1704.7,1183c18,43.52,54.06,83.52,99.82,103.89,11.82,5.27,22.6,9.92,31.38,13.64a163.54,163.54,0,0,1,47.16,30.31,35.66,35.66,0,0,0,23.94,9.46h.38a34.77,34.77,0,0,0,23.83-9.24,163.59,163.59,0,0,1,47.41-30.53c8.77-3.72,19.56-8.37,31.38-13.64a190.63,190.63,0,0,0,99.82-104.19"/><ellipse class="cls-11" cx="1907.24" cy="1182.64" rx="202.58" ry="14.34"/><path class="cls-6" d="M1716.09,1098.93S1677.81,1239,1832,1286c0,0-106.83-52-75.11-180.61l-40.77-6.5"/><ellipse class="cls-12" cx="1907.2" cy="1089.21" rx="210.47" ry="23.17"/><path class="cls-13" d="M1896.76,1265.38s11.87,11.51,23.74,0"/><path class="cls-14" d="M1925.13,1235.27s22.31-24.92,44.62,0"/><path class="cls-14" d="M1842.05,1235.27s22.31-24.92,44.62,0"/></g><g id="Слой_5" data-name="Слой 5"><ellipse class="cls-3" cx="1488.98" cy="1741.54" rx="151.55" ry="42.87"/><path class="cls-2" d="M1601.58,1685.21c-7.64,19.36-17.34,37.06-29.54,52.3a36.6,36.6,0,0,1-12.88,10.17c-17,8.08-60.65,26.34-110.59,27h-.1c-49.94-.63-93.64-18.89-110.6-27a36.6,36.6,0,0,1-12.88-10.17c-19.32-24.16-32.4-54.48-40.9-87.81"/><path class="cls-5" d="M1600.81,1307.27h-.18a4,4,0,0,0,.18-1.13c0-12.79-68-23.17-151.83-23.17s-151.82,10.38-151.82,23.17a3.66,3.66,0,0,0,.18,1.13h-1.12s-74.09,303.48,28.77,432.09a36.6,36.6,0,0,0,12.88,10.17c17,8.08,60.66,26.34,110.6,27h.1c49.94-.63,93.64-18.89,110.59-27a36.6,36.6,0,0,0,12.88-10.17C1674.9,1610.75,1600.81,1307.27,1600.81,1307.27Z"/><path class="cls-7" d="M1429.27,1774.49s84.76,7.41,160.94-63.75c0,0-11.12,25.33-23.32,32.94S1489.15,1782.67,1429.27,1774.49Z"/><path class="cls-14" d="M1600.81,1306.35s74.09,303.48-28.77,432.08a36.74,36.74,0,0,1-12.88,10.18c-17,8.08-60.65,26.33-110.59,27h-.1c-49.94-.63-93.64-18.88-110.6-27a36.74,36.74,0,0,1-12.88-10.18c-102.86-128.6-28.77-432.08-28.77-432.08"/><path class="cls-10" d="M1616.53,1558.9c-2.46,61.84-15.22,123-50.84,164.33a34.5,34.5,0,0,1-12.22,8.94c-16.08,7.11-57.53,23.17-104.89,23.73h-.1c-47.36-.56-88.81-16.62-104.89-23.73a34.41,34.41,0,0,1-12.22-8.94c-35.47-41.14-48.3-102.75-50.84-164.33"/><ellipse class="cls-11" cx="1448.53" cy="1558.88" rx="168" ry="14.37"/><path class="cls-6" d="M1308.12,1313.88s-56.21,220.47,7.48,356.17c0,0-38.43-163.07,26.94-348.31Z"/><path class="cls-15" d="M1421.3,1763.75s26.77,9.23,53.54,0"/><ellipse class="cls-12" cx="1448.98" cy="1305.22" rx="151.83" ry="23.17"/><circle class="cls-16" cx="1405.17" cy="1611.67" r="23.43"/><circle class="cls-17" cx="1405.17" cy="1611.67" r="18.74"/><circle class="cls-16" cx="1413.97" cy="1602.93" r="2.34"/><circle class="cls-16" cx="1491.07" cy="1611.67" r="23.43"/><circle class="cls-17" cx="1491.07" cy="1611.67" r="18.74"/><circle class="cls-16" cx="1499.87" cy="1602.93" r="2.34"/><path class="cls-13" d="M1437.62,1644.78s13.22,5.42,23.74,0"/></g><g id="Слой_4" data-name="Слой 4"><path class="cls-2" d="M356.66,1542.41V1736a19.36,19.36,0,0,0,11.81,18c33.6,13.7,135.44,46.1,261.57-.5a19.35,19.35,0,0,0,12.4-18.26s.07-97.87.16-228"/><path class="cls-5" d="M643.18,928h0v-.14h0c-.5-13.24-64.4-24-143.15-24-79.07,0-143.17,10.79-143.17,24.1a5.46,5.46,0,0,0,0,.58h0v805.58a19.37,19.37,0,0,0,11.82,18c33.59,13.7,135.43,46.1,261.57-.5a19.34,19.34,0,0,0,12.39-18.26s.42-602.74.55-805.42Z"/><path class="cls-7" d="M424.19,1771.15s152.51,15.74,212.69-85l4-1-.05,50.9a20.73,20.73,0,0,1-14.46,19.75C591.29,1766.93,509.48,1789.57,424.19,1771.15Z"/><path class="cls-10" d="M363.83,1132.75v554.54c5.51,6.93,145.65,42.69,267,0V1133.54"/><path class="cls-9" d="M355,930.42V1736a19.37,19.37,0,0,0,11.82,18c33.59,13.7,135.43,46.1,261.57-.5a19.34,19.34,0,0,0,12.39-18.26s.42-603.07.55-805.58"/><ellipse class="cls-11" cx="497.34" cy="1133.56" rx="133.51" ry="14.92"/><path class="cls-6" d="M371.9,941.21l.2,693a11.57,11.57,0,0,0,7.62,11l8.36,2.89c6.8,2.36,14.37,1.93,13.81-10.35V947.68Z"/><path class="cls-9" d="M355,1685.29c.51.21,1,.4,1.56.58,47.37,16.31,154,41.48,284.22-1"/><ellipse class="cls-12" cx="498.17" cy="929.84" rx="143.17" ry="24.1"/><circle class="cls-16" cx="457.15" cy="1318.67" r="23.43"/><circle class="cls-17" cx="455.86" cy="1316" r="18.74"/><circle class="cls-16" cx="451.58" cy="1305.4" r="3.9"/><path class="cls-13" d="M513.2,1351.92c-12,17.81-23.74,0-23.74,0S500.93,1341.84,513.2,1351.92Z"/><circle class="cls-16" cx="543.22" cy="1318.67" r="23.43"/><circle class="cls-17" cx="541.93" cy="1316" r="18.74"/><circle class="cls-16" cx="537.65" cy="1305.4" r="3.9"/></g><g id="Слой_2" data-name="Слой 2"><ellipse class="cls-2" cx="967.17" cy="1725.94" rx="136.82" ry="48.55"/><path class="cls-5" d="M1000.77,1679.23c-5.46-.46-9.78-5.35-10.17-11.48-5.9-93.32-9.25-232.83-3.38-285.53a83.43,83.43,0,0,1,4-17.77c7.34-21.33,22.84-38.89,42.67-49.66,209.23-113.61,116.6-353,116.6-353,0-12.8-80.77-23.18-180.41-23.18S789.71,949,789.71,961.83c0,0-92.23,238.31,115.24,352.22a98.32,98.32,0,0,1,40.87,42.08,81.48,81.48,0,0,1,8.3,27.2c5.87,52.66,1.42,190.93-4.47,284.24-.38,6.15-4.74,11-10.22,11.48-61.34,4.77-107.24,24.07-107.24,47.15,0,26.67,61.26,48.29,136.83,48.29s136.82-21.62,136.82-48.29C1105.84,1703.39,1061,1684.28,1000.77,1679.23Z"/><path class="cls-7" d="M967.17,1774.49c75.56,0,136.82-21.62,136.82-48.29,0-15.86-21.69-29.94-55.16-38.74,85,91.73-128.41,84.13-128.42,84.13A369.55,369.55,0,0,0,967.17,1774.49Z"/><path class="cls-6" d="M947.12,1361.88s15.45,29.55,16.55,109-8,193.1,19.17,226.75c0,0-13.65,3.87-27.91,0l-7.81-1.67h0c1.1-9.93,2.21-30.9,2.21-30.9l3.19-68.13s4.53-141.51,3.43-174.62a283.21,283.21,0,0,0-8.83-60.44"/><path class="cls-9" d="M1148.68,961.83s92.63,239.35-116.6,353c-19.83,10.77-35.33,28.33-42.67,49.66a82.83,82.83,0,0,0-4,17.77c-5.87,52.7-2.52,192.21,3.38,285.53.38,6.13,4.71,11,10.17,11.48,60.25,5,105.07,24.16,105.07,47,0,26.67-61.26,48.29-136.82,48.29s-136.83-21.62-136.83-48.29c0-23.08,45.9-42.38,107.24-47.15,5.48-.43,9.83-5.33,10.22-11.48,5.89-93.31,10.34-231.58,4.47-284.24a81.48,81.48,0,0,0-8.3-27.2,98.32,98.32,0,0,0-40.87-42.08C695.63,1200.14,787.86,961.83,787.86,961.83"/><path class="cls-10" d="M784.55,1149.4s21,132.73,163.47,172.31a81,81,0,0,0,47.94-1.43c41.93-14.4,125.31-56.65,159.34-170.88"/><ellipse class="cls-11" cx="969.92" cy="1149.4" rx="185.37" ry="14.34"/><path class="cls-8" d="M943.44,1694.49s25.38,9.93,49.66,0"/><path class="cls-6" d="M805.23,971.76s-54.33,201.37,82.49,305.09c0,0-106.37-98.42-46.57-298.58l-35.92-6.51"/><ellipse class="cls-12" cx="968.27" cy="961.83" rx="180.41" ry="23.17"/><circle class="cls-16" cx="925.87" cy="1210.9" r="23.43"/><circle class="cls-17" cx="927.43" cy="1209.34" r="18.74"/><circle class="cls-16" cx="931.34" cy="1197.62" r="3.9"/><circle class="cls-16" cx="939.15" cy="1202.31" r="2.34"/><path class="cls-16" d="M916.5,1218.71s1.56,4.68,7.81,4.68A22.91,22.91,0,0,1,916.5,1218.71Z"/><circle class="cls-16" cx="1011.77" cy="1210.9" r="23.43"/><circle class="cls-17" cx="1013.33" cy="1209.34" r="18.74"/><circle class="cls-16" cx="1017.23" cy="1197.62" r="3.9"/><circle class="cls-16" cx="1025.04" cy="1202.31" r="2.34"/><path class="cls-16" d="M1002.4,1218.71s1.56,4.68,7.81,4.68A22.82,22.82,0,0,1,1002.4,1218.71Z"/><path class="cls-13" d="M958.18,1244.15s11.87,11.5,23.74,0"/></g><g id="Слой_7" data-name="Слой 7"><g class="cls-18"><path class="cls-19" d="M787.9,71.38s84.86,85.42,122.89,94.32a13.74,13.74,0,0,0,2.69.14,43.21,43.21,0,0,0,12.15-1.94c61.27-18.64,250-132.22,549.14,254.37a27.35,27.35,0,0,0,18.59,10.53,69.65,69.65,0,0,0,12.09.3,12,12,0,0,1,12.64,10.72c2.07,20.06,1.65,65.65-24.79,145.23-25.21,80-51.57,117.19-65,132.23a12.07,12.07,0,0,1-16.67,1.16,69.26,69.26,0,0,0-9.85-6.73,27.28,27.28,0,0,0-21.2-2.35C923.14,844,829.77,654.79,789.53,598.13a54.15,54.15,0,0,0-13.65-13.44h0a22.77,22.77,0,0,0-7.33-3.34c-42.63-10.64-148.11,7.45-148.11,7.45"/><ellipse class="cls-20" cx="701.6" cy="329.26" rx="272.46" ry="37.84" transform="translate(172.31 895.39) rotate(-72.07)"/><ellipse class="cls-21" cx="715.03" cy="330.76" rx="253" ry="35.41" transform="matrix(0.31, -0.95, 0.95, 0.31, 180.18, 909.21)"/><path class="cls-19" d="M625.91,586.13c24-17.32,70.73-118.63,111.69-245.22,40.73-125.86,62.23-234.8,53.32-263.67l39.53,50.52L690.9,551.94Z"/><path class="cls-22" d="M784.61,163.84A348.49,348.49,0,0,0,816.79,187a128.9,128.9,0,0,0,116.29,11.2c8.18-3.2,16.47-6.12,24.91-8.57,76.07-22.14,238.29-21.53,433,204.09a24,24,0,0,1,5,8.2c1.49,4.65,1.27,9.46-10.55,2.08-18.25-11.39-265.16-203-440.94-165.3-49.36,10.6-68.2,5.61-100-6.89-19.46-7.65-41.77-19.41-66.19-37.34Z"/><path class="cls-23" d="M1473.66,639.1c-18.4,43.78-35.43,67-45.37,78.18a12,12,0,0,1-16.6,1.21,69.37,69.37,0,0,0-9.91-6.78,27.28,27.28,0,0,0-21.18-2.36C923.15,844,829.77,654.79,789.53,598.13a54.29,54.29,0,0,0-13.94-13.64,23,23,0,0,0-7.47-3.24c-42.89-10.42-147.68,7.55-147.68,7.55s24.94-3.2,79.23-141.3a410,410,0,0,1,52,13.79A264.67,264.67,0,0,1,861.09,532.1c28.18,30.16,90.08,81.59,198.76,103.6a483.19,483.19,0,0,0,146,6.66C1387.2,623.46,1473.66,639.1,1473.66,639.1Z"/><path class="cls-24" d="M1441.08,612.33s-25.15,80.44-47.16,93.94"/><path class="cls-25" d="M836,466.5s-35.12,94.74-58.8,116.12"/><text class="cls-26" transform="translate(1022.03 696.44) rotate(-72.07)">BEHAVIOUR</text></g><path class="cls-11" d="M673.47,508.34S476.7,603.45,447,1141c28.34-7.73,74.81,3,119.93,3.64a21.19,21.19,0,0,0,21.44-21.75c-3.27-130.83,1-408,85.1-614.55"/><path class="cls-12" d="M417,949.7A721.23,721.23,0,0,0,498.17,954c32.31,0,62.12-1.81,86.08-4.85l16.23-2.4"/><path class="cls-24" d="M914.57,165.84a43.27,43.27,0,0,0,12.15-1.94c61.26-18.64,250-132.22,549.14,254.37"/><path class="cls-24" d="M764.94,245.53c21.65-82.1,31.41-146.08,24.89-167.2"/></g></svg>