<svg xmlns="http://www.w3.org/2000/svg" xmlns:xlink="http://www.w3.org/1999/xlink" viewBox="0 0 2280 2024"><defs><style>.cls-1,.cls-12,.cls-16,.cls-17,.cls-5{fill:none;}.cls-2{fill:#b3c6e5;}.cls-3,.cls-9{fill:#fff;}.cls-3{opacity:0.11;}.cls-4{fill:#e2a086;}.cls-16,.cls-5{stroke:#0d2545;}.cls-16,.cls-17,.cls-5{stroke-linecap:round;}.cls-12,.cls-13,.cls-14,.cls-16,.cls-17,.cls-5{stroke-miterlimit:10;}.cls-5{stroke-width:3.3px;}.cls-6{fill:#e09e84;}.cls-7{fill:#0d2545;}.cls-8{fill:#e6e6e6;}.cls-10{clip-path:url(#clip-path);}.cls-11{fill:#ffb248;}.cls-12{stroke:#2b2b2b;stroke-width:1.5px;}.cls-13{font-size:100.4px;}.cls-13,.cls-14{stroke:#000;stroke-width:0.5px;font-family:MicrosoftNewTaiLue, Microsoft New Tai Lue;}.cls-14{font-size:64.41px;letter-spacing:0.02em;}.cls-15{letter-spacing:0.02em;}.cls-16{stroke-width:5.3px;}.cls-17{stroke:#ffd2c5;stroke-width:4px;}.cls-18{fill:#081728;}</style><clipPath id="clip-path"><path class="cls-1" d="M1166.36,182.11a42.25,42.25,0,0,0-26-28.12,53.34,53.34,0,0,0-32.93-1.19L640.26,285.41a53.61,53.61,0,0,0-36.92,66.28L868,1279.21c7.18,25.19,32.91,40.91,58.33,34.61q1.11-.27,2.22-.6L1396.65,1176a53.61,53.61,0,0,0,36.44-66.26Z"/></clipPath></defs><title>d_il.2</title><g id="Слой_3" data-name="Слой 3"><path class="cls-2" d="M223.08,551.28C200.34,590,141.72,726,142.32,885.14c.43,116.83,55.6,227.23,150.8,294.95a366.5,366.5,0,0,0,83.59,44.42c30.8,11.55,67.33,24.19,104.86,34.84,111.25,23.42,173.71,208.84,173.71,208.84s109,367.38,510.83,442.31c157.2,29.31,319.54,5.23,462.85-65.71,121.81-60.3,280.23-165.66,389-337.73,136-215.26,139.46-489.59,4.24-705.35a654.26,654.26,0,0,0-148.7-165.81c-84.13-66.75-184.33-110.1-290.3-127.53-68.46-11.26-158-6.18-249.64-2.41C1132,514.25,1063.83,289.74,767.21,265.57,546.17,247.56,335.46,360.09,223.08,551.28Z"/><path class="cls-3" d="M1873.46,635.9a625.13,625.13,0,0,0-201.78-106.5c23.14,42.92,45.52,103.75,55.11,186.83a690.29,690.29,0,0,1,3.67,109.2c-12.93,298.66,183.62,419.12,384.91,415.8,21-150.36-9.62-306.13-93.21-439.52A654.26,654.26,0,0,0,1873.46,635.9Z"/><path class="cls-2" d="M281.74,1290.28c25.6-.53,71.45,1.8,117.73,20.38,79.17,31.77,128.78,110.43,125.64,195.67a233.83,233.83,0,0,1-9.07,57.6c-11.21,37.86-58.38,65.77-80,5.88-2.26-6.24-5.22-13-8.1-20.62-60-159.56-163.84-177.28-188-220.48-7.73-13.8,0-31.22,15.26-35.34C263.77,1291,273.41,1290.45,281.74,1290.28Z"/><path class="cls-3" d="M281.74,1290.28c25.6-.53,71.45,1.8,117.73,20.38,79.17,31.77,128.78,110.43,125.64,195.67a233.83,233.83,0,0,1-9.07,57.6c-11.21,37.86-58.38,65.77-80,5.88-2.26-6.24-5.22-13-8.1-20.62-60-159.56-163.84-177.28-188-220.48-7.73-13.8,0-31.22,15.26-35.34C263.77,1291,273.41,1290.45,281.74,1290.28Z"/><path class="cls-3" d="M1132.68,1666.07a436,436,0,0,1-55.94-84.44c-208.68-408-436.42-338.88-696.17-581.38C189.62,822,231.67,595.4,269.81,483.19a588.52,588.52,0,0,0-46.73,68.09C200.34,590,141.72,726,142.32,885.13c.43,116.83,55.59,227.24,150.8,294.95a365.93,365.93,0,0,0,83.59,44.43c30.8,11.55,67.33,24.19,104.86,34.84,111.25,23.42,173.71,208.84,173.71,208.84s109,367.38,510.83,442.31c157.2,29.31,319.54,5.23,462.85-65.71C1557.73,1863.07,1293.66,1855,1132.68,1666.07Z"/></g><g id="Слой_2" data-name="Слой 2"><path class="cls-4" d="M1944.39,1676.89c-62.12-74.27-127.12-156.89-185-240.28A859,859,0,0,1,1655,1231.9c-8.43-24-19.51-54.05-34-91.11-39.19-117.47-50.92-265.28-76.49-339a109.06,109.06,0,0,0-31.75-46.7c-15.5-13.38-41.89-33.53-83.51-58.06-77.44-45.64-81.32-64.66-100.76-101.55-16.66-31.61-32.2-65.33-57.83-56.54a32.84,32.84,0,0,0-18.46,16.58c-10.15,20.32-25.11,78.14.75,148.66,0,0,26,63.25,101.51,129.22,0,0,.2,106.26,17.48,170.74,0,0-26.89,76.7-41.22,160.39a481.93,481.93,0,0,0-6.58,104.23c-71,30.22-213.18,91.35-211.77,95.49C1142.71,1453.15,1211,1513.63,1278,1554c31.4,18.88,50.08,34.91,65.06,49.58a439.24,439.24,0,0,1,62.31,76.83c31.12,48.49,108,170.21,166.92,260.83-.33.22,53.12-37.06,171-70.93C1853.7,1838.58,1963.39,1798.36,1944.39,1676.89Z"/><path class="cls-4" d="M665.44,674.6S547.21,688.32,480,642.42c-15.28-10.44-27.39-25-33.79-42.42-5.63-15.29-7.39-34.19,10.65-45.38a41.3,41.3,0,0,1,14.35-5.34c57-10.47,196.95-8.21,196.95-8.21L671.22,674Z"/><path class="cls-4" d="M706.09,803.31s-60.74,19.92-77.77,51.09-27.64,80.67-47.24,115.05-14,98.18,84.2,46.28c0,0,9.15,29.73,14.13,100.91s11.25,88.06,51.58,68.94c0,0-3.19,81.15,10.24,117.07a24.75,24.75,0,0,0,29.69,15.18c30.81-8.2,60.5-45.32,60.5-45.32Z"/><path class="cls-5" d="M668.93,1013.45c11.06-7.28,45-32.32,69.94-79.83"/><path class="cls-5" d="M734.54,1184.91c9.76-5,43-25.15,56.39-72.6"/><path class="cls-6" d="M1112.14,1361.37c30.36,88.86,98.64,149.34,165.69,189.67,31.39,18.88,50.07,34.91,65.05,49.58a439.24,439.24,0,0,1,62.31,76.83c88.36,137.68-42-428.24-42-428.24S1110.25,1355.85,1112.14,1361.37Z"/><path class="cls-7" d="M665.44,674.6s-5.63.65-15.13,1.2c-.78.57-33.56-110-41.13-134.8,33.58-.34,59,.07,59,.07L671.22,674Z"/><path class="cls-7" d="M707.54,803.15s-9.29,3-21.61,8.62c.72,1,146.94,460.58,146.94,460.58Z"/><path class="cls-8" d="M610,249.58l261.1,686.5C913.59,924,1157,131.5,1169.21,174l292.1,1015.81a80.28,80.28,0,0,1-54.56,99.21L933.39,1427.79a60.06,60.06,0,0,1-74.65-41.16L560,339.35A72.6,72.6,0,0,1,610,249.58Z"/><path class="cls-7" d="M614.44,248.24l490.05-139.09a56.24,56.24,0,0,1,69.4,38.56l300.36,1044.53a56.23,56.23,0,0,1-38.23,69.5l-491,144a56.22,56.22,0,0,1-69.9-38.53L575.72,317.76A56.23,56.23,0,0,1,614.44,248.24Z"/><path class="cls-9" d="M1166.64,182.08a42.25,42.25,0,0,0-26-28.13,53.34,53.34,0,0,0-32.93-1.18L640.55,285.38a53.61,53.61,0,0,0-36.92,66.28l264.62,927.52c7.18,25.18,32.91,40.91,58.33,34.61q1.11-.27,2.22-.6l468.14-137.25a53.61,53.61,0,0,0,36.44-66.26Z"/><g class="cls-10"><path class="cls-9" d="M1166.36,182.11a42.25,42.25,0,0,0-26-28.12,53.34,53.34,0,0,0-32.93-1.19L640.26,285.41a53.61,53.61,0,0,0-36.92,66.28L868,1279.21c7.18,25.19,32.91,40.91,58.33,34.61q1.11-.27,2.22-.6L1396.65,1176a53.61,53.61,0,0,0,36.44-66.26Z"/><path class="cls-11" d="M1112.15,459.71a33.29,33.29,0,0,1-32.49,4c-6-2.4-15-6.49-28.41-13.42,0,0-18.18-8.25-22.43-15a4.27,4.27,0,0,1,.21-4.94c2.42-3,8-2.31,13.35,1.19,6.56,4.25,17.1,10.77,18.28,7.75,1.06-2.68-34.61-17.5-42.08-29a5.64,5.64,0,0,1,1.11-7.47c1.93-1.59,5.13-2.66,10-.14,9.4,4.81,32.48,22.68,35.09,19.94,2.37-2.48-37.51-23.76-45.48-35.09a5.48,5.48,0,0,1-.19-6.16c1.31-2,4-3.89,9.56-1.95,9.68,3.39,39.44,30.85,42,25.44,2.29-4.87-34.15-19.78-34.55-31.48a5.05,5.05,0,0,1,5-5.09c2.76-.09,7.22,1.15,13.9,6.57,13,10.55,33.51,26.43,37.26,25.4s6.36-3.77,5.66-13.67,5.7-18.39,12-17.44,4.85,5.4,3.79,13.76,4.6,21.61,8.55,28.59,7.38,19.5-.71,36.53A31.19,31.19,0,0,1,1112.15,459.71Z"/><path class="cls-12" d="M1023.7,443.08s6.91,12.89,21.7,12.86"/><path class="cls-12" d="M1015.94,449.1s8.45,15.76,26.52,15.72"/><path class="cls-12" d="M1078.85,381.27s-5.14-13.71-19.8-15.64"/><path class="cls-12" d="M1087.34,376.33s-6.27-16.75-24.2-19.11"/><rect class="cls-1" x="990.8" y="343.81" width="147.05" height="142.6" transform="translate(-72.01 297.4) rotate(-15.39)"/><text class="cls-13" transform="matrix(0.96, -0.27, 0.27, 0.96, 809.55, 527.52)">Hey!</text><text class="cls-14" transform="translate(744.02 676.07) rotate(-16.6) scale(0.93 1)">This is assessment<tspan class="cls-15"><tspan x="82.01" y="81.97">is awesome, </tspan></tspan><tspan x="96.39" y="163.95">you should </tspan><tspan x="131.2" y="245.92">do it too!</tspan></text></g><path class="cls-4" d="M1759.23,1433.69A859,859,0,0,1,1654.76,1229c-8.44-24-19.52-54-34-91.11-39.19-117.47-50.92-265.28-76.49-339a109,109,0,0,0-31.75-46.7c-15.5-13.38-41.88-33.53-83.51-58.06-77.44-45.64-81.32-64.66-100.76-101.55-16.66-31.61-32.2-65.33-57.83-56.54A32.84,32.84,0,0,0,1252,552.64c-10.15,20.32-25.11,78.14.75,148.66,0,0,26,63.25,101.51,129.22,0,0,.2,106.26,17.48,170.74,0,0-26.88,76.7-41.22,160.39-8.9,52-9.71,105.14-.88,157.14,11.71,69,37.67,127,86.28,177C1482.54,1564.46,1945.19,1701.84,1759.23,1433.69Z"/><path class="cls-16" d="M1329,1164.53c-8.9,52-9.7,105.13-.88,157.13,11.71,69,37.67,127,86.28,177"/><path class="cls-17" d="M1347.46,630.7c-5.67,4.18-28.67,19.24-51.76,7.5a43.81,43.81,0,0,1-18.54-18.87c-14.77-28-12.32-69.5-11.5-79.19"/><path class="cls-7" d="M980.3,167.39l4.63,16.7a21.49,21.49,0,0,1-14.86,26.42L782,263.71a21.48,21.48,0,0,1-26.56-15l-5.56-20.21Z"/><circle class="cls-18" cx="954" cy="194.62" r="7.56"/></g></svg>