<svg xmlns="http://www.w3.org/2000/svg" xmlns:xlink="http://www.w3.org/1999/xlink" viewBox="0 0 2280 2024"><defs><style>.cls-1,.cls-10,.cls-14,.cls-15,.cls-8{fill:none;}.cls-2{fill:#b3c6e5;}.cls-3,.cls-7{fill:#fff;}.cls-3{opacity:0.11;}.cls-4{fill:#05121e;}.cls-5{fill:#e2a086;}.cls-6{fill:#0d2545;}.cls-10,.cls-15,.cls-8{stroke:#0d2545;}.cls-10,.cls-14,.cls-15,.cls-8{stroke-linecap:round;stroke-miterlimit:10;}.cls-8{stroke-width:2.5px;}.cls-9{fill:#071626;}.cls-10{stroke-width:2px;}.cls-11{clip-path:url(#clip-path);}.cls-12{fill:#383838;}.cls-13{fill:#3f3f3f;}.cls-14{stroke:#071626;}.cls-14,.cls-15{stroke-width:0.75px;}.cls-16{clip-path:url(#clip-path-2);}.cls-17{clip-path:url(#clip-path-3);}.cls-18{clip-path:url(#clip-path-4);}.cls-19{clip-path:url(#clip-path-5);}.cls-20{clip-path:url(#clip-path-6);}</style><clipPath id="clip-path"><rect class="cls-1" x="90.02" y="1374" width="418.95" height="325"/></clipPath><clipPath id="clip-path-2"><rect class="cls-1" x="750.4" y="800" width="188.21" height="146"/></clipPath><clipPath id="clip-path-3"><rect class="cls-1" x="155.81" y="499" width="367.39" height="285"/></clipPath><clipPath id="clip-path-4"><rect class="cls-1" x="780.13" y="1357" width="230.75" height="179"/></clipPath><clipPath id="clip-path-5"><rect class="cls-1" x="1791.4" y="694.98" width="265.6" height="206.04"/></clipPath><clipPath id="clip-path-6"><rect class="cls-1" x="2078.53" y="1149" width="105.71" height="82"/></clipPath></defs><title>d_il.6</title><g id="Слой_4" data-name="Слой 4"><path class="cls-2" d="M2199.64,1499.38c18.32-49,31.78-105.79,39.09-170.57,9.05-80.18,1.64-161.48-23-238.32-24.26-75.64-59.63-131.41-129.88-188.17a650.05,650.05,0,0,0-175.5-100.71l-2.56-1c-139-53.82-200.23-217.76-128.58-348.46,47.61-86.84,52.76-195.52-112.63-284.66-82.89-44.67-176.33-66.56-270.69-64.67q-6.35.12-12.94.35c-213.64,7.32-415,100.11-559.94,255.66-24.25,26-49.8,54.65-69.69,79.8-67.55,85.47-176.22,120.93-273.72,64-75.75-44.26-116-92.73-201.29-78.92C209,434.91,151.32,482.28,125.7,547c-21.23,53.65-33.06,132-6,239.38a610,610,0,0,0,56.22,142.72c28.19,51.7,79.53,144,116.86,200.22,45.05,67.85,5.2,161.54-9.31,190.85a370,370,0,0,0-22.13,55.13c-.3,1-.61,2-.91,3-.41,1.36-100.48,322.63,200.29,369.48a359.51,359.51,0,0,0,113.17-.76c76.12-12.4,284.73-27.55,551.65,107.39,301.58,152.45,450.44,57.24,575.52-65,66.07-64.54,159.31-60,260.41-82.66A331.58,331.58,0,0,0,2199.64,1499.38Z"/><path class="cls-2" d="M732.93,177.91c29.06-14.38,63.58,4.5,68,36.63,3.92,28.45-3.37,77.84-57.35,154.74C647.83,505.68,535,549,478.63,412.56S539,221.07,603.23,248.61C649.14,268.29,689,199.62,732.93,177.91Z"/><path class="cls-3" d="M278.31,423.68c85.24-13.81,125.54,34.66,201.29,78.92,97.5,57,206.17,21.51,273.72-64,19.89-25.15,45.44-53.77,69.69-79.8C967.93,203.29,1169.31,110.5,1383,103.18q6.58-.23,12.94-.35a552.82,552.82,0,0,1,189.37,29.23c-1.21-.14-268.56-67.95-466.24,215.39-48.8,69.93-79.12,150.72-90.36,235-89.06,667.19-833,663.19-318.23,1157.5h0c-61.35-2.53-108.15,2.47-136.52,7.09a359.81,359.81,0,0,1-113.17.76C160,1700.94,260,1379.67,260.45,1378.31c.3-1,.61-2,.91-3a370,370,0,0,1,22.13-55.13c14.51-29.31,54.36-123,9.31-190.85C255.48,1073.1,204.15,980.84,176,929.14a609.77,609.77,0,0,1-55.65-140.42C92.47,680.08,104.32,601,125.7,547,151.32,482.28,209,434.91,278.31,423.68Z"/><path class="cls-3" d="M732.93,177.91c29.06-14.38,63.58,4.5,68,36.63,3.92,28.45-3.37,77.84-57.35,154.74C647.83,505.68,535,549,478.63,412.56S539,221.07,603.23,248.61C649.14,268.29,689,199.62,732.93,177.91Z"/></g><g id="Слой_2" data-name="Слой 2"><path class="cls-4" d="M1498.72,639.77s1.55,84.26,72.92,113.28c0,0-5-24.39,9.95-65.88,11.43-31.81-19.17-100-19.17-100Z"/><path class="cls-4" d="M1477.18,623.12s-28.9,79.16,27.24,131.94c0,0,4.15-24.55,33-57.88,22.12-25.56,18.13-100.21,18.13-100.21Z"/><path class="cls-5" d="M1317.22,801.81s15.88,83.38,0,142.94,113.16,63.52,192.57-65.52L1473,634Z"/><path class="cls-6" d="M1440.84,767.59c44.16-88.87-97.78,14.26-121.34,31.77l-2.28,2.45a478.61,478.61,0,0,1,7,71.34S1392.74,864.4,1440.84,767.59Z"/><path class="cls-6" d="M1526.94,670.68a243.29,243.29,0,0,1,81-89c2-1.31,4-2.58,5.89-3.81,28.36-18.09,29.74-57.08,10.75-75.22-16.37-15.65,15.56-40.82-4-67.14A40.14,40.14,0,0,0,1593,419.89a91,91,0,0,0-20.79,0c-6.9.75-7.74-5.53-8.84-15.8a85.3,85.3,0,0,0-82.84-76.14c-16.53-.38-16.11.11-46.6,6.4-28.43,5.87-58.22-12.67-95.86-19.51a125.55,125.55,0,0,0-96,21.8c-47.76,34.63-31,74.73-27,95,7.27,37-57.81,68.65,53.15,121.28,39.79,18.88,45.24,87.38,90.61,91.85,46.55,4.58,82,133.6,103.13,101.1C1488.53,733.79,1511.42,699.74,1526.94,670.68Z"/><path class="cls-5" d="M1250.9,436.27s-31.07,97.05-37.22,215.91a342.51,342.51,0,0,0,2.82,67.21c2.86,19.64,7.52,38.16,16.64,54,14.16,24.54,32.84,42.07,49.3,46.85,61.09,17.73,127.74-21.33,205.56-90.2,38.28-163-32.5-279.19-32.5-279.19Z"/><path class="cls-6" d="M1236.43,528.16c99.51-122.76,124.07,16.91,220-42.39,0,0,10,10.84-4.88,55.37s18.57,117.23,18.57,117.23L1488,730s50-61.67,58.74-138.62-14.39-232.45-119.08-231.71-205.38-10.13-202.93,63.83C1226.62,480.48,1203.74,503.36,1236.43,528.16Z"/><path class="cls-5" d="M1449.52,625.58a87.85,87.85,0,0,1,21.84-11.38c20.3-6.85,41.85,7.66,42.33,29.08.35,15.28-7.81,35.31-44.16,51.25C1401.1,724.52,1449.52,625.58,1449.52,625.58Z"/><path class="cls-7" d="M1744.86,1204.29s80.69-137.09,21.83-237.06c-.62-1.05-2.85-2.53-5.42-4a77.39,77.39,0,0,0-12.75-5.78l-238.93-83.75s-37.6,57.83-134.2,77.17c0,0-30.31-8.32-52.11-54.79,0,0-99.71,18.67-201.73,58.59a218,218,0,0,0-95.44,72.78c-64.71,86.87-112.17,145.4-197.25,233.88l135.89,190.44s43.15-37.2,107.62-100.68c0,0,15.77,252.4,21.3,487.81,10.54,4.95,21.16,10.1,31.89,15.53,301.58,152.45,450.44,57.24,575.52-65a186.27,186.27,0,0,1,41.75-30.66C1750.65,1565.6,1744.86,1204.29,1744.86,1204.29Z"/><path class="cls-8" d="M1464.43,636.59s33.94-18,38.4,18"/><path class="cls-8" d="M1305.85,621c-4.24,15.95-13,41.39-29.29,60.64a47.14,47.14,0,0,0,27.07,14.51"/><path class="cls-8" d="M1257.6,740.28a35.5,35.5,0,0,1,23.18-2.94c12.82,2.88,25.73,13.23,39.55,3.49"/><path class="cls-4" d="M1272.77,496.29a68.08,68.08,0,0,0-60.75,37c-5.09,9.87-12.17,22.39-11.81,34.09.43,13.44,5,24.43,9.64,34.31a33.26,33.26,0,0,0,21.73,18.18c21.23,5.55,64.68,20,143.09,13.18,65.47-5.71,144.83-1.49,159.88,24.4,0,0,30-20.9,44.94-53.82,0,0-14.89,1-32.75-12.22-30.21-22.37-77.64-65.08-139.68-73.09-24.25-3.13-48.34-7.27-72.21-12.57C1311.48,500.53,1291.11,496.38,1272.77,496.29Z"/><path class="cls-9" d="M1330.89,1021.67l20.68,41.06,34.93,4.25,32.62-42.89-11.91-14.94c-8.87-10-16.53-25.51-27.21-33.53l-2.65-.76c-.9-1.32-6.49,4.42-7.51,5.69l-12.76,10"/><polygon class="cls-9" points="1359.52 1021.99 1247.07 1658.54 1342.24 1826.19 1431.95 1656.74 1385.98 1017.74 1359.52 1021.99"/><path class="cls-8" d="M1305.5,907.5s-13.76,61.91,23,119c0,0,32.22-45.54,50.26-52.17,0,0,27.86,24.82,48.25,66.78,0,0,105.1-35.7,116-145.8"/><path class="cls-5" d="M1718.25,1490.07s-61.89-29.37-67.41-29.81S1605.55,1475.12,1530,1446c0,0-31.21-10.08-61-1-23,7-68.32-5.19-48-23.38s81.79-15.27,104.26-30c16.3-10.67,17.58-34,10-59a113.59,113.59,0,0,0-22.53-40.66c-30-35.21-68.89-85-4.87-59.62,0,0,2.81-20.33,39.21-.64,34.61,18.72,37.06,18.86,55.14,49.77a66.42,66.42,0,0,0,14.57,17.28h0s-11.95-41.14-16.63-55.19c-10.21-30.62,12.29-21.6,25.25-9a90.31,90.31,0,0,1,6.58,7.24,142,142,0,0,1,27.81,55c2.59,10.07,6.66,20.36,14.29,25.84,13.63,9.78,31.57-20.35,47.86-36.64,28.79-28.79,5.89,40.09-.07,50.78-9.88,17.75-6.25,33.42,3.08,46.31s57.75,34.29,57.75,34.29S1816.47,1501.23,1718.25,1490.07Z"/><path class="cls-8" d="M1555.5,1387.5s56,7,73,49"/><path class="cls-8" d="M1508.33,1231.91s-3.75,9.45,26,36.12,36.1,48,36.1,48"/><path class="cls-7" d="M1784.54,1393.73s-40.67-6-41.16-6.44C1744,1491,1692,1506,1692,1506c65,36,354.92,146.9,397.33,35.09a59.19,59.19,0,0,0,2.94-29.9C2075,1397.78,1974.19,1275,1904.91,1130.37a455.16,455.16,0,0,0-77.33-114.06c-21.27-22.8-45.3-43.7-69.33-54.54C1571.78,937,1784.54,1393.73,1784.54,1393.73Z"/><path class="cls-8" d="M1744.6,968.12s-77.1,44.38-64.89,154.3"/><path class="cls-8" d="M1066.16,992.7s-57.94,97.47-25.62,227.18"/><path class="cls-5" d="M605.52,1259.85s-25.62-17.38-25.62-30.27,8.43-33.23-18.35-62-43.64-71.42-49.1-32.24c0,0-29.76-58.52-78.36-74.39s-93.24-12.9-89.27,0c0,0-64.47-32.73-61.49,5,0,0-28.77-2-9.92,25.79s87.28,25.79,103.15,62.49c0,0-67.73-19.54-104-17.46-9.18.53-16.53,10-3.56,17,29.05,15.56,85.27,21.43,100.6,39.18,18.85,21.82,24.8,71.41,121,106.13,0,0,19.84,9.92,42.65,51.58S605.52,1259.85,605.52,1259.85Z"/><path class="cls-10" d="M512.45,1135.35s-4,12.89,5,33.72a375.53,375.53,0,0,1,13.89,37.7"/><path class="cls-10" d="M282.83,1066.41s12.89,13.89,47.61,24.8S392.93,1121,392.93,1121"/><path class="cls-10" d="M344.33,1061.45s-5.95,16.87,27.77,26.79,52.57,16.86,61.5,25.78"/><path class="cls-8" d="M1785,1394.23s88.27,14.88,140.84,20.83"/><path class="cls-8" d="M1834.63,1387.29s28.76-39.68,63.48-44.64"/><path class="cls-7" d="M849.35,1239.81s-75.54,86.48-95.38,92.43c-38.68-9.92-111.09-44.64-146.3-79.85,0,0-29.76,68.44-110.1,82.33,0,0,110.43,184.64,261.66,227.92a71.1,71.1,0,0,0,47.85-3.07c45.93-19.94,168.08-81,295-226.34C1262.19,1150,849.35,1239.81,849.35,1239.81Z"/><line class="cls-8" x1="1691.5" y1="1506.5" x2="1744.5" y2="1530.5"/></g><g id="Слой_5" data-name="Слой 5"><g class="cls-11"><rect class="cls-9" x="121.18" y="1415.7" width="356.8" height="260.93" rx="17.98"/><path class="cls-9" d="M222.47,1408.35h14.07a0,0,0,0,1,0,0v10.23a0,0,0,0,1,0,0H215.45a0,0,0,0,1,0,0v-3.21A7,7,0,0,1,222.47,1408.35Z"/><path class="cls-9" d="M362,1408.51h21.09a0,0,0,0,1,0,0v10.23a0,0,0,0,1,0,0H369a7,7,0,0,1-7-7v-3.21A0,0,0,0,1,362,1408.51Z" transform="translate(745.04 2827.25) rotate(-180)"/><rect class="cls-12" x="236.39" y="1397.65" width="7.67" height="23.01"/><rect class="cls-12" x="354.31" y="1395.41" width="7.67" height="23.01"/><path class="cls-6" d="M476.63,1508.15l-172.6,56a14.61,14.61,0,0,1-9.06,0l-171.66-55.94a14.66,14.66,0,0,1-10.12-13.94v-67.7a14.65,14.65,0,0,1,14.66-14.65H472.11a14.66,14.66,0,0,1,14.66,14.65v67.69A14.67,14.67,0,0,1,476.63,1508.15Z"/><path class="cls-9" d="M232.31,1391.5a7.24,7.24,0,0,1,4-2.56c9.43-2.37,61.68-14,127.26.4,0,0,5.47,1.34,4.47,6a6,6,0,0,1-5.84,4.62,13,13,0,0,1-3.9-.56c-4.15-1.28-69-11.19-116.32.63,0,0-9.91,2.24-10.87-3.51A5.86,5.86,0,0,1,232.31,1391.5Z"/><path class="cls-13" d="M283,1560v25.55a4.8,4.8,0,0,0,4.8,4.8h22.69a4.8,4.8,0,0,0,4.79-4.8V1560H283Zm19.34,20.28a2.88,2.88,0,0,1-3.06,2.87,3,3,0,0,1-2.7-3v-6.49a3,3,0,0,1,2.7-3,2.88,2.88,0,0,1,3.06,2.87Z"/><polygon class="cls-9" points="284.64 1552.32 284.64 1543.05 299.98 1530.91 315.32 1543.05 315.32 1554.88 284.64 1552.32"/><rect class="cls-9" x="278.89" y="1551.68" width="41.22" height="13.1" rx="4.5"/><line class="cls-14" x1="136.2" y1="1500.39" x2="264.67" y2="1542.89"/><line class="cls-14" x1="465.36" y1="1500.39" x2="336.89" y2="1542.89"/><path class="cls-15" d="M132.21,1562.54v85.33a17.58,17.58,0,0,0,17.57,17.58H431.32"/><path class="cls-15" d="M236.31,1388.94c9.43-2.37,61.68-14,127.26.4"/><path class="cls-14" d="M301.73,1571.83a3,3,0,0,1,.81,2.06V1580a3,3,0,0,1-3,3,3,3,0,0,1-2-.76"/></g><g class="cls-16"><rect class="cls-9" x="764.39" y="818.73" width="160.28" height="117.22" rx="18.03"/><path class="cls-9" d="M811.34,815.43h4.88a0,0,0,0,1,0,0V820a0,0,0,0,1,0,0h-9.47a0,0,0,0,1,0,0v0A4.59,4.59,0,0,1,811.34,815.43Z"/><path class="cls-9" d="M872.57,815.5H882a0,0,0,0,1,0,0v4.59a0,0,0,0,1,0,0h-4.88a4.59,4.59,0,0,1-4.59-4.59v0A0,0,0,0,1,872.57,815.5Z" transform="translate(1754.61 1635.6) rotate(-180)"/><rect class="cls-12" x="816.15" y="810.62" width="3.45" height="10.34"/><rect class="cls-12" x="869.12" y="809.62" width="3.45" height="10.34"/><path class="cls-6" d="M924.07,860.26,846.54,885.4a6.58,6.58,0,0,1-4.07,0l-77.12-25.13A6.59,6.59,0,0,1,760.8,854V823.6a6.59,6.59,0,0,1,6.59-6.59H922a6.59,6.59,0,0,1,6.59,6.59V854A6.58,6.58,0,0,1,924.07,860.26Z"/><path class="cls-9" d="M814.31,807.86a3.28,3.28,0,0,1,1.8-1.15c4.24-1.06,27.71-6.31,57.17.18,0,0,2.46.6,2,2.7a2.69,2.69,0,0,1-2.62,2.08,5.86,5.86,0,0,1-1.76-.26c-1.86-.57-31-5-52.25.29,0,0-4.45,1-4.88-1.58A2.63,2.63,0,0,1,814.31,807.86Z"/><path class="cls-13" d="M837.11,883.56V895a2.15,2.15,0,0,0,2.15,2.15h10.19a2.16,2.16,0,0,0,2.16-2.15V883.56h-14.5Zm8.68,9.11a1.29,1.29,0,0,1-1.37,1.29,1.32,1.32,0,0,1-1.21-1.34V889.7a1.32,1.32,0,0,1,1.21-1.34,1.29,1.29,0,0,1,1.37,1.29Z"/><polygon class="cls-9" points="837.82 880.11 837.82 875.94 844.72 870.49 851.61 875.94 851.61 881.25 837.82 880.11"/><rect class="cls-9" x="835.24" y="879.82" width="18.52" height="5.89" rx="2.94"/><line class="cls-14" x1="771.14" y1="856.78" x2="828.85" y2="875.87"/><line class="cls-14" x1="919.01" y1="856.78" x2="861.3" y2="875.87"/><path class="cls-15" d="M769.35,884.7V923a7.9,7.9,0,0,0,7.89,7.9H903.72"/><path class="cls-15" d="M816.11,806.71c4.24-1.06,27.71-6.31,57.17.18"/><path class="cls-14" d="M845.5,888.87a1.33,1.33,0,0,1,.36.93v2.72a1.36,1.36,0,0,1-2.26,1"/></g><g class="cls-17"><rect class="cls-9" x="183.13" y="535.57" width="312.88" height="228.81" rx="17.98"/><path class="cls-9" d="M270.39,529.13h13.9a0,0,0,0,1,0,0v9a0,0,0,0,1,0,0H265.8a0,0,0,0,1,0,0v-4.37A4.59,4.59,0,0,1,270.39,529.13Z"/><path class="cls-9" d="M394.29,529.27h18.5a0,0,0,0,1,0,0v9a0,0,0,0,1,0,0h-13.9a4.59,4.59,0,0,1-4.59-4.59v-4.37A0,0,0,0,1,394.29,529.27Z" transform="translate(807.07 1067.5) rotate(-180)"/><rect class="cls-12" x="284.15" y="519.74" width="6.73" height="20.18"/><rect class="cls-12" x="387.56" y="517.78" width="6.73" height="20.18"/><path class="cls-6" d="M494.83,616.64,343.47,665.71a12.82,12.82,0,0,1-7.94,0L185,616.65a12.86,12.86,0,0,1-8.87-12.22V545.06A12.85,12.85,0,0,1,189,532.21h301.9a12.85,12.85,0,0,1,12.85,12.85v59.35A12.86,12.86,0,0,1,494.83,616.64Z"/><path class="cls-9" d="M280.58,514.34a6.41,6.41,0,0,1,3.5-2.24c8.27-2.08,54.1-12.32,111.61.35,0,0,4.79,1.18,3.91,5.27a5.22,5.22,0,0,1-5.12,4.06,11.64,11.64,0,0,1-3.42-.5c-3.64-1.12-60.53-9.81-102,.56,0,0-8.69,2-9.53-3.08A5.18,5.18,0,0,1,280.58,514.34Z"/><path class="cls-13" d="M325.07,662.11v22.41a4.2,4.2,0,0,0,4.2,4.2h19.9a4.2,4.2,0,0,0,4.2-4.2V662.11h-28.3ZM342,679.89a2.52,2.52,0,0,1-2.68,2.52,2.59,2.59,0,0,1-2.36-2.62v-5.68a2.59,2.59,0,0,1,2.36-2.62A2.52,2.52,0,0,1,342,674Z"/><polygon class="cls-9" points="326.47 655.37 326.47 647.25 339.92 636.6 353.37 647.25 353.37 657.61 326.47 655.37"/><rect class="cls-9" x="321.42" y="654.81" width="36.15" height="11.49" rx="2.94"/><line class="cls-14" x1="196.3" y1="609.83" x2="308.95" y2="647.1"/><line class="cls-14" x1="484.94" y1="609.83" x2="372.29" y2="647.1"/><path class="cls-15" d="M192.8,664.34v74.82a15.42,15.42,0,0,0,15.41,15.42H455.1"/><path class="cls-15" d="M284.08,512.1c8.27-2.08,54.1-12.32,111.61.35"/><path class="cls-14" d="M341.45,672.48a2.64,2.64,0,0,1,.71,1.81v5.32a2.66,2.66,0,0,1-2.66,2.66,2.58,2.58,0,0,1-1.75-.66"/></g><g class="cls-18"><rect class="cls-9" x="797.29" y="1379.97" width="196.51" height="143.71" rx="17.98"/><path class="cls-9" d="M853.52,1375.92h7.31a0,0,0,0,1,0,0v5.63a0,0,0,0,1,0,0H849.21a0,0,0,0,1,0,0v-1.32A4.31,4.31,0,0,1,853.52,1375.92Z"/><path class="cls-9" d="M929.91,1376h11.62a0,0,0,0,1,0,0v5.63a0,0,0,0,1,0,0h-7.31a4.31,4.31,0,0,1-4.31-4.31V1376A0,0,0,0,1,929.91,1376Z" transform="translate(1871.44 2757.65) rotate(-180)"/><rect class="cls-12" x="860.74" y="1370.02" width="4.22" height="12.67"/><rect class="cls-12" x="925.69" y="1368.79" width="4.22" height="12.67"/><path class="cls-6" d="M993.06,1430.89,898,1461.71a8.1,8.1,0,0,1-5,0l-94.55-30.81a8.07,8.07,0,0,1-5.57-7.67v-37.29a8.07,8.07,0,0,1,8.07-8.07H990.57a8.07,8.07,0,0,1,8.07,8.07v37.28A8.07,8.07,0,0,1,993.06,1430.89Z"/><path class="cls-9" d="M858.49,1366.64a4,4,0,0,1,2.21-1.41c5.19-1.31,34-7.74,70.09.22,0,0,3,.74,2.46,3.31a3.29,3.29,0,0,1-3.22,2.55,7.22,7.22,0,0,1-2.14-.32c-2.29-.7-38-6.16-64.07.35,0,0-5.46,1.24-6-1.93A3.24,3.24,0,0,1,858.49,1366.64Z"/><path class="cls-13" d="M886.44,1459.45v14.07a2.64,2.64,0,0,0,2.64,2.64h12.49a2.64,2.64,0,0,0,2.64-2.64v-14.07H886.44Zm10.64,11.16a1.58,1.58,0,0,1-1.68,1.58,1.62,1.62,0,0,1-1.48-1.64V1467a1.62,1.62,0,0,1,1.48-1.64,1.58,1.58,0,0,1,1.68,1.58Z"/><polygon class="cls-9" points="887.32 1455.21 887.32 1450.11 895.76 1443.42 904.21 1450.11 904.21 1456.62 887.32 1455.21"/><rect class="cls-9" x="884.15" y="1454.86" width="22.71" height="7.22" rx="2.76"/><line class="cls-14" x1="805.56" y1="1426.61" x2="876.32" y2="1450.02"/><line class="cls-14" x1="986.85" y1="1426.61" x2="916.09" y2="1450.02"/><path class="cls-15" d="M803.36,1460.84v47a9.68,9.68,0,0,0,9.68,9.68H968.1"/><path class="cls-15" d="M860.7,1365.23c5.19-1.31,34-7.74,70.09.22"/><path class="cls-14" d="M896.73,1466a1.66,1.66,0,0,1,.44,1.13v3.35a1.67,1.67,0,0,1-1.67,1.67,1.65,1.65,0,0,1-1.1-.42"/></g><g class="cls-19"><rect class="cls-9" x="1811.15" y="721.42" width="226.2" height="165.42" rx="17.98"/><path class="cls-9" d="M1875.51,716.76h8.78a0,0,0,0,1,0,0v6.48a0,0,0,0,1,0,0h-13.37a0,0,0,0,1,0,0v-1.89A4.59,4.59,0,0,1,1875.51,716.76Z"/><path class="cls-9" d="M1963.81,716.86h13.37a0,0,0,0,1,0,0v6.48a0,0,0,0,1,0,0h-8.78a4.59,4.59,0,0,1-4.59-4.59v-1.89A0,0,0,0,1,1963.81,716.86Z" transform="translate(3940.98 1440.2) rotate(-180)"/><rect class="cls-12" x="1884.19" y="709.97" width="4.86" height="14.59"/><rect class="cls-12" x="1958.94" y="708.55" width="4.86" height="14.59"/><path class="cls-6" d="M2036.49,780,1927.07,815.5a9.23,9.23,0,0,1-5.74,0L1812.5,780a9.28,9.28,0,0,1-6.42-8.83V728.28a9.29,9.29,0,0,1,9.3-9.29h218.25a9.29,9.29,0,0,1,9.29,9.29v42.91A9.3,9.3,0,0,1,2036.49,780Z"/><path class="cls-9" d="M1881.6,706.07a4.63,4.63,0,0,1,2.54-1.62c6-1.5,39.1-8.9,80.68.25,0,0,3.47.85,2.83,3.82a3.78,3.78,0,0,1-3.7,2.93,8.52,8.52,0,0,1-2.47-.36c-2.64-.81-43.76-7.09-73.75.4,0,0-6.28,1.42-6.89-2.23A3.75,3.75,0,0,1,1881.6,706.07Z"/><path class="cls-13" d="M1913.76,812.9v16.2a3,3,0,0,0,3,3h14.39a3,3,0,0,0,3-3V812.9h-20.47ZM1926,825.76a1.83,1.83,0,0,1-1.93,1.82,1.87,1.87,0,0,1-1.71-1.9v-4.11a1.87,1.87,0,0,1,1.71-1.89,1.83,1.83,0,0,1,1.93,1.82Z"/><polygon class="cls-9" points="1914.78 808.03 1914.78 802.15 1924.5 794.46 1934.23 802.15 1934.23 809.65 1914.78 808.03"/><rect class="cls-9" x="1911.13" y="807.62" width="26.13" height="8.31" rx="2.94"/><line class="cls-14" x1="1820.67" y1="775.11" x2="1902.12" y2="802.05"/><line class="cls-14" x1="2029.35" y1="775.11" x2="1947.9" y2="802.05"/><path class="cls-15" d="M1818.14,814.51V868.6a11.15,11.15,0,0,0,11.14,11.15h178.49"/><path class="cls-15" d="M1884.14,704.45c6-1.5,39.1-8.9,80.68.25"/><path class="cls-14" d="M1925.61,820.4a1.89,1.89,0,0,1,.51,1.3v3.85a1.92,1.92,0,0,1-1.92,1.93,1.9,1.9,0,0,1-1.27-.48"/></g><g class="cls-20"><rect class="cls-9" x="2086.4" y="1159.52" width="90.02" height="65.83" rx="6.57"/><path class="cls-9" d="M2112.48,1157.67h3a0,0,0,0,1,0,0v2.58a0,0,0,0,1,0,0h-5.32a0,0,0,0,1,0,0V1160A2.3,2.3,0,0,1,2112.48,1157.67Z"/><path class="cls-9" d="M2147.15,1157.71h5.32a0,0,0,0,1,0,0v2.58a0,0,0,0,1,0,0h-3a2.3,2.3,0,0,1-2.3-2.3v-.28A0,0,0,0,1,2147.15,1157.71Z" transform="translate(4299.62 2318) rotate(-180)"/><rect class="cls-12" x="2115.46" y="1154.97" width="1.94" height="5.81"/><rect class="cls-12" x="2145.21" y="1154.4" width="1.94" height="5.81"/><path class="cls-6" d="M2176.08,1182.85,2132.53,1197a3.66,3.66,0,0,1-2.29,0l-43.31-14.11a3.71,3.71,0,0,1-2.55-3.52v-17.08a3.7,3.7,0,0,1,3.7-3.7h86.86a3.7,3.7,0,0,1,3.7,3.7v17.08A3.72,3.72,0,0,1,2176.08,1182.85Z"/><path class="cls-9" d="M2114.43,1153.41a1.84,1.84,0,0,1,1-.64,73.91,73.91,0,0,1,32.11.1s1.38.34,1.13,1.52a1.5,1.5,0,0,1-1.47,1.16,3.37,3.37,0,0,1-1-.14c-1-.32-17.41-2.82-29.35.16,0,0-2.5.57-2.74-.89A1.5,1.5,0,0,1,2114.43,1153.41Z"/><path class="cls-13" d="M2127.23,1195.93v6.45a1.22,1.22,0,0,0,1.21,1.21h5.73a1.21,1.21,0,0,0,1.21-1.21v-6.45h-8.15Zm4.88,5.12a.72.72,0,0,1-.77.72.74.74,0,0,1-.68-.75v-1.64a.74.74,0,0,1,.68-.75.72.72,0,0,1,.77.72Z"/><polygon class="cls-9" points="2127.64 1193.99 2127.64 1191.65 2131.51 1188.59 2135.38 1191.65 2135.38 1194.64 2127.64 1193.99"/><rect class="cls-9" x="2126.19" y="1193.83" width="10.4" height="3.31" rx="1.47"/><line class="cls-14" x1="2090.18" y1="1180.89" x2="2122.6" y2="1191.61"/><line class="cls-14" x1="2173.23" y1="1180.89" x2="2140.82" y2="1191.61"/><path class="cls-15" d="M2089.18,1196.57v21.53a4.43,4.43,0,0,0,4.43,4.43h71"/><path class="cls-15" d="M2115.44,1152.77a73.91,73.91,0,0,1,32.11.1"/><path class="cls-14" d="M2132,1198.91a.8.8,0,0,1,.2.52V1201a.77.77,0,0,1-1.27.57"/></g></g></svg>