<svg xmlns="http://www.w3.org/2000/svg" xmlns:xlink="http://www.w3.org/1999/xlink" viewBox="0 0 2280 2024"><defs><style>.cls-1,.cls-10,.cls-11,.cls-12,.cls-13,.cls-14,.cls-15,.cls-16,.cls-22,.cls-26,.cls-27,.cls-29,.cls-30,.cls-31,.cls-32,.cls-34,.cls-36,.cls-7,.cls-8,.cls-9{fill:none;}.cls-2{clip-path:url(#clip-path);}.cls-3,.cls-4{fill:#b2c5e4;}.cls-3{opacity:0.28;}.cls-4,.cls-7{opacity:0.48;}.cls-28,.cls-33,.cls-5{fill:#fff;}.cls-5{opacity:0.22;}.cls-6{fill:#b3c6e5;}.cls-10,.cls-11,.cls-12,.cls-29,.cls-30,.cls-31,.cls-7,.cls-8,.cls-9{stroke:#fff;}.cls-10,.cls-11,.cls-12,.cls-13,.cls-14,.cls-15,.cls-22,.cls-27,.cls-29,.cls-30,.cls-31,.cls-32,.cls-33,.cls-34,.cls-36,.cls-7,.cls-8,.cls-9{stroke-linecap:round;}.cls-10,.cls-11,.cls-12,.cls-13,.cls-14,.cls-15,.cls-16,.cls-22,.cls-26,.cls-27,.cls-29,.cls-30,.cls-31,.cls-32,.cls-33,.cls-34,.cls-36,.cls-7,.cls-8,.cls-9{stroke-miterlimit:10;}.cls-12,.cls-29,.cls-7{stroke-width:5px;}.cls-10,.cls-15,.cls-30,.cls-8{stroke-width:3px;}.cls-8{opacity:0.41;}.cls-11,.cls-16,.cls-27,.cls-31,.cls-33,.cls-34,.cls-9{stroke-width:2px;}.cls-9{opacity:0.38;}.cls-10{opacity:0.56;}.cls-11{opacity:0.63;}.cls-12{opacity:0.47;}.cls-13,.cls-14,.cls-15,.cls-16,.cls-22,.cls-32,.cls-33,.cls-34,.cls-36{stroke:#0d2545;}.cls-13{opacity:0.13;}.cls-14{stroke-width:0.75px;}.cls-14,.cls-29,.cls-30,.cls-31,.cls-32{opacity:0.18;}.cls-15{opacity:0.06;}.cls-16{opacity:0.03;}.cls-17{opacity:0.27;}.cls-18{clip-path:url(#clip-path-2);}.cls-19{fill:#ddd;}.cls-20{fill:#e2a086;}.cls-21{fill:#0d2545;}.cls-22{stroke-width:1.5px;}.cls-23{fill:#e19f85;}.cls-24{fill:#704537;}.cls-25{fill:#040c14;}.cls-26{stroke:#010e11;}.cls-27{stroke:#040c14;}.cls-35{fill:#f2f2f2;}.cls-36{stroke-width:1.6px;}</style><clipPath id="clip-path"><path class="cls-1" d="M232.79,1425.47c1.51,2.35,3,4.7,4.57,7,220.51,336.1,609.45,510.6,994.78,452.44,218.78-33,424.3-122.57,605-263.51,304.77-237.73,420.72-506.12,352.94-829.64-16-76.19-49.91-147.64-100-206.66C1860.13,314,1508,536.21,1173,427.48c-46.33-15-90.24-37.24-131-64.84-166-112.55-323.72-130.49-484-77.86C207.09,400.05-5.6,687.67,136.45,1208.26A778.74,778.74,0,0,0,232.79,1425.47Z"/></clipPath><clipPath id="clip-path-2"><path class="cls-1" d="M996.34,1055.05H353.76v77.86c0,1.92,0,3.88-.07,5.86s-.05,4,0,6c-4,4.16-14.06,3.33-15.07,8.36-1,4.19,7.06,5,11.14,7.86a13.31,13.31,0,0,1,4,5.16v8.8c0,1.49-.72,3-3.05,4.5-3,2.18-10.07,3-8,7.22,1,2.51,7.06,4.19,11,6.63a11.17,11.17,0,0,1-.27,3.24,20.16,20.16,0,0,0,.26,9.87c.06,1.11.06,2.23.07,3.35v41.35c0,1.19,0,2.38-.1,3.58-1.92,4.92-5,10-.29,14.53a18.33,18.33,0,0,1,.39,3.68v7.48a57.46,57.46,0,0,0,.5,7.59,23.23,23.23,0,0,1-.31,7.58c-.08,2.55-.19,5.12-.19,7.69v15.88c.5,3.37-.76,6.73-1.52,10.09a20.53,20.53,0,0,0-.51,3.36c-2,4.18,3,6.7,5,10.89,1,3.36-4,5-3,8.21v25c-7.07,6.18-8.08,11.21-.06,16.87.05,1.42.05,2.83.06,4.24v4.33c0,1.53,0,3-1.86,4.51-6.22,2.22-14.29,1.39-18.32,6.42,0,.84,3,1.67,4.26,2.12,5.58,1.44,9.64,2.89,17.48,4.34-.49,1.45-1.06,2.9-1.56,4.34v7.71a22.14,22.14,0,0,0,1,3.71c3.06,6.29,10.12,8,16.17,10.48-8.07,3.35-24.21.84-22.08,12.23a32.31,32.31,0,0,1,5.72,9.7,26.56,26.56,0,0,1-.78,19.66V1492c-6.06,4.42-14.35,4.4-21.9,5.63-3.77.62-7.36,1.55-8.67,3.93,16.44,2.09,31.57,4.61,45.7,10.48-11.1,2.51-24.21,1.68-17,14.21a8.54,8.54,0,0,0,1.86,3.39v4.67c.19,1.57.29,3.16.33,4.75s0,3.19,0,4.78a38.5,38.5,0,0,1-4.72,1.59c-1.25.46-2.53.84-3.47,1.2-3.2.62-4.21,3.14-3.2,4.82,7.06,5.87,20.17,6.71,10,14.72a6.51,6.51,0,0,1,1.05,3.62v32.43c-11.1,5.41-23.21,3.73-34.3,7.92,6.05,4.19,13.11,3.36,20.33,5.11,3.76.55,6.38,1.1,13.92,1.65.05,3.86.05,7.69.05,11.5V1860H996.34v-.89a4.68,4.68,0,0,1,.67-2.61c6.39-4,17.49-4,17.49-8.24,1-5-13.11-2.51-17.37-9.17a31.84,31.84,0,0,1-.79-4.33V1657.2c0-5.54,0-11.14.08-16.81s-.08-11.4-.08-17.18v-22.34c0-3.76.39-7.45.2-11.3s-.2-7.66-.2-11.5v-17.36c4.57-6,16.34-3.16,16.34-9.79,0-3.8-8.56-5.69-13.75-7.75-2.59-2-2.59-3.92-2.59-5.88v-50.51c0-3,.53-6,.41-9s-.41-6-.41-9V1433c.57-1.47.85-2.94,1.53-4.38,3.52-5.43,15.62-5.43,13.6-10.46-2-4.19-12.1-5.87-15.13-11.6V1347.4a33,33,0,0,1,.2-4.1c5.86-7.35,17-4.84,24-9-7.06-5.87-20.17-2.52-24.62-11.12a30.28,30.28,0,0,1-1.93-3.93,5.15,5.15,0,0,1,0-3.93c.58-1.31,1.13-2.62,1.56-3.93s.76-2.6,1.2-3.86c3.65-4.25-.39-7.61,0-11.63a53.24,53.24,0,0,1,8.3-2.85c5.85-1.61,12.13-2.91,17.51-5.71-8.07-4.19-18.16-3.35-26-6.61a22.72,22.72,0,0,1-.26-3.76v-103a9,9,0,0,1,.62-3.66c3.42-3.7,1.4-9.57,7.45-11.24-2-2.52-3-5-5.66-7-2.41-4.24-2.41-7.43-2.41-10.55Z"/></clipPath></defs><title>d_il.1_new</title><g id="Слой_2" data-name="Слой 2"><g class="cls-2"><path class="cls-3" d="M58.32,107.13l176.53,93L285,153.65l29.82,21.47L649.94-21.69l461.6,170.57L1164,107.13,1240.36,125l478-250.39L1900-39.58l50.09-13.12,43.58,43.55,93.59-43.55L2230.74,73.73,2243.48,756S42.82,758.39,23.73,756,58.32,107.13,58.32,107.13Z"/><polygon class="cls-4" points="216.96 405.32 700.03 163.19 936.2 264.58 1050.71 188.24 1081.72 208.52 1718.39 -125.37 2263.76 80.89 2243.48 679.66 2278.07 756 -31.14 756 216.96 405.32"/><path class="cls-5" d="M936.2,264.58,727.11,404a14.41,14.41,0,0,1-22.43-11.81c-.07-7.2,1.38-17.22,5.36-31.16a207.67,207.67,0,0,1,12.84-33.32c8.39-17.33,22.48-51.77,1-50-28.63,2.38-105,23.85-60.83-48.91l37-65.6Z"/><path class="cls-5" d="M1050.71,188.24s-36.62,35.57-47,54.84c-9,16.73,5.74,12.08,11.59,8.31l66.44-42.87Z"/><path class="cls-5" d="M1718.39-125.37s-156,202.68-82,217,97.81,27.43,32.21,96.61-188.46,175.34-105,183.69,337.56-56.06,332.79,10.73-239.75,273.15-208.74,355.45,605.93,28.62,605.93,28.62L2263.76,80.89Z"/><path class="cls-6" d="M-911,741.58s37.49,235.65,555.22,308.85S-578.65,1607.58,267.57,1995c0,0,903.11,147.1,1342.44-157.2,323.91-224.36,244-82.74,411.83-307.39,827.15,414.6,413.9-449.19,675.7-607,75.66-45.6,130.93-105.2,129.79-181.82Z"/><path class="cls-7" d="M-909.25,790.2S-30.9,742.87,749.27,858.06c0,0,112.47,14.2,14.28,41s-260.65,47.34-123.18,93.1,830.15,88.37,623.06,187.78-781.95,157.8-580.22,216.18,449.89,78.9-371.33,276.14"/><path class="cls-8" d="M1328.25,744.22c-116,17.72-226.7,44.73-166.58,79,112.47,64.07,394.54,78.71,178.52,179.39s-565.93,119-392.76,179.4,548.08,97,353.49,172.06-364.2,98.85-314.21,146.45,665.91,108,401.69,216S997.42,1797,901,1927"/><path class="cls-9" d="M2827.33,788s-1678.16,84.72-1290.76,251.75,824.8,171.86,551.65,276S1470.52,1473,1861.5,1657"/><path class="cls-10" d="M-771.79,725.51s-78.55,64.69,362.42,132.55,60.69,222.49,308.85,303,558.79,55.23,482,154.64,148.18,75.75-26.78,219.34-175,347.15-175,347.15"/><path class="cls-11" d="M-618.25,951.16s1362.16,11,1097.94,142,448.11,108.88,266,186.2-494.52,56.81-549.87,247.74"/><path class="cls-12" d="M2759.49,876.12s-887.28-33.8-821.23,90.82-319.56,67.59-294.57,245-796.23,173.2,137.47,509"/><path class="cls-13" d="M1033.13,741.29S711.78,761.8,760,802.83s371.34,75.74,208.88,148.33S244,1014.27,633.23,1121.58,963.5,1239.92,765.34,1303s-274.94,64.7-110.69,143.59,405.73,127.82,403.71,225.65-543,91.52-543,91.52"/><path class="cls-14" d="M-861.94,846s926.56,125,773,241-380.26,132.11-153.53,178.52,758.74,42.85,171.38,366"/><path class="cls-15" d="M-910.14,819.4s1062.23-1.58,989,56.8S-178.18,931.43,132.46,1064s441,116.77,262.43,266.67,590.93,287.19,303.5,493.9"/><path class="cls-16" d="M2758.6,742.47S2289.07,778.17,2383.69,896s-305.28,130.33-453.46,194.6-133.9,94.62-32.14,201.73-410.61,28.57-391,296.36,782,310.64,782,310.64"/><rect class="cls-1" x="-176.57" y="-52.17" width="3127.74" height="2203.21"/><g class="cls-17"><g class="cls-18"><path class="cls-19" d="M682,1641.94c10.67-5,22.78-2.46,33.87-7.49-6-4.2-22.19,0-21.37-12.51.72-1.06,1.45-2.15,2.19-3.28-6-5.17-17.13-3.5-23.18-9.37,8.07-3.35,17.15-3.35,26.22-5-6-4.19-14.12,0-20.6-2.66a22.35,22.35,0,0,1-4.62-1.53,22.72,22.72,0,0,1,4.56-2.4c23.46-6.93,48.06-.3,70.51-8.83a38.86,38.86,0,0,0-4.27-4.74c3.2-1.9,7.48-1.9,11.9-2.11,1.69-.11,3.39-.23,5.07-.37-5-3.35-13.12-3.35-18.16-6.71,2-2.51,6.05-1.67,9.08-3.35-3.43-.84-6.9-1.74-10.4-2.63-14-3.54-28.54-6.76-43.07-4.08a46.27,46.27,0,0,0,10.94-5.25,15.69,15.69,0,0,1,4.72-2.17c13.87-3.67,28.85-3.67,42.75-7.46-3.21-4.27-8.82-4.27-13.72-5.52a13.58,13.58,0,0,1-4.5-1.88c3.25-2.08,7.52-3,8.59-4.93,2.14-2.84-2.14-6.63-6.41-5.69,9.62-1.89,20.32,0,29.94-1.89-12.83,2.84-27.8,0-35.72-11.25-.78-1.54-.34-2.82,0-4.13a22.29,22.29,0,0,0,.44-8.33c-1.07-.94-3.21-.94-3.91-2.2-6.78-2.54-14.27,1.26-19.62-2.54,21.39-4.74,44.92,0,66.31-7.58-8.56-3.79-19.25,0-26.71-7.15a3.19,3.19,0,0,1-.23-3,5.57,5.57,0,0,1,2.22-2.85,27.69,27.69,0,0,1,5.37-1.89,43.77,43.77,0,0,1,5.61-1c10.61-1.33,20.7-2.17,31.79-3-9.07-9.22-29.25-5.86-42.36-10.06h5c-1,0-3,0-3-.84-1-5,5-7.54,6.41-11.4.84-1.84,1.15-2.71,1.15-2.71l-44-3.93-.58,2.08a4.68,4.68,0,0,1-2.19,2.49c-5.17,4.25-11.22,2.57-17.28,4.25,10.09,5.87,22.2,5.87,33.29,9.22-4,2.52-13.11,0-12.1,4.2,3,6.7,16.14,1.67,23.2,6.7-2,.84-4,.84-6.55,1.38-1.85.38-3.69.69-5.53,1a97.71,97.71,0,0,0-14.43,3,104.13,104.13,0,0,1-13,3c-1.92,1.29-5.15,1.3-7.9,1.63s-5,1-2.31,3.51c11.43,3.53,24.26,2.58,36,7.33-18.18,1.89-35.29,2.84-53.47,1.89a13.49,13.49,0,0,0,5.45,4.92c1.35.6,2.88,1.13,4.38,1.65,5.17,1.59,10.48,3.09,15,6.08-.33,1.19-.67,2.39-1,3.59a6.83,6.83,0,0,0-.31,3.8c5.32,1.77,6.39,7.46,9.6,11.25,4.27,3.79,11.76,1,18.17,2.84-13.9,2.85-31-2.84-43.84,5.69,3.21,2.85,8.56-2.84,9.6,5.41-.19,1.77,1,2.66,2.37,3.26,4.2,1.82,10.22,1.29,12.63,5.55-9.63,1.9-19.25,5.69-30.18,7.09a77.63,77.63,0,0,0-7.35,2.54q-2,1.27-4,2.52c1.66.37,3.34.66,5,.89s3.41.39,5.14.53,3.46.23,5.2.31c8.7.42,17.51.47,25.61,2.91a37.64,37.64,0,0,1,5.43,2.07,29.46,29.46,0,0,1-4.84,2.86,52,52,0,0,1-5.29,2.1,20.91,20.91,0,0,1-4.35,1.78c2.14,8.54,13.9,5.69,19.25,9.48-17.11,6.64-36.36,1.9-53.11,8.55l-6.19,1.85c-3.83,1.14-7.71,2.23-11.42,3.5-1.59.54-3.16,1.12-4.84,1.74,5.22,1.68,10.26,1.68,15.3,1.68-5,3.36-13.11.84-18.15,5.87,8.07,5,20.17,2.52,28.54,7.62a12.54,12.54,0,0,1,2.31,3.08,5.54,5.54,0,0,0,.33,2.87c5.13,9.91,19.25,5.72,26.32,12.42-6.06,1.68-13.12.84-16.73,5.82"/><path class="cls-20" d="M873.88,1379.34c-4.64-1.47-10.69-2.31-14.73-5.66,20.18-3.36,45.39,1.68,58.16-15.56,1.88-1.44,3.69-2.9,5.4-4.35s3.31-2.89,4.76-4.31a43.19,43.19,0,0,0,5.06-5.92,11.89,11.89,0,0,1,2.92-3.12c9.45-4.47,19.53-4.47,28.61-7.83-12.1-4.19-24.21-7.54-34.85-13.27a44,44,0,0,0-5.83-1.72c-6-1.36-12.28-1.78-17.83-2.62,5.38-2.79,14.8-1.86,21.2-4,1.6-.53,3.07-1.26,6-2.24,7.08-3,18.18-1.29,24.23-7.16-7.06-3.36-17.15-1.68-23-8a20.77,20.77,0,0,1,4-.94c4.37-.71,9.42-1.13,11.94-4.49a114.68,114.68,0,0,0-29.1,2.6q-2.94.6-5.87,1.31c-3.36.29-6.39,2-5.38,2.8,5,5,14.12,3.35,20.17,7.55-12.1,4.19-25.22,1.67-36.07,6.81a46.75,46.75,0,0,1-4.37,2.16c-1.55.67-3.19,1.3-5,1.93,2.27,4.4,9.08,3.14,14.81,4.15a14,14,0,0,1,5.47,2.1c10,3.81,22.09,6.32,32.18,10.52-12.11-4.2-24.21-6.71-35.83-10.85a25.45,25.45,0,0,0-4.6-1.34c-6-1.14-12.7-.39-18.08-3.74,2-.84,4-.84,5-2.52-4,.84-8.07,1.68-11.1,3.35,3.53,1.68,8.33,2.1,12.6,3.14a23.8,23.8,0,0,1,4,1.33c10.61,4.76,24.73,3.92,34.82,11.47-15.13,3.35-34.3-.84-44.23,11.45a23.77,23.77,0,0,0-2.79,3.46,53.65,53.65,0,0,0-5.37,10.16c-.58,1.42-1.16,3-1.89,4.81-4.23,10.36-21.38,7-30.46,12.88,10.09,2.51,21.19,3.35,32.44,5.37C873.12,1379.27,873.88,1379.34,873.88,1379.34Z"/><path class="cls-20" d="M722.35,1734.89c-16.53-4.86-33.68-3.18-49.46-8.73-1.83-.68-3.43-1.24-5.07-1.7-9.79-2.76-20.76-2-30.6-4.49,8.07-4.19,21.18-4.19,23.52-13.19a10.56,10.56,0,0,1,2-2.54c3.2-3,10.15-4.67,14.86-5.23-26.23-5-53.46-2.51-78.68-9.22,8.07-.84,16.14-1.68,23.29-4,1.8-.47,3.64-1,5.46-1.53a70.72,70.72,0,0,0,16.59-6.91c1.86-.83,3.66-1.57,5.49-2.3,3.64-1.45,7.34-2.85,10.7-4.53-12.1,1.68-22.19-1.67-29.28-8.87a21.52,21.52,0,0,0-4.39-1.08c-6.12-1-13.07-.39-17.78-4.3,12.11-4.19,25.22-3.36,37.32-8.51.76-1.07,1.52-2.14,2.29-3.18,9.82-8.44,23.95-5.08,36-9.27-7.06-3.36-15.13-5-19.16-10.9,11.09,5.86,25.22,6.7,37.32,10.9-5,2.51-14.12,2.51-16.45,8.86a14.62,14.62,0,0,0,2.18,2.53c-6.91,7.89-20,3.7-28.1,9.57,4.29.63,8.58,1.1,12.84,1.53l6.4.64c24.14,3.7,47.34,7,71.55,8.73-2.27,3.77-9.64.47-12.29,3.95-.44.58-.74,1.35-1.59,2.47-8.31,9.51-21.43,7-32.52,10.35,4.54.84,11.35.42,17.08,1.23a32.18,32.18,0,0,1,5.76,1.37c10.45,5.78,22.55,4.94,33.65,7.46-9.08,5-20.43,4.4-30.08,7.16a48.12,48.12,0,0,0-5.08,1.78c-14.27,7-30.41,10.34-44.53,15.38,3.78,1.25,11,2,12.65,5a5.89,5.89,0,0,1,.41,3.79c8.12,4.61,19.22,2.93,28.63,6.72C723.77,1734.48,722.35,1734.89,722.35,1734.89Z"/><path class="cls-21" d="M736,1673.33c-16.08,8.07-35.25,8.91-53.41,11.43a16.19,16.19,0,0,0,4.84,2.16c13.32,5.38,28.45,6.22,41.57,9.58-13.12.83-26.23,4.19-38.33,7.54,7.06-5,17.14-3.35,24.21-7.54-22.2-3.36-44.39-4.2-66.58-8.39,2-1.68,5-2.52,7.86-3.19,1.68-.49,3.36-1,5.05-1.43,11.82-3.26,23.88-6.19,34.4-11.87,1.63-.38,3.3-.71,4.94-1,3.29-.62,6.51-1.15,9.28-1.77-16.14-1.68-31.27-6.71-46.33-9.58-1.92-.25-3.78-.47-5.6-.76a35.61,35.61,0,0,1-10.61-3.08c13.11-3.35,28.24-2.52,41.36-8.39-7.06,7.55-19.17,4.2-28.25,8.39a53.38,53.38,0,0,0,5.81,1.56c2,.42,4,.76,6,1,26.52,3.28,52.74,7.47,79,9.15-3,2.51-7.06,1.68-11.45,3.51C737.49,1671.49,736.49,1672.47,736,1673.33Z"/><path class="cls-20" d="M820.35,1761.58A23.91,23.91,0,0,1,818,1757c-9.3-7.63-23.42-2.6-33.51-7.63a155.83,155.83,0,0,0,27.76-12.4,20.76,20.76,0,0,1,3.7-2.16c4.86-2.12,12.25-1.93,17-4.73-9.08-5-21.18-3.35-30.58-8.61a8.73,8.73,0,0,1-2.13-2.25c-6.63-8.42-19.74-8.42-30.84-10.1,17.15-5.87,36.32-6.71,51.45-16.77-3-1.67-6.06-3.35-8.88-3.92-1.74-.49-3.5-1-5.26-1.4-5.31-1.34-10.64-2.55-16.24-3.71-1.88-.19-3.85-.27-5.88-.29-10.15-.11-21.75,1.36-29.31-.74,16.14-3.35,30.26-10.06,45.39-16.77a32.71,32.71,0,0,0-9.35-3.28c-6.37-1.36-12.91-1.69-19.11-4.91a23.51,23.51,0,0,1-3.53-2.88,19.52,19.52,0,0,0-6.92-4.27,24.81,24.81,0,0,0-3.78-1.82,28.94,28.94,0,0,0-12.6-1.78,28.37,28.37,0,0,0-4.43.7c-13.92,5.66-32.08,4-46.2,9.86,1.26.21,2.52.47,3.77.78,12.37,5.09,26.49,6.76,39.61,8.44-7.57,2.52-16.4,3.14-24.68,4.58-2.08.35-4.11.76-6.09,1.26-14.07,8.33-30.19,10.52-46.51,13.93-1.76.39-3.53.79-5.18,1.25,19.91,5,41.1,5.81,61.27,9.17-9.24,4.19-19.89,3.72-29,7.77-1.83.81-3.69,1.81-6.23,3.14-6.09,6.69-18.19,5.85-24.24,12.56,8.4,2.1,18.91.12,26.23,4.15,1.63.8,3.13,1.85,5.32,3.2,12.83,3.55,25.95,2.71,39.06,6.91-11.1,5-27.24.84-35.66,10.35.43,1.47.88,2.94,1.36,4.42a10.34,10.34,0,0,1-5,5.47c-1.08.6-2.25,1.09-3.32,1.56-1.8,1.67-6.84,3.35-5.83,4.19,17.15,9.22,39.34,3.35,58.51,8.39-7.06,5-27.24-.84-27.74,9.27a5.34,5.34,0,0,1,2,2.75c.39,1.81,0,3.14.11,4.38,8.52,15.46,27.68,3.72,39.9.24,2.08-.4,4.35-.81,6.61-1.22,24.86-4.59,49.47-10.14,75-12.91-2-2.51-5-3.35-8.39-5.35a40.23,40.23,0,0,1-4-2.07C820.47,1763,820.2,1762.28,820.35,1761.58Z"/><path class="cls-21" d="M818.31,1758.68s1.28.59,3.2,1.72a24,24,0,0,0,8.68,3.62c1.56.35,3.16.62,4.68.88,4.1,1.19,10.16,2,10.16,3.71-3,11.73-24.21,5.86-34.3,13.41a25.18,25.18,0,0,0,8.6,2.43c1.5.19,3,.31,4.55.43,14.09,2.17,28.21,4.69,42.33,8a27.45,27.45,0,0,1-5.19,2.31,40.92,40.92,0,0,1-5.42,1.36c-4.52.52-8.56.52-11.58,1.36-18.16,8.39-37.33,10.06-56.49,14.26,2,5,13.11,1.67,13.23,8.15-.62.93-2.28,1.71-4.33,2.43-3.5,1.22-7.13,2.33-10.87,3.3-1.86.48-3.75.93-5.43,1.36-11.77,4.88-26.9,3.2-40,2.36h13.12c-22.19-6.7-44.39-10.06-67.59-13.19q-2.77-.37-5.55-.82c-1.85-.31-3.7-.66-5.55-1.08-3-.84-12.1,1.68-9.07-1.68,6-5,19.16-5,24.71-11.8a31.57,31.57,0,0,1,3-2.72,10.8,10.8,0,0,1,6.63-2.24,6.51,6.51,0,0,0-5,3.24c-2,2.62-3,6.82-5,9.33,7.06,0,12.1-2.51,13.36-8.17a23.36,23.36,0,0,1,3.34-3c1.2-.88,2.46-1.66,3.47-2.29-11.09-1.68-24.21,4.19-32.28-3.36-2-.84,3-5.87,1.06-9.18-.57-1.33-1.11-2.73-1.59-4.21,1.3-1.32,1.39-2.3,2-3.34,4.6-4.23,10.66-5.91,16.71-7.58-10.09-3.36-26.23,2.51-32.28-7.55-1-1.68,3-3.35,6-4.3a11.17,11.17,0,0,0,3.82-2.62,6.55,6.55,0,0,0,2-3.71,17.7,17.7,0,0,0,.22-2.7c5.12-11.82,25.29-7.63,37.4-11.82-14.12-5-29.26-3.36-43-8.5-1.79-.74-3.15-1.35-4.58-1.85-8.58-3-19.74-2.23-28.06-4.75,20.18-3.49,46.66-4.07,67.5,3.21q3.13,1.1,6.07,2.43c16.21,6.1,35.38,1.91,51.52,7.78-9.08,3.35-20.18,2.51-29.26,7.55-1,.83,0,1.67.91,2.69,3.13,9-12,8.21-16,13.24,1.72.33,3.46.59,5.25.81,10.89,1.7,21,0,32.08.86,19.16,2.52,40.35,10.9,58.24,2.2C814.93,1760.13,816.63,1759.44,818.31,1758.68Z"/><path class="cls-21" d="M818.38,1758.57a37.25,37.25,0,0,1-4.34,1.75c-8.35,4.09-16.43,2.42-24.94,1.41-1.31-.35-2.56-.78-4.22-1.32-14.5-5.22-29.63-1.87-43.76-5.22,7.07-5,16.14-5.87,23.54-10.33,1.31-1.63.48-2.88,2.22-4.28,6.52-6.35,18.63-3.84,24.68-9.71-17.15-1.67-33.29-3.35-50.44-2.51,10.09,1.67,20.18.84,29.26,3.35-11.48,5.87-25.27,3.39-37,8.84a28.47,28.47,0,0,0-4.86,2.86c-3.06,6.18-9.91,8.23-16.23,10.66-1.58.61-3.13,1.24-4.57,2-.94.84-3,2.51-1.95,2.51,32.53,6.29,65.06,11.64,97.6,12.5l6.37.16c6-.08,13,2.44,19.1-.08,4-1.68-3-5-6.19-5.66a21.76,21.76,0,0,1-4.36-2.14C816.23,1761.86,816.83,1760.29,818.38,1758.57Z"/><path class="cls-20" d="M696.11,1716.26c6.41,1,13.78,2.91,17.11,8a9,9,0,0,0,4.31,3.45c12.5,4,26.62,1.52,38.73,4.87-10.09,5-24.22,1.68-32.87,10.1a17.64,17.64,0,0,0,5,1.82,15.54,15.54,0,0,0,5.38.11,18.58,18.58,0,0,0,5.54-1.69c14.91-5.31,31-5.31,45.17-12-11.1-2.51-23.2,0-34.29-4.71a5.7,5.7,0,0,1-2.22-2.9"/><path class="cls-22" d="M781.15,1732a205.73,205.73,0,0,1-38,6.41c7.06-2.52,15.13-2.52,21.29-6.44"/><path class="cls-22" d="M696.69,1716.4c5.41.71,11.25,2.43,14.84,5.63a11,11,0,0,1,2.22,2.68c13.25,9.52,31.41,3.65,45.32,8"/><path class="cls-21" d="M777.79,1716.3c-6.4-2.2-13.46-2.2-19.52-3,10.09-2.51,23.2-1.67,30.27,4.2,0,.84-3,.84-4.3,1.08C782.72,1718.17,780.88,1717.4,777.79,1716.3Z"/><path class="cls-21" d="M800.71,1730.57c-.07.3.94,1.14.94,1.14-4,1.68-12.11,3.36-10.09,5a14.27,14.27,0,0,0,3.55,2.49,36.36,36.36,0,0,0,16.18-3.79c1.79-.79,3.59-1.59,5.35-2.25a28.31,28.31,0,0,1,5.19-1.48c-13.12-3.35-27.24-1.68-40.36-3.35,4,0,7.07,1.67,11.33,1.15C795.9,1729.83,798.84,1730.19,800.71,1730.57Z"/><path class="cls-22" d="M759.63,1676.84c5.7-1.31,10.75-3.82,16.26-6.72a42,42,0,0,1,5.36-1.35c5.43-1,11.13-1.28,16-1.78"/><path class="cls-23" d="M773.64,1250.18c9.85-1.44,10.86-11.5,11.32-18.93l-1.22-3.27c.76-9.42,13.87-7.74,19.93-12.78-9.08-3.35-21.19-3.35-29.53-8.93-2.36-1.23-3.92-2.06-5.56-2.72-9.87-4-23.67-1.76-33.51-4.28,5.55-1.67,11.35-2.93,17-4.34a36.15,36.15,0,0,0,5-1.49c.26-.87,1.27-.87,1.27-1.71-9.08-3.36-19.16-2.52-28.24-5.87,10.08-5,22.19-3.36,32.74-6.65,2.23-1.16,2-2.32,1.53-3.48l-1.29-3.47-1.36-3.67a14.16,14.16,0,0,1,2.41-3.58c1.85-.77,3.72-1.44,5.61-2s3.81-1.11,5.44-1.59c5.36-1.53,4.35-3.2,5.36-6.56,0-2.51,5-1.67,8.07-1.67-19.17-6.71-39.35,2.51-58.51-4.2,5-4.19,18.16-1.67,17.88-8.82a20.63,20.63,0,0,0-4-2c-5.69-2.13-12.79-2.55-19-3.48a20.37,20.37,0,0,0,4.81-.58,24,24,0,0,0,4.36-1.56c13-4.57,27.15-3.73,40.26-8.76-4-3.35-12.1-2.52-15.13-5s1-2.52,3.46-2.72c1.8-.41,3.63-.78,5.42-1.15s3.56-.74,5.24-1.16c-10.44,0-20.76.64-31,1.62-2,.19-4,.4-5.93.62-21.54,4.47-42.73,6.14-62.94,12-1.7.77-3.37,1.62-5,2.57,3,3.35,10.09.84,11.1,3.35a11.74,11.74,0,0,0,1.12,3.24,11.67,11.67,0,0,1,1.26,2.64c-5.41,5.86-12.47,7.54-19.53,10.89,27.24,5.87,56.49-.84,83.73,5.87a42.24,42.24,0,0,1-7.69,1.14c-1.89.15-3.9.28-5.9.4-12,.76-24.15,1.43-35.37,4.64a7.07,7.07,0,0,0-3.7,3.27c.16,1.16.33,2.32.51,3.49l1,6.29a2.9,2.9,0,0,1-1,3.2c-5.3,3.56-12.36,2.72-17.41,6.92,6.05,3.35,13.12,2.51,17.72,7.67a13,13,0,0,1-6.6,4.07c-4.95,1.39-10.78.83-16.16,2.51a15.54,15.54,0,0,0,4.06,3.38,19.74,19.74,0,0,0,5.65,2.1c17.53,2.07,34.67,6.26,51.82,9.61-9.08,2.52-24.21-.83-29.63,8.44a21.7,21.7,0,0,0-.61,4.14l1.14,7.58a9,9,0,0,1,0,3.72c-9.27,8.83-24.4,7.15-34.49,13.86,11.1,4.19,23.2,0,35,2.59a6.17,6.17,0,0,1,3.27,5.1l2,13.45,36.76-10.51a36.8,36.8,0,0,0,4.23-1.42,79.24,79.24,0,0,0,11.53-7.54c1-.84,0-1.67-1-2.51,3-2.52,7.06-1.68,10.16-1.82Z"/><path class="cls-24" d="M807.7,1154h16.14c-7.06-1.67-23.2,0-23-8.54a59.76,59.76,0,0,0-4.61-4.27,6,6,0,0,0-1.69-2.28c15.13-3.93,32-.49,46.56-7,1.49-.43,2.85-.91,4.66-1.43,11.32-3.36,23.43-2.52,34.52-6.71-2-4.19-9.07-1.68-10.08-5-1-2.52,3-2.52,4.68-3.56,1.48-.36,3-.68,4.44-1,3-.65,6-1.3,9-2.14-10.08-6.71-23.2-4.19-33.73-8.67-1.49-.59-2.9-1.13-4.49-1.6-4.75-1.43-11.11-2.32-19.56-2.31-23.42,0-63.58,0-96,.47-1.35,0-2.68,0-4,.08-2.64.29-5.67-.55-8.69,1.13-6.06,5-13,7.08-20.55,8.63-3.78.78-7.7,1.43-11.73,2.27,6.05,10.9-4,10.06-13.79,14-2,.87-3.42,1.67-4.9,2.42s-3,1.42-4.52,2c2.53,1.26,5,2.51,7.47,3.85a60.28,60.28,0,0,1,6.85,4.32c-1.2,8.6-14.32,8.6-21.38,12,28.25,4.19,57.5,1.68,85.75,4.19-23.2-4.19-46.4,0-69.61-4.19,4-2.51,10.09-3.35,14.53-6.45,3.24-2,4.78-3.4,7-4.58-.51-.81-.63-1.34-.38-1.55,6.93-7.86,16.63-4.91,26-.08,1.87,1,3.73,2,5.54,3-7.3,6.27-17.39,4.59-25.46,7.94,26.23,4.2,53.47,0,79.69,3.36l-1,.84c7.07,0,15.14,1.67,22.31.73Z"/><path class="cls-25" d="M554.5,1400.51s1.89.9,5.37,2.47c1.69.88,2.7,2.56.68,2.56-18.15,3.35-35.3,3.35-53.46,5.87,34.3,5.87,72.63-3.35,106,8.5-.34,1.68-.55,3.48,2,5.41a20.59,20.59,0,0,0,3.47,1.52c18.82,6.86,40.4,14,62.84,20l3.73,1a91.83,91.83,0,0,0,13,3.54c1.5.35,3,.72,4.61,1.16-.08,1.65-2.1,2.49-4.11,2.49,28.24,5.87,57.5,14.26,85.83,3,1.87-.16,3.91-.25,5.94-.33s4.06-.15,6.08-.2c-1,0-3-.84-4-.84,14.12-1.68,28.25-4.19,39.93-10,2.36-1,4-1.85,6.1-2.84a40.61,40.61,0,0,0,8.53-17.2,7.05,7.05,0,0,1,3.82-5.21c12.24-4.14,26.36-3.3,38.46-6.66-6-3.77-13.87-3.77-21.28-4.15-1.85-.09-3.68-.21-5.45-.42-14.63-5.49-31.78-4.65-46.91-9.68,10.09-3.35,22.2-3.35,32.26-7.51a10.17,10.17,0,0,0,.06-4.15q-.26-2.1-.57-4.23a5.67,5.67,0,0,0-1.54-3.47c-10-6.63-22.14-2.44-33.23-5,8.07-8.38,23.2-2.51,30.69-12a23.55,23.55,0,0,0-.68-3.56q-1.72-7.07-3.79-14.28l-1.05-3.6c8.12-8.51,20.22-7.67,30.31-11.86-12.11-3.36-26.23,0-36.87-6.81a32.4,32.4,0,0,0-5.27-2.82c-7-2.77-17-2.39-24.44-4.63,5.88-3.49,13.87-3.49,19.92-6.32a24,24,0,0,0,3.56-2.08c4.77-1.66,11.83-2.5,11.83-6.69,0-2.52-8.07-2.52-8.07-6.71,0-.84,2-.84,2.8-1.51a47.11,47.11,0,0,1,4.85-1.12c5.21-.93,10.5-1.56,14.54-4.08-11.1-5-28.25,0-36.32-9.15l-1.44-3.42q-2.64-6.24-5.27-12.19a17.76,17.76,0,0,0-1.77-3.24c-3.62-6.38-15.73-5.54-15.73-13.92a26.56,26.56,0,0,0-4-.84c0-4.19,5-6.71,6.11-11.13.89-2.34.15-3.88-.57-5.37s-1.51-3.08-1.15-4.67c5.7-6.5,15.78-4.82,22.85-9-14.13-5-29.26-5-43-10.26-2.09-.67-4.09-1.27-6.12-1.81-30.42-8.1-67.27-4.14-99.21-1.34a18.83,18.83,0,0,0,4,2.09,35.68,35.68,0,0,0,4.73,1.49c13.5,4.8,28.63,3.13,40.74,9.83-12.11.84-26.23.84-34.24,9.89a57.24,57.24,0,0,0-3.72,4.81l-3.5,4.88-3.72,5.17c-11.32,10.47-27.46,11.31-40.57,18,8.07.84,20.18,0,19.84,8.15a2.93,2.93,0,0,1-.42,3.31l-7.21,10-2.45,3.41c3.19,2.21,7.06,2.69,11,3,1.31.12,2.64.22,4,.36,4.53,1,19.67,1.87,11.6,6.9-8.07,5.87-19.17,2.52-28.93,5.66-2.68.69-4.88,1.4-7.3,2.16q-2.21,1.14-4.32,2.43a15.75,15.75,0,0,0-3.39,3.68l-2.55,3.56a17.62,17.62,0,0,1-3.2,3.61c-12.86,8.25-31,5.74-45.14,10.77a22,22,0,0,0,5.27,1.77,40.85,40.85,0,0,0,5.63.71c19.36,0,35.5,7.58,53.66,11.77-13.11,2.52-27.23,1.68-40,6.85a11.28,11.28,0,0,0-4.43,3.88L572.12,1376a7.36,7.36,0,0,1-3.85,2.76c-12.76,3.35-25.87,6.71-40,9.22,10.09,5,21.19.84,31,5.91l-3.55,4.94Z"/><path class="cls-21" d="M575.13,1418.89c.56-.77,1.56-.77,2.57-1.61-3-1.68-7.06-.84-10.09-3.35,6.06,0,11.1.83,17.15,0,28.25-6.71,55.49-9.23,83.67-12.94a26.87,26.87,0,0,0,6.11-2.16c2-1.67,0-6.71,4.66-7.87a22.57,22.57,0,0,1,7.45-2.19c50.44-3.35,100.88-8.38,148.6-25,1.87-.75,3.56-1.48,5.19-2.21a130,130,0,0,0,25.95-15.22q2-1.51,3.88-3.1c11.07-10.64,27.21-9.8,42.35-12.31-9.08-8.39-23.21-5.87-33.83-10.92-1.21-.51-2.42-1-3.63-1.41-3.65-1.3-7.44-2.35-11-3.61,4.71-2.23,10.32-3.72,15.63-5.91a41.5,41.5,0,0,1,4.94-1.77c9.7-3.22,20.79-1.54,29.87-5.73-6-3.36-14.12-2.52-19.16-7.55,0,0,1-.84,2.19-1.63a29.4,29.4,0,0,1,4.13-1.34c5.78-1.5,11.83-2.06,17.89-3.74-13.12-2.51-27.24-3.35-37.86-10.94a20.62,20.62,0,0,1-4.34-3.29,81.82,81.82,0,0,0-15-11.12q-2.26-1.34-4.69-2.66c-16.79-13.07-39-11.39-61.17-13.91-5.05-.84-4-8.39-9.26-11.88a21.79,21.79,0,0,0-3.87-1.35q-8.54-2.37-17.68-4.73c-1.41-.36-2.82-.73-4-1.15-6.55-4.37-12.61-9.4-21.69-9.4,1-.84,3-.84,4-1.68-26.23-1.67-51.45-5-76.89-9-2-.35-3.9-.72-5.76-1.11a141.5,141.5,0,0,1-27.31-8.34c-6.05-2.8-13.45-4.1-21-4.41-1.89-.08-3.84-.09-5.89,0s-4.09.13-6,.27a16.52,16.52,0,0,1,5.29,1.73A11.57,11.57,0,0,1,610,1197c6,6.45,14.09,10.64,23.17,14.83-10.09.84-18.16,6.71-28.07,10a10.23,10.23,0,0,0-2.84,4.94,50,50,0,0,0-1.74,21.23c-27-4.73-55.3-5.23-83.66-2.36-2.37.24-4.73.5-7.14.8-21.82,3.11-41,9.82-63.18,13.17-11.09,1.68-21.18,1.68-31.27,3.36,3,5,15.13,3.35,13.21,11.13a38.33,38.33,0,0,1-4.09,4.25c-1.49,1.43-2.92,2.92-4.3,4.45,20.4,7,42.59,3.65,62.77,7-22.2,4.19-46.41,2.52-68.12,7.29a28.25,28.25,0,0,0-4.93,2.08,21.79,21.79,0,0,0-4.4,3.13c-1,1.49-1.9,3-2.78,4.6q-2.29,4-4.36,8.44c-.68,1.47-1.35,3-2,4.52-2.13,5.11-8.22,6.07-12.94,7.88-2.36.91-4.38,2-5.37,4,3,11.68,26.21,5,36.3,11.68-9.08,3.36-18.16,4.2-25.81,9.62a9.17,9.17,0,0,0-1.09,4.36,123.59,123.59,0,0,0-.12,15.07,6.17,6.17,0,0,1-.83,4.12c-5.44,6.24-14.52,4.56-20.57,8.76,6.05,5,16.14,3.35,22.87,6.9A6.69,6.69,0,0,1,392,1396a45.94,45.94,0,0,0,3.57,6.52,34.45,34.45,0,0,0,2.51,3.57,12.23,12.23,0,0,1-2,2c9.08,6.7,22.2,4.19,33.66,6.21,3.61.34,7.2.7,10.73,1.33-3,3.36-10.09,2.52-10.09,7.55,0,2.51,4,3.35,6.39,4.83,1.28.35,2.64.67,4,1,26,5.57,56.49,4,79.52,1.21l3.95-.57c15.09-3.08,30.22-5.59,45.77-9.39C573.43,1419.34,575.13,1418.89,575.13,1418.89Z"/><path class="cls-20" d="M632.76,1196.82c-27.82-6.77-56.07,2.45-85.32-3.42a9.73,9.73,0,0,1-3.29-1.18c-1.19-.54-2.27-1.22-3.54-2-11.33-8.61-28.48-2.74-42.6-1.06,0,1.68,6.05,1.68,3.43,5.16-1.77,1.28-5.57,2.17-9.45,2.86-11.61,2.08-23.84,2.38-35.34,5.4q6,.84,11.8,2.2c1.93.45,3.83.94,5.72,1.47,12.74,3,23.84,13.94,38,13.94h-2c10.09-2.52,20.18,1.67,23.32,9.81.74,1,1.64,1.8,1.14,3.71,17.12,4.89,35,10.22,50.62,15,1.31.4,2.59.79,3.78,1.18,2.86,1.34,8.91,2.18,9.92,4.69,2,2.52-3,1.68-5,3.36,6.06,2.51,14.13,5,17.15,2.51,6-5.87,18.16-5.87,22.74-12.88a18,18,0,0,0,2.64-3.15l4.19-15,.9-3.22c6.86-10.24,26-6,37.12-11.91-12.11-5-27.24-.84-37.23-9.73a38.39,38.39,0,0,0-3.22-2.89c-1-.89-2-1.75-3.1-2.63A27.17,27.17,0,0,1,632.76,1196.82Z"/><path class="cls-24" d="M554.24,1194.31c-5.79-6.78-15.88-3.42-22.94-7.61,12.1-5.87,27.24-5,40.38-8.07,3-1.6,3.11-3.15,3.2-4.69s.2-3.06.34-4.57a38.12,38.12,0,0,1,.63-4.56,125.67,125.67,0,0,1,19.15-4c2.16-.29,4.33-.54,6.4-.76,11.61-1,21.7-6.09,33.8-5.25-30.26-4.19-60.52-.84-90.79-4.19,11.1-3.35,22.2-5,33-7.88,2.6-1.39,2.47-2.52,2.16-3.5-1.27-3.9-4.85-5.39-12.92-5.39a90.1,90.1,0,0,0,24.41-8.54c2.09-.74,4.16-1.49,6.8-2.23,17.21-5.16,34.36-1,51.51-4.32-10.09-6.71-23.21-5-34.06-10a8,8,0,0,0,3.79-1.69c-12.71-2-25.78-4.93-38.84-5.13-2.18,0-4.35,0-6.39.17-1.17,1.61-6.22-.07-5.21,3.28,2,3.36,7.07,3.36,10.09,5.87-7.06,3.36-15.13,2.52-22.19,2.52,10.09,2.51,20.17-1.68,30.26-.84-10.09,5.87-23.2,4.19-34.1,7.29a41,41,0,0,0-4.78,1.52c-1.65.61-3.3,1.2-5.21,2-9.37,4.23-15.43,11.78-23.5,15.13a110.91,110.91,0,0,1-13.24,3.15c-1.55.28-3.12.53-4.69.77s-3.19.2-4.74.34a25.41,25.41,0,0,0-4.56.77c0,.84,1,1.68,1,1.68-7.07,5-15.14,4.19-23.21,5.87,34.3,5,68.6-.84,103.35,5.09a39,39,0,0,1-4.82,1c-4.27.54-8.57.83-12.88,1-2.15.11-4.31.19-6.46.26-6.55-.64-13.62,1-19.39,1.22-2,.25-4.13.56-6.23,1a68.46,68.46,0,0,0-12.44,3.5c-1.51.79-3,1.62-4.49,2.46-4.45,2.54-8.81,5.3-13.3,8.21-.84,1-1.49,2-2.13,2.95-18.18,6.06-39.36,2.71-57.52,8.58,13.11,3.35,26.23,4.19,39.74,7.66,3.57,1.66.57,2.54-2.61,3.19-6.36,1.3-13.43,1.72-19,5.08,3.53,1.67,7.56,2.51,11.46,3.54,1.31.34,2.59.7,3.9,1.17,9.86,4.51,16.92,12.06,28,13.73h-1c12.11,9.23,28.25,9.23,42.37,13.42,2-4.19,6.06-8.39,4-12.58-1-.84-3-.84-5-.84,6.06-5.87,16.14-4.19,22.2-8.38-11.1-2.52-22.2-3.36-31.57-9-1.37-.55-2.81-1-4.28-1.49s-3-.87-4.5-1.29c14.12-4.19,29.25-4.19,44.38-5.87a13.87,13.87,0,0,0-3.6.28C555.3,1195.49,553.06,1195.31,554.24,1194.31Z"/><path class="cls-21" d="M907.54,1285.29c-1.67-.22-3.35-.47-5-.77-8.35-1.49-16.52-4-23.49-8.76a33.82,33.82,0,0,1-5-3.94,120.5,120.5,0,0,0-14.51-11c-1.6-1-3.28-2.09-5.37-3.31-15.16-12.14-34.32-11.3-53.49-11.3,2-5,0-10.9-4.46-14.52-1.34-.54-2.8-1-4.27-1.54q-4.39-1.49-9-3c-1.38-.45-2.79-.89-4.11-1.35-4.36-.58-4.36-3.94-2.34-5.61,2-.84,4-.84,5-3.36-33.28-4.19-66.57-7.55-99.77-11.59-2.64-.31-5-.67-7.15-1.11a57,57,0,0,1-18.16-6.58h2a146.72,146.72,0,0,0-32.73-6.87c-2.24-.21-4.5-.37-7.35-.46-13.38.62-27.5-1.9-39.61,4,2.52.35,7-.17,11.18-.15s8.16.61,9.71,3.16a49.37,49.37,0,0,1,6.28,6c3.09,3.55,7.13,6.06,11.16,8.58-9.07,1.68-18.15,5-25.41,10.48a19.43,19.43,0,0,0-2.55,3.2,79.27,79.27,0,0,0-2.75,19.93,9.08,9.08,0,0,1-.89,4.63c-5.72,5.36-13.79,7-21.21,10.31"/><path class="cls-26" d="M607.13,1112.31a200.8,200.8,0,0,1,24,5.63c-13.12,2.52-26.23.84-38,5.34"/><path class="cls-27" d="M586.1,1249.86c1.69,2.24,7.74,3.08,7.74,5.59s-6.05.84-8.07,3.36c18.16,4.19,37.33,5,55.78,9.45,1.73.41,3,.78,4.3,1.15,5.5,1.59,11.26,3.21,17.23,4.8,2,.53,4,1.06,6.57,1.69,39.19,11.41,81.56,15.61,122.9,13.9"/><path class="cls-28" d="M643,1695.52c-20.94-2.38-41.12-2.38-62.11-3.53a54.77,54.77,0,0,1-5.78-1.18,43.55,43.55,0,0,1-5.51-1.86c9.08-4.19,19.17-5,28.56-8.4a12,12,0,0,0,3.72-2.5c-16.14-1.68-32.28-.84-47.42-3.92a15,15,0,0,1-5.1-2c-1.08-.71-2.18-1.45-3.28-2.22-1.43-.49-2.76-1-4.59-1.5-15.26-2.91-29.39-3.75-44.52-6.26,8.07-5,20.18-1.68,28.36-8.24-1.52-1.34-3.11-2.71-4.7-4.1a21.3,21.3,0,0,1-4.15-4.4c6.72-7.58,18.82-4.22,27.9-8.42-16.14-5-38.33.84-50.23-12.2q-1.23-1.21-2.43-2.43c-.85-.87-1.74-1.79-2.88-2.88-22.13-7.64-45.33-6-68.54-9.32,14.13-4.19,29.26-2.51,43.08-5.23a25.39,25.39,0,0,0,5-1.45,9.25,9.25,0,0,0,2.55-2.32c0-.94-.8-1.84-1.61-2.73l-2.39-2.68a12.44,12.44,0,0,1-2-2.66c-.24-9.76,17.92-6.41,25-12.28-14.12-3.35-31.27.84-42.17-7.51a1.63,1.63,0,0,1,.26-2.7c7.61-4.88,17.7-2.36,25.77-5.72-18.16-3.35-38.33,0-56.49-6.7,1,0,2-.84,1-1.68-8.07-4.19-18.16-2.52-26.22-5.87,4-.84,8.12-1.63,12.25-2.39,12.38-2.28,25-4.33,37.07-6.89,1.51-.26,2.95-.53,4.35-.86a22,22,0,0,0,7.85-3.28c-9.83-2.51-20.23-2.67-30.54-4.84a63.78,63.78,0,0,1-10.25-3,4.55,4.55,0,0,1-3.59-6.42c5-5.87,15.13-2.52,20.17-7.55-8.07-.84-14.12-5-21.86-6.28-3.36-1.08-5.21-1.89-6.87-2.54-11.57-4.53-25.36-1.87-36.84-6.27,11.1-5,24.21-1.68,34.71-8.67q-.66-1.83-1.32-3.69a2.87,2.87,0,0,1,.5-3.17c6.46-4.59,15.54-4.59,22.6-8-15.33-4-29.37-8-42.7-14.55a71,71,0,0,1-9.57-5.46c13.94-13.53,48.24-5.14,70.43-7.66-17.15-6.71-38.33-3.35-54-13.79a25,25,0,0,1-1.19-6,11.64,11.64,0,0,1,.85-6.08c-4.2-5.19.85-6,4.88-7.71-9.08-1.67-18.16-.84-26.23-4.19,6.06-3.35,14.13-4.19,19.9-6.71.1-1.29.22-2.55.37-3.8s.31-2.47.51-3.68c.27-1.68.59-3.32-.28-5-6.37-2.65-13.43-2.65-18.48-6.84,17.15-5,35.31-11.74,52.46-7.55,12.1,3.35,25.22,4.19,38.33,4.19h-1c29.26,1.68,56.49,12.58,85.76,16.75,2.25.36,4.29.67,6.27,1,6,.9,11.35,1.75,16.4,2.82a19.38,19.38,0,0,1,4.09,1.19c-11.64,6.78-27.78,2.59-40.89,7.62,27.23,3.35,55.48-.84,80.67,7.11-.16.77-.82,1.65-1.06,2.83a6.07,6.07,0,0,0-1.28,4.56,21.42,21.42,0,0,0,2.19,2.7c2.41,2.67,4.89,5.63,7.47,8.91l2.36,3,2.36,3.12a5.78,5.78,0,0,1-.06,4.2,5.61,5.61,0,0,1-2.64,2.53c-1.24.41-2.25,1.25-3.26,1.25,10.09,10.9,28.25,3.35,41.36,10.06-6,3.35-16.14-.84-21,5.54,1.86.67,3.75,1.24,5.65,1.74,13.3,3.48,27.31,3.2,40.55,6.13-3,2-6.84,2.71-10.84,3.16-2,.23-4,.39-6.07.59a55.13,55.13,0,0,0-5.92.84c-7.43,4.64-26.6,3-22.57,14.7,0,2.1,2.53,2.31,5.8,2.1,1.64-.11,3.47-.32,5.27-.45a25.41,25.41,0,0,1,5.1,0h-3.05c2,5.87,11.09,7.54,13.67,13,1.1,1.89,1.82,3.15,2.46,4.28.8,1.42,1.59,2.82,4.82,4.83,9.7,6.2,20.4,11.89,33.23,11.89-4.28,1.89-9.62,1.89-15,1.89H709c-32.08,1.9-64.17,5.69-96.25,6.64,24.6,6.64,51.33-.95,76,6.5,2,.34,4,.7,6,1.07,8.06,1.49,16,3.18,23.86,4.76-15,4.74-29.94,3.79-45.4,7.8a57.53,57.53,0,0,0-6.17,1.77c-.54.6-1.06,1.22-1.56,1.85a30.76,30.76,0,0,1,5.54,2,14.22,14.22,0,0,0,5.56,1.36q3.31,0,6.55.11a264.5,264.5,0,0,1,32.2,3.18l5.63.9a9,9,0,0,0,1,5l-4.61.85c-1.55.29-3.12.59-4.58.93-1.65-.18-4.86-.18-4.86,2.67,3.21,7.58,13.9,3.79,18.18,9.48-18.18,3.79-38.5,0-56.61,7.61-1.79.53-3.43,1-5.09,1.47s-3.31.91-5,1.36c-2,.53-4,1.07-6,1.63,5,5.87,13.11,0,19.17,3.35a150.18,150.18,0,0,1-28.25,5c13.12,3.36,27.24,4.2,39.47,9.33l-.62,5a58.57,58.57,0,0,0,4.71,3.92c6.88,3.58,17,3.58,24,7.78-11.1,4.19-25.22,2.51-35.44,9.71a14.37,14.37,0,0,1-4.9,3.69c-12.12,5-26.24,2.53-38.34,7.56,4,2.09,8.82,2.51,13.5,3.24,1.55.25,3.1.53,4.67.94,10.07,4.2,20.16,7.56,31.25,9.23a67.56,67.56,0,0,0-16.42,3,54.24,54.24,0,0,0-5.16,1.91,147.92,147.92,0,0,1-24.62,9.24c-1.64.5-3.3,1-4.91,1.43-6.39,2-12.44,3.73-18.49,5.41,7.06,3.35,15.13,2.51,23.06,4.11C638.28,1695,640.64,1695.26,643,1695.52Z"/><path class="cls-22" d="M587.31,1589.28c.28-1.67.73-4.27,1.4-7.67a10.31,10.31,0,0,1,1.45-3.77,26.24,26.24,0,0,1,4.88-1.4c20.9-3.72,41.22,4.82,62.61,2-17.11-4.74-34.22-12.32-52-12.19-2.44-.16-4.9-.3-7.35-.44-12.28-.71-24.58-1.39-36.08-3.66-2.12-.42-4.22-.9-6.28-1.43,33.32-6,66.47-4.09,99.62-9.77-26.74-3.8-53.47-3.8-78.81-8.54a31.72,31.72,0,0,1,5.54-2.72c7.15-2.81,14.65-4.08,22.32-4.86,1.91-.19,3.84-.36,5.87-.51,21.55-2.34,44,.51,65.4-3.28-23.53.94-46-4.75-68.6-11.1-1-1.73-.38-3.53.28-5.35s1.33-3.65,2-5.5c-2.44-.47-4.13-1-7-1.32-6.63-2.42-15.71,2.61-22.77-3.26a55,55,0,0,1,12.4-3.41c2.17-.41,4.33-.78,6.26-1.2,2.52-.42,7.57-1.26,6.56-4.61-1-2.52-5-1.68-7.06-3.36,11.09-4.19,21.18-8.38,32.79-11,1.71-.3,3.4-.56,5.08-.8,8.42-1.21,16.85-2,25.68-4.1-10.59-4.4-22.73-3-33.4-7.28a17.38,17.38,0,0,1-3.68-2.19c7.83-3.1,17.91-1.43,26-5.62-1,0-2-.84-3-.43"/><path class="cls-28" d="M589,1591.43s.45-3.12,1.52-8.69a9.51,9.51,0,0,1,2.07-4.76,16.22,16.22,0,0,1,5.59-1.8c22.05-4.41,44.51,6,67,4.13-16-4.74-32.08-11.38-49.57-13.82q-3.24-.27-6.46-.48c-15-1-30.4-1.23-44.62-3.9q-3.29-.61-6.48-1.42c32.28-6,65.43-4.09,97.51-9.77-23.53-3.8-48.12-3.8-71.94-7.59-.41-1.42,1.11-2.64,2.75-3.68,5.39-3.45,11.82-5,18.74-5.74,2.33-.23,4.72-.38,7.3-.48,21.76-2.42,44.22,1.37,65.6-2.42-19.24,0-39.56-1-57.06-8.35-2.37-.75-4.59-1.44-6.88-2.27-2-.58-3.94-1.22-5.88-1.94.37-1,.74-2.08,1.12-3.13s.76-2.11,1.15-3.17c.48-1.32,1-2.64-1.59-3.74-7.92-2.25-17-.57-25.06-3.09a16.38,16.38,0,0,1,4.54-3,29.79,29.79,0,0,1,5.24-1.73c4.34-2,14.43-.34,13.42-6.21-1-.84-3-.84-4-1.68,8.07-6.7,19.17-9.22,29.4-11.88,1.83-.34,3.64-.61,5.46-.85,9.1-1.21,18.48-1.73,26.68-4.88-10.6-2.93-22.73-2-33.25-5.84a33.75,33.75,0,0,1-4.4-2c7.38-6.45,18.48-2.26,26.55-5.61-6.05-5.87-26.23,0-20.15-10.36a28,28,0,0,0,4-2.23,19.24,19.24,0,0,0,6-6.44c.82-1.36,1.64-2.72,2.48-4.07q2.52-4.08,5.17-8.11a44.83,44.83,0,0,1,3.38-4.59q1.29-1.74,2.72-3.33c1-1.06,2-2.08,2.1-3.11-1.7-8.07-14.82-3-19.86-8.91,7.06-2.51,15.13-.84,23.2-1.68,8.07,0,16.14-5,23.11-8.41a8,8,0,0,0,2.44-3.42c-2.43-2.82-6-5.31-8.74-7.36-1.47-.67-3.15-1.22-4.72-1.76a21.36,21.36,0,0,1-4-1.68c23.2-2.52,46.4-3.36,68.1-11.84l5.74-1.82A745.1,745.1,0,0,1,866.21,1346s13.83.79,23.13,10.82a7.22,7.22,0,0,1,2,3.52c2.13,11.65-16,9.14-24.1,14.17,5,2.51,18.16,3.35,16.43,9.81a17.41,17.41,0,0,1-3.9,2.55c-2.5,1.37-5.23,2.87-8.16,4.46q-2.21,1.2-5,2.49c-15.54,4.16-31.68,2.49-46.81,7.52,8.07,4.19,18.16,5,27.46,8.77a25.14,25.14,0,0,0,4.86.79c6.57.5,13.75-.62,19.13,3.85-19.17,3.36-39.35,1.68-58.15,7.62a32.45,32.45,0,0,0-3.79,1.67c-14.37,7.26-29.37,14.61-44.08,21.45q-5.52,2.57-11,5c-10.13,7-23.24,7.84-35.35,8.67,11.1,2.52,21.18,4.2,32.28,5.87-3,2.52-10.09-.84-10.09,1.68,0,4.19,10.09,3.35,13.12,8.38-2,.84-4,.84-6.07,1.75-1.76.37-3.41.61-5.07.86-3.32.52-6.69,1.13-9.38,3.18a8.33,8.33,0,0,0-3,5.17c10.34,5.09,23.17,5.09,33.86,8.89-22.45,5.69-47.05,1.89-69.51,6.63a159.48,159.48,0,0,0,17.79,4c1.84.36,3.69.73,5.5,1.14s3.59.85,5.31,1.36a11.56,11.56,0,0,1,.33,5.45c-.32,1.57-1,2.92-1.11,4.35,0,7.46,4.27,15,13.89,13.15-2.14,1.89-4.28.94-6.42.94H740c-1.07,8.54-13.9,5.69-17.69,12.46,1.65,1.77,4.86,3.66,3.79,4.61-3.21,7.58-15,2.84-20.8,8.07-1.4,1.13-2.82,2.26-4.31,3.33a35.75,35.75,0,0,1-10.29,5.27c16.34-1.51,31.86,1.06,47.31,4l5.14,1a16,16,0,0,1-2.39,4.33,24,24,0,0,1-3,3.13c-6.27,5,1.22,8.76,4.43,11.61-21.39,3.79-42.78,1.89-64.28,6.86a63.88,63.88,0,0,0-6.64,1.8,33.74,33.74,0,0,0-5.74,2.46,17.06,17.06,0,0,0,5,1.54c6.1,1.81,12.15-2.38,17.2,1.81-7.06,1.68-14.12,1.68-19.17,5.87,6,4.19,15.13,4.19,22.48,7.87,1.42,1.57.74,3.07.06,4.52.66,10.25,16.8,6.9,23.87,12.77-12.11,2.51-24.21,3.35-34.85,7.54a12.81,12.81,0,0,0-4.36,3,13,13,0,0,1-4.08,2.75c-20.27,2.68-41.45,9.38-61.63,6.87,6.06-3.35,15.13-1.68,19.42-7.34a36.51,36.51,0,0,1-4.23-3.92c6-8,19.11-3.83,26.17-10.54-12.1-.84-23.2-2.52-34.91-3.76-3.65-.61-5.21-1.41-6.42-2.27-2.37-3.19-4.58-6.43-6.61-9.6a49,49,0,0,0-7.21-3.34c-23.53-4.51-46.73-5.35-69.93-6.19,18.15-6.7,39.34-4.19,58.37-9.2a46.6,46.6,0,0,0,5.21-1.84c1.35-1.23.84-2.31.42-3.19C589.42,1592.44,589,1591.43,589,1591.43Z"/></g></g><path class="cls-29" d="M2208.46,808s-700-59.36-1321.73,85.07c0,0-89.64,17.81-11.39,51.45s207.72,59.35,98.17,116.73S311.94,1172,477,1296.69s623.17,197.86,462.4,271.06S580.83,1666.68,1235.3,1914"/><path class="cls-30" d="M425.32,762.26C517.8,776.4,606,798,558.07,825.28,468.44,876.4,243.64,888.09,415.8,968.43s451,95,313,143.16S292,1189,447.1,1248.91s290.24,78.88,250.4,116.86S166.82,1452,377.38,1538.14s311.58,64.28,388.41,168"/><path class="cls-30" d="M2098.91,744.93s62.6,65.39-288.82,134-48.38,224.88-246.14,306.22-445.32,55.82-384.14,156.3-118.09,76.55,21.34,221.69S1340.58,1914,1340.58,1914"/><path class="cls-31" d="M2690,958.62S1249.33,972.19,1528.78,1133.1s-473.93,133.76-281.34,228.76,523,69.79,581.56,304.37"/><path class="cls-32" d="M660.51,759.54s256.09,23.66,217.68,71S582.26,917.88,711.73,1001.6s577.63,72.8,267.47,196.56-263.2,136.5-105.28,209.3,219.1,74.62,88.21,165.62S638.79,1720.5,640.4,1833.34s432.71,105.56,432.71,105.56"/><path class="cls-15" d="M-54.42,758.81s499.11,35,300.06,127.07S86.43,1011.53,260,1037.82s95.32,74.5-93.91,151.93S812,1302.23,639.88,1427.85s-502.23,67.2-493.69,242.5"/></g><path class="cls-4" d="M1521.26,334.77c-22.54,17.31-64.88,45.41-117.76,59.79-90.77,24.67-185.07-11-236.06-87.55a247.22,247.22,0,0,1-28.78-57.64c-13.74-40.68,11.07-96.42,68.19-58.13,6,4,12.86,7.94,20.26,12.76,154.26,100.47,258.65,47.36,307.58,69.27,15.58,7,19.73,27.3,8.67,41C1537,322.12,1528.68,329.07,1521.26,334.77Z"/></g><g id="Слой_3" data-name="Слой 3"><path class="cls-33" d="M131,1228l352.92-51.37,177.89-52.57,193.88-34.83c94.43-13.22,14.09-22.51.15-25.18L674.08,1029.2,508.57,939.46S243.83,901.61,50,884"/><line class="cls-34" x1="635.14" y1="1073.34" x2="766.84" y2="1073.34"/><line class="cls-34" x1="439.18" y1="1074.26" x2="570.89" y2="1074.26"/><path class="cls-35" d="M668,382.75s29.44,38.89,46.13,96c4.26,14.55,44.71,149,44.71,149l-46.7,5-55-236.49L668,382.75"/><path class="cls-20" d="M884.5,716.7s31.57,21.48,47,39.56,15.76,43.16,7.15,57.53-18.66,28.13-24.54,19.32c0,0-8.58.85-8.82-4.9,0,0-4.64-4.08-1.9-9.49s17.35-14.26,5.49-34a52.74,52.74,0,0,1-.65,22c-2.94,8.81-9.74-17.54-14.23-23.72-11.23-15.46-17.28-18.13-24-40.93S884.5,716.7,884.5,716.7Z"/><path class="cls-20" d="M670.8,262.75s-20.58,42.08-47.3,55.5S653,405.43,653,405.43s42.51-54.79,72.3-65.08S670.8,262.75,670.8,262.75Z"/><path class="cls-21" d="M723.4,341.08l-51.56-38.16s-13.38,40.85,6.09,73.9C691.68,362.46,708.87,346.9,723.4,341.08Z"/><path class="cls-20" d="M817.09,230s-10.55,35.73-20.72,54.12a97.24,97.24,0,0,0,8.34,41.12,30,30,0,0,1-17.85,3s-11.43,30.18-31.32,44.1a26.11,26.11,0,0,1-26.29,2.12c-39.33-19-67.37-57.91-56.46-83.63C684.64,262.84,679,132.59,817.09,230Z"/><path class="cls-21" d="M815.58,233.68s33.81-18.89,18.87-48.76a45.76,45.76,0,0,0-9.53-12.62c-32.21-30.41-111.88-53-154.73,9.28,0,0,17.47-11.94,25.77-8.37,0,0-31.09,6.59-33.23,54.46a90.15,90.15,0,0,0,1,17.62c1.12,7.38-1.83,30.4-8.62,43.61,0,0,32.64,7.26,55.91-20.65S777.44,212.82,815.58,233.68Z"/><path class="cls-21" d="M815.66,233.82s-27.61-16.67-46.28,7.11c-12.61,16.07-15.08,25.71-35.17,31.89S721.5,228.9,721.5,228.9,788,197,815.66,233.82Z"/><path class="cls-20" d="M714.8,291.11c-10.23-9.61-9.62-18.4-7.53-25.89,4.25-15.33,20.59-18,29.43-7.05.37.45.56.73.56.73s7.12,9.82,3.72,20"/><path class="cls-22" d="M733.55,264.82s-10.36-12.78-20.72.7"/><path class="cls-22" d="M714.73,290.66c-10.3-9.55-9.72-19.79-8.11-27.4"/><circle class="cls-21" cx="781.89" cy="289.55" r="4.99"/><path class="cls-21" d="M761.48,266.6a10.21,10.21,0,0,1,1.85-1.14,69.13,69.13,0,0,1,21.39-6.54c7.65-1,16.53-1.11,16.54,4.19,0,6.93-21.38,3.25-37.17,7.35C758,272,758.44,269,761.48,266.6Z"/><path class="cls-22" d="M760.94,340.19h0c3.76,10.38,13.4,9.31,13.4,9.31"/><polygon class="cls-23" points="787.79 882.58 734.66 1054.41 676.08 1046.57 700.38 852.53 787.79 882.58"/><path class="cls-24" d="M763.45,999.05c16.64,7.74,63.54,29.61,92.29,43.79a14.44,14.44,0,0,1,7.21,16.88c-2.29,7.7-10.38,15.8-34.31,15.76-45.58-.07-150.85.3-155.84-4.27s7.88-66.48,7.88-66.48,24.94,22.86,42.51,15.79c13.61-5.48,13.1-15.56,22.67-21A19.17,19.17,0,0,1,763.45,999.05Z"/><path class="cls-25" d="M535.55,691.07S735.73,576.63,825.77,625.7c72.78,39.67-52.67,319.19-52.67,319.19s-43.88,20.37-87.76-2.72Z"/><path class="cls-21" d="M536.66,660.7s69.9,30.65,146.88,41.4c105.15,14.68,160.5,29,194.89,70.63C895.17,793,898.1,821.59,885,844.38c-.36.64-.74,1.27-1.12,1.89-25.8,42.42-128.7,69.62-275.59,106.79,0,0-28.36-27.91-23.89-67.27-43,9.06-89.08,6-133.84-5.58a105,105,0,0,1-57.68-38.85c-19.07-25.39-39.58-67-34.17-124.7C368.38,613.72,536.66,660.7,536.66,660.7Z"/><path class="cls-20" d="M635.16,944.9s-78.5,13.66-112.64,20.49c-26.63,5.32-63.17-24.3-63.17-24.3l32.3-29.44c52.34-17.06,125.28-45,125.28-45Z"/><path class="cls-24" d="M556.79,962.45c.07,33.78,2.55,65.37,28.73,87.4a10.19,10.19,0,0,1,1.8,2.09c4.82,7.17,1.72,17.49-6,21-6.4,2.89-14.29,2.91-21.44,3-15.38.24-36.19-15.71-42.4-25.81-16-26-75.54-98.77-63.06-127.63,7.91-18.27,46.57-17.16,62.2-19.87-2.93,14.47-8.4,32.33,4.13,43.42S544.25,946.65,556.79,962.45Z"/><path class="cls-21" d="M885.48,841.36C859.67,883.78,774,926.7,597.62,960.83c0,0-34.48-27.79-27.31-89.88"/><path class="cls-26" d="M552.71,1047.93s14.07-7.46,22-5.06"/><path class="cls-27" d="M569.17,883.46c6.6-2.62,100.13-45.75,186.6-54.61"/><path class="cls-28" d="M624.25,316.6s-49.13.57-77.71,16.42C495,361.61,407,485.48,386.53,530s-44.55,136.49-28.29,183c0,0,21.86,26.9,102-3.37S558.9,705.19,599,643.81,680,482.1,680,482.1l-10-96.73S639.74,346.71,624.25,316.6Z"/><path class="cls-36" d="M570.38,450c2,14.74,13.18,86.6,45.16,161.07"/><path class="cls-28" d="M572.16,447.26s14.44,120.26,73.77,219.6a100.39,100.39,0,0,0,41.42,38.38c32.1,16,93.39,41.52,179.07,55.43,0,0,31.05-2.14,33.2-39.62,0,0-97.44-66.38-170.9-103.81,0,0-30.41-194.93-61.46-235.62C618.69,318,572.16,447.26,572.16,447.26Z"/><path class="cls-36" d="M728.72,617.24s-23.8-152.53-50.78-215.91"/></g></svg>