<svg xmlns="http://www.w3.org/2000/svg" viewBox="0 0 2280 2024"><defs><style>.cls-1{fill:#b3c6e5;}.cls-2,.cls-9{fill:#fff;}.cls-2{opacity:0.11;}.cls-3{fill:#0d2545;}.cls-10,.cls-11,.cls-12,.cls-4,.cls-6{fill:none;stroke-miterlimit:10;}.cls-12,.cls-4,.cls-6{stroke:#0d2545;}.cls-11,.cls-12,.cls-4,.cls-6{stroke-linecap:round;}.cls-4{stroke-width:1.6px;}.cls-5{fill:#e2a086;}.cls-6{stroke-width:1.5px;}.cls-7{fill:#704537;}.cls-8{fill:#071626;}.cls-10,.cls-11{stroke:#071626;stroke-width:2px;}</style></defs><title>d_il.3</title><g id="Слой_3" data-name="Слой 3"><path class="cls-1" d="M405,767.48c-64.27,44.22-131.6,105.87-187.71,173.89C107,1075.12,70.18,1255.46,121.46,1421.09,177.88,1603.37,309.88,1758.8,497,1829.65c168.43,63.78,357.5,77.32,507.27,75.55,382.1-4.54,592.73,46.56,797.42-18.55,132.55-42.16,244-128,312.29-240.87,77.56-128.26,89.74-273.69,30-415.36-34-80.79-86.51-179.63-166.81-284.85-162.73-213.24-119-673.13-554.89-749-198.79-34.6-402.92,28.28-541,164.64C751.23,489.67,553.24,665.49,405,767.48Z"/><path class="cls-1" d="M1885,606.82c6.83,74.35,34.92,192.79,89.28,281.2a208,208,0,0,0,48,54.26c19.69,15.6,45,30,66,23.51a25.91,25.91,0,0,0,11.13-6.71c28.72-30-63.07-81.89-63.07-187.28,0-88.83,9.61-242.23-77.86-250.18C1913.7,517.55,1879.75,549.22,1885,606.82Z"/><path class="cls-2" d="M2144,1230.42c-34-80.79-86.51-179.63-166.81-284.85-162.73-213.24-119-673.13-554.89-749a633.39,633.39,0,0,0-234,3.23c4.84-.07,408.66-4.41,442.4,491.76,30.43,447.5-264.11,368.64-242.66,836.69,9.73,212.43,193.19,375.48,405.17,358.65q5.16-.4,10.39-.89c131.7-42.38,242.41-127.88,310.36-240.25C2191.49,1517.51,2203.67,1372.09,2144,1230.42Z"/><path class="cls-2" d="M1885,606.82c6.83,74.35,34.92,192.79,89.28,281.2a208,208,0,0,0,48,54.26c19.69,15.6,45,30,66,23.51a25.91,25.91,0,0,0,11.13-6.71c28.72-30-63.07-81.89-63.07-187.28,0-88.83,9.61-242.23-77.86-250.18C1913.7,517.55,1879.75,549.22,1885,606.82Z"/><path class="cls-2" d="M694.4,535.42c-97.71,86.46-202.17,172-289.41,232.06-64.27,44.22-131.6,105.87-187.71,173.89C107,1075.12,70.18,1255.46,121.46,1421.09c32.59,105.29,90.4,201.62,169.46,277.86C288.08,1696,2.27,1398.45,370.8,1011A1767.9,1767.9,0,0,0,694.4,535.42Z"/></g><g id="Слой_4" data-name="Слой 4"><path class="cls-3" d="M1458.64,274.62a106.22,106.22,0,0,0-21.14-22.12c-13-10-12-29-2-37,8.57-6.86-5.63-20.33,4.62-32.22a19.88,19.88,0,0,1,14.82-6.66,44.67,44.67,0,0,1,9.56.88c8.89,1.78-4-34,19.07-46.16a27.7,27.7,0,0,1,21.07-1.83c6.58,2,15.53,6.65,24.86,17,13.74,15.22,52.43-12.3,87,2.63,18.59,8,28.46,28.79,21.55,47.82-.19.52-.39,1-.6,1.55-7,17,36,36-18,79s-160.86-2.88-160.86-2.88"/><path class="cls-4" d="M601.82,1847.51H1827.35"/><path class="cls-5" d="M1675.72,463a676.85,676.85,0,0,1-72.58-31.77,35,35,0,0,1-18.69-24.65q-.14-.74-.24-1.47c-2.49-17.9,1.91-39,1.91-39l-42.95-27.38v-8.36l-6.56,4.18-4.1-2.61v5.22l-42.94,27.38s4.39,21.08,1.9,39a36.74,36.74,0,0,1-16.19,25.55c-1.67,1.1-3.61,2.32-5.82,3.62-4.88,2.62-10.88,5.75-17.73,9.12-4.79,2.14-14.8,7-14.8,7-10.43,4.77-22.06,9.68-34.27,14.16-42.18,15.46-71.06,59-78.13,111.72l96.77,10.5c124.54-.24,333.48,4,333.25-2.46C1752.59,528.4,1721.19,479.63,1675.72,463Z"/><path class="cls-3" d="M1583.92,402.45c-1.25-17.24,2.51-36.36,2.51-36.36l-26.85-16.39-53.8,38.36S1546,429.51,1583.92,402.45Z"/><path class="cls-5" d="M1609,291.07l-11.22-85.58-58.66-18.6h-3.37l-58.66,18.6-11.22,85.58a196.48,196.48,0,0,0-1,24.89c.79,34.66,21.43,66,53.37,79.49l1.61.66a48.29,48.29,0,0,0,37.35-.56q2.1-.93,4.38-2.08c29.32-14.92,47.73-45.12,48.4-78A196.62,196.62,0,0,0,1609,291.07Z"/><path class="cls-3" d="M1468.89,275.68c5.1-13.46,8.34-25.74,9-45.78a73.27,73.27,0,0,1,1.85-14.22l.08-.31a4,4,0,0,1,4.5-3.07c3.38.55,9.08,2.15,17.18,6.63a63.51,63.51,0,0,0,26.15,8c37.62,2.7,53.85-25.64,68.18-1.24a37,37,0,0,1,4.88,15.55c1.38,16.1,4.81,34,10.51,43.07,6.11,9.77-.31-23.23-.16-26.81a5.44,5.44,0,0,0,0-.57l-6.21-49a4,4,0,0,0-1.13-2.3l-27.78-27.78a3.88,3.88,0,0,0-1.77-1L1542,168.22a4,4,0,0,0-2.83.29L1471.77,203a4,4,0,0,0-2.16,3.34l-2.44,53.09a3.76,3.76,0,0,1-.11.76L1464.43,271a4,4,0,0,0,.69,3.35l1.32,1.72C1467.29,277.14,1468.4,277,1468.89,275.68Z"/><path class="cls-5" d="M1469.53,275.58a2.36,2.36,0,0,0-.81-.82h0c-8.58-5.15-19.49.44-20.77,10.59-1.43,11.32-1,31.39,19.37,32.34C1494.06,318.92,1472.35,280.4,1469.53,275.58Z"/><path class="cls-6" d="M1454.23,280.26s9.1-.68,10.44,8.16"/><path class="cls-5" d="M1606.5,275.09s.18-.13.52-.34c8.58-5.15,19.49.44,20.77,10.59,1.43,11.32,1.06,31.39-19.37,32.34C1579.89,319,1606.5,275.09,1606.5,275.09Z"/><path class="cls-6" d="M1621.5,280.26s-9.09-.68-10.44,8.16"/><path class="cls-6" d="M1540.3,287c-1,9-3.57,23.58-10.78,35.4a25.86,25.86,0,0,0,15.92,5.59"/><path class="cls-3" d="M1483.45,261.32a10.38,10.38,0,0,1,1.4-1.64,68.27,68.27,0,0,1,18.22-12.57c6.9-3.27,15.24-6,16.84-1C1522,252.62,1481.3,264.45,1483.45,261.32Z"/><circle class="cls-3" cx="1508.02" cy="282.74" r="5.45"/><circle class="cls-3" cx="1568.93" cy="282.74" r="5.45"/><path class="cls-6" d="M1552,356.46c-2.26,5.45-10.18,5.73-17.18,4.78-5.33-.73-11.35-4.38-5-10.08a16.73,16.73,0,0,1,3.45-2.33,21.08,21.08,0,0,1,13.21-1.86,7.09,7.09,0,0,1,6,6.4A7,7,0,0,1,1552,356.46Z"/><path class="cls-5" d="M1655.7,1708.51c23.41-133.15,37.35-294.27,44.54-414.77,7.66-128.3,10.32-227.92-28.66-382.27,0,0-8.57-36.61-8.87-38-11.87-56.22,4.88-108.7,8.58-175.72,1.56-28.26,6.92-45.16,6.92-45.16l32.35-113-336.21,3.8,24.29,116.85s10,12.26,11.14,40.55C1412,753.15,1426,824.81,1414.14,881c-.3,1.43-11.32,50.76-11.32,50.76-34.23,115-33.64,246.26-26.21,370.56,7.39,123.82,21.29,283.36,45.78,417.29l-.15-.06s7.28,38.17,8.32,66.47a56.53,56.53,0,0,1-13.41,38.64c-11.58,13.64-27.83,28.82-35.15,33.76-11.49,7.77-4.79,15.54,0,17.48s86.21,0,86.21,0,16.29-1,16.29-22.33c0-19.36.79-41.12-4.06-58a95.62,95.62,0,0,1-3.72-21c-.32-5.76-.37-12.07-.26-18.44.33-4.74,1.53-22.44,3.17-47.69h0c5.25-81.11,14.95-240.21,14.24-298.47-.82-67,33.8-228.27,46.19-314.74,13.26,86.82,43.71,241.29,42.92,306.13-1,79.6,17.42,342.46,17.42,342.46.38,17.81.19,39.68-2.46,46.61-6.71,17.48-5.75,41.76-5.75,63.13s16.28,22.33,16.28,22.33,81.42,2,86.21,0,11.5-9.71,0-17.48c-7.31-4.94-23.56-20.12-35.14-33.75a56.57,56.57,0,0,1-13.41-38.65C1646.87,1765.89,1652.51,1728.41,1655.7,1708.51Z"/><ellipse class="cls-3" cx="1545.33" cy="857" rx="3.35" ry="5.4"/><path class="cls-5" d="M1600.32,1045.61a5.28,5.28,0,0,0-3-3.56c-12.51-5.78-26.14-27.82-46.51-25.1a58.76,58.76,0,0,1-35.67-6.18l0-.07S1409.83,798,1399.7,763.26l38.65-206.4-106.77-12.1s-26.51,89.31-31.82,214.68a145,145,0,0,0,15.12,70.11c19.37,39.34,138.91,195.65,138.91,195.65h0c.79.62,21,27.46,21.52,31.68,1.44,20.78,24.58,49.34,36.59,60.38,9.66,8.88,20.75,2.25,20.75,2.25,20.79,17,21.2-2.84,21.2-2.84l8.39,7.66a7.34,7.34,0,0,0,9.09.79c7.83-5.46,0-22.35,0-22.35,26.75,7.3-9.39-54.46-9.39-54.46,3.45-3.48,17.29.81,24,3.17a14.64,14.64,0,0,0,10.31-.13C1600.24,1049.77,1600.74,1047.45,1600.32,1045.61Z"/><path class="cls-6" d="M1411.77,968.45c23.57,31.68,42,55.8,42,55.8.79.62,21,27.46,21.52,31.68,1.44,20.78,24.58,49.34,36.59,60.38,9.66,8.88,20.75,2.25,20.75,2.25,20.79,17,21.2-2.84,21.2-2.84l8.39,7.66a7.34,7.34,0,0,0,9.09.79c7.83-5.46,0-22.35,0-22.35,26.75,7.3-9.39-54.46-9.39-54.46,3.45-3.48,17.29.81,24,3.17a14.64,14.64,0,0,0,10.31-.13c4-1.59,4.49-3.91,4.07-5.75a5.28,5.28,0,0,0-3-3.56,29,29,0,0,1-4.42-2.61"/><path class="cls-6" d="M1496.29,971.36c-16-32.6-57.57-119.77-77.41-162.1"/><path class="cls-5" d="M1478,1040.81a5.37,5.37,0,0,1,3-3.56c12.5-5.78,26.14-27.82,46.51-25.1a58.87,58.87,0,0,0,35.67-6.17l0-.08s105.31-212.75,115.45-247.44l-38.65-206.4L1746.7,540s28.19,113.66,31.82,214.68a146.87,146.87,0,0,1-15.12,70.11c-19.37,39.34-138.91,195.66-138.91,195.66h0c-.79.62-21,27.46-21.52,31.69-1.44,20.77-24.58,49.33-36.59,60.38-9.66,8.87-20.75,2.24-20.75,2.24-20.8,17-21.2-2.83-21.2-2.83l-8.39,7.66a7.35,7.35,0,0,1-9.09.78c-7.83-5.46,0-22.35,0-22.35-26.76,7.31,9.38-54.46,9.38-54.46-3.44-3.47-17.28.81-24,3.17a14.64,14.64,0,0,1-10.31-.13C1478,1045,1477.53,1042.66,1478,1040.81Z"/><path class="cls-6" d="M1655,979.13c-17.77,23.73-30.46,40.32-30.47,40.33-.79.62-21,27.45-21.52,31.68-1.44,20.77-24.58,49.33-36.59,60.38-9.66,8.87-20.75,2.24-20.75,2.24-20.8,17-21.2-2.83-21.2-2.83l-8.39,7.66a7.35,7.35,0,0,1-9.09.78c-7.83-5.46,0-22.35,0-22.35-26.76,7.31,9.38-54.46,9.38-54.46-3.44-3.47-17.28.81-24,3.17a14.64,14.64,0,0,1-10.31-.13c-4-1.59-4.5-3.9-4.08-5.75a5.37,5.37,0,0,1,3-3.56c12.5-5.78,26.14-27.82,46.51-25.1a60.51,60.51,0,0,0,31.09-4"/><path class="cls-6" d="M1588.53,953.16c15.39-31.56,53.52-110.88,70.78-147.73"/><path class="cls-6" d="M1417.11,587.35s0,35.73,13.33,58.52c6.5,11.11,20,18,34.57,18h33.84"/><path class="cls-6" d="M1665.5,588.32s0,35.74-13.49,58.52c-6.57,11.12-20.24,18-35,18h-34.23"/><path class="cls-3" d="M1592.91,262.32a10.38,10.38,0,0,0-1.4-1.64,68.43,68.43,0,0,0-18.22-12.57c-6.9-3.27-15.24-6-16.85-1C1554.35,253.62,1595.06,265.45,1592.91,262.32Z"/></g><g id="Слой_2" data-name="Слой 2"><polygon class="cls-5" points="728.55 1747.08 736.75 1802.6 798.42 1823.15 803.56 1715.37 728.55 1747.08"/><path class="cls-7" d="M779.18,1802s-18.61-38.74-42.62-22.1A31.18,31.18,0,0,0,727,1791c-3.51,6.55-12.26,19.68-30,29.53-24.55,13.66-60.66,34.91-34.88,47.45s97.63,19.32,116.63-20.56l23.73-.57-2.42-58.55S796.45,1801.34,779.18,1802Z"/><polygon class="cls-5" points="992.18 1655.34 999.93 1822.72 938.92 1822.25 928.34 1714.9 992.18 1655.34"/><path class="cls-7" d="M957.12,1801.05s16.62-39.69,41.43-24.38a31.08,31.08,0,0,1,10.09,10.6c3.83,6.35,13.23,19,31.42,27.87,25.2,12.31,62.34,31.58,37.22,45.5s-93,24.42-117-13.52H936.06l-.54-58.6S939.84,1801.37,957.12,1801.05Z"/><path class="cls-3" d="M755.75,273.7s3.85-26.29,0-50.33,6.42-29.49,18-30.45c0,0-3.53-9.3,6.41-20.52s60.26-46.48,96.81-10.9,43.59,37.83,40.71,57.71-6.09,58.34-5.13,65.39S792.62,337.49,755.75,273.7Z"/><path class="cls-5" d="M839.47,490.09l96.86-44c-19-6.77-32.06-14.18-39.63-19.18a36.72,36.72,0,0,1-16.19-25.55c-2.49-17.89,1.9-39,1.9-39L839.47,335V326.6l-6.56,4.18-4.1-2.61v5.22l-42.95,27.38s4.4,21.08,1.91,39a36.77,36.77,0,0,1-16.19,25.55c-7.57,5-20.62,12.4-39.64,19.17l96.87,44v6.42l7.05-3.21,3.61,1.64Z"/><path class="cls-3" d="M880.22,398.7c-1.25-17.24,2.51-36.37,2.51-36.37l-26.86-16.39-53.8,38.37S842.28,425.76,880.22,398.7Z"/><path class="cls-8" d="M683.39,937.74S668.3,1190,678.3,1350.07C690.75,1549.32,715,1763,715,1763s55,13,91-2.39l4.81-406.39c.07-37.68,26.53-252.55,26.53-252.55L921.6,1760.6S964,1776,1011,1762l-1-445.7-10.71-248.49a1759.17,1759.17,0,0,1,3.21-206.14h0l-60.15-26.82-221,23.2Z"/><rect class="cls-9" x="800.18" y="777.87" width="94.42" height="83.34"/><path class="cls-5" d="M673.58,985s22.68,15,26.1,37.72-4.75,34.64.55,50.34c1.86,5.49,2.5,9,2.56,11.26s-3.56,3.61-6.42,2.28c-5.53-2.57-14.32-8.57-16.13-21.12a10.3,10.3,0,0,0-7.67,7.21c-1.8,6.21-9.64,15-5.48,30.58s0,22.35-4.42,20.31-13.53-25.29-13.53-25.29-8-.8-7.43-6.33c.19-1.84.29-4,.34-6.57a86,86,0,0,0-3.83-26.47v0s-7,.9-9.54-8.13a9.19,9.19,0,0,1-3.75-8.36c.57-5.53,4.33-30.69,6-35.32s7.47-68.36-5.67-80.38,15.06,45.41,15.06,45.41Z"/><path class="cls-5" d="M905.29,287.32l-11.22-85.59-58.66-18.59h-3.36l-58.66,18.59-11.22,85.59s-4,33.23,3.61,57.76a51.27,51.27,0,0,0,11,19.24c14,15.44,28.39,23.64,39.21,28a48.35,48.35,0,0,0,37.48-.51c9.29-4.09,21.09-11.32,33.78-24.16A61.11,61.11,0,0,0,903.73,337C908.46,313.84,905.29,287.32,905.29,287.32Z"/><path class="cls-3" d="M764.57,273.54c5.45-14.11,8.93-26.55,9.63-47.37a75,75,0,0,1,1.95-14.62h0a4,4,0,0,1,4.46-3c4.47.73,13,3.29,25.79,12,19.6,13.27,46.68,32.79,88,12.73a1.14,1.14,0,0,1,1.64,1.08c-.4,8.38,5.91,37.36,11.49,46.29,6.09,9.74-.27-23-.17-26.78a3,3,0,0,0,0-.6l-6.2-49a4,4,0,0,0-1.13-2.3l-27.78-27.78a4,4,0,0,0-1.78-1l-32.12-8.63a4,4,0,0,0-2.83.3l-67.44,34.48a4,4,0,0,0-2.15,3.35l-2.44,53.09a4.8,4.8,0,0,1-.11.76l-2.64,10.77a4,4,0,0,0,.7,3.35h0C763.41,273.17,763.39,276.6,764.57,273.54Z"/><path class="cls-9" d="M621.91,978.6v18.23s30.63,6.44,70,0l3.28-53.63Z"/><path class="cls-5" d="M765.82,271.83a2.25,2.25,0,0,0-.8-.82h0c-8.58-5.15-19.49.44-20.77,10.59-1.44,11.32-1.06,31.39,19.37,32.34C790.36,315.17,768.64,276.65,765.82,271.83Z"/><path class="cls-6" d="M750.53,276.51s9.09-.68,10.44,8.16"/><path class="cls-5" d="M902.79,271.34l.53-.34c8.58-5.15,19.48.44,20.77,10.59,1.43,11.32,1,31.39-19.38,32.34C876.18,315.25,902.79,271.34,902.79,271.34Z"/><path class="cls-6" d="M917.79,276.51s-9.09-.68-10.44,8.16"/><path class="cls-6" d="M836.59,283.26c-1,9-3.57,23.57-10.78,35.4a25.9,25.9,0,0,0,15.93,5.59"/><path class="cls-3" d="M783,257.11a10.8,10.8,0,0,1,1.82-1.16,68.37,68.37,0,0,1,21.08-6.73c7.56-1.12,16.34-1.3,16.42,3.94.1,6.85-21.11,3.48-36.68,7.73C779.63,262.53,780,259.48,783,257.11Z"/><circle class="cls-3" cx="804.32" cy="278.99" r="5.45"/><circle class="cls-3" cx="865.22" cy="278.99" r="5.45"/><path class="cls-3" d="M885.35,257.54a10.88,10.88,0,0,0-1.78-1.2,68.42,68.42,0,0,0-20.93-7.22c-7.52-1.31-16.29-1.69-16.5,3.55-.27,6.84,21,4,36.49,8.59C888.6,263,888.27,260,885.35,257.54Z"/><path class="cls-6" d="M835.55,348.24s17.24,6.63,29.18-9.28"/><path class="cls-3" d="M1020.6,494.93s61.06,75.86,80.35,213.79a75.88,75.88,0,0,1-2.47,32.09c-16.64,56.22-26,61.79-97.37,191.62L979.08,807l14.37-59.62s-18.45-104.82-24-109C948.91,580.89,1020.6,494.93,1020.6,494.93Z"/><path class="cls-3" d="M974,455a675.38,675.38,0,0,0-83-33.13L821.08,523.21,778.88,419s-43,16-95.88,42c-42.83,21-54.93,48.09-61.4,86.21a309,309,0,0,0-4.11,42.51c-1.25,41.18-4.33,147.47-4.33,192.57,0,62.06,6.57,208.11,6.57,208.11s58.39,4.6,77.65-2.15l19.21-335.46L705,573.92c121.17-.57,365.27,16.18,363,10.08C1041.64,511.76,1026,480,974,455Z"/><path class="cls-3" d="M696,682.17a164.07,164.07,0,0,1,10.39,18.23,99.69,99.69,0,0,1,5.77,73.24c-10.81,35.21-29.91,80-29.91,80l-2.94,115.17s56.51,28.94,142.5-5.09c0,0,18.88-117.17,9.55-270.9L724.84,536,653.16,583.9Z"/><path class="cls-9" d="M968.11,459.71A396.49,396.49,0,0,1,891,421.87l-59.75,38.5L778.88,419S740.79,445.36,697,461c-18,103.07,134.94,147.42,130.84,199.76C816.36,807,902,644.48,902,643.6,903.29,591.13,1013.09,475.81,968.11,459.71Z"/><line class="cls-10" x1="709.7" y1="790.59" x2="699.18" y2="973.27"/><path class="cls-3" d="M778.88,419c-2.75,105.24,55.32,214.22,55.32,214.22.17,3.08.33,6.14.47,9.16l-1.11,107.75L724.84,682.47,671.19,476l19.26-14.84"/><path class="cls-11" d="M776,422s-26.41,17.87-39.89,40.36l21.58,10.58L724,502.05s82.28,111.12,95.76,140.23"/><path class="cls-12" d="M772.82,464.86s26.06,26.6,37.16,31.89c0,0,13.8-25.13,21.89-30.42"/><path class="cls-12" d="M891.22,464.86s-26.06,26.6-37.16,31.89c0,0-13.8-25.13-21.9-30.42"/><path class="cls-8" d="M814.36,489.21l10.77,12.84h16.19l7.42-15.22-10.8-14.55-5.82-5.71a1.12,1.12,0,0,0-1.68.14l-16.1,22.11"/><polygon class="cls-8" points="828.5 489.48 805.75 574.28 835.25 650.87 861.69 574.28 835.25 480.22 828.5 489.48"/><path class="cls-11" d="M646.83,500.4S659.22,574.81,697,635.66"/><path class="cls-3" d="M891,421.87c2.75,109.66-62.45,226.22-62.45,226.22C819.06,820.4,867,952.88,867,952.88c69,48.9,140.82,0,140.82,0S1019.45,922.38,995,835c-15.42-55.11-31.25-90.73-15-168.63v-13l14.45-134.26V476.91l-22.7-17.57-37.83-14.5"/><path class="cls-11" d="M892.39,423.31c4.36,3.54,26.18,18.18,39.3,40.37l-21.58,10.59,33.72,29.1S857.5,613.17,844,642.28"/><path class="cls-11" d="M1014,496.75s-6.75,80.7-44.51,141.56"/><ellipse class="cls-8" cx="848.06" cy="700.48" rx="7.42" ry="7.28"/><ellipse class="cls-8" cx="815.69" cy="799.7" rx="7.42" ry="7.28"/><path class="cls-11" d="M833.9,782.49s-7.42-62.16-4.72-124.34"/><path class="cls-10" d="M1010,913c3-43-26.61-109.24-28-120.42"/></g></svg>