<svg xmlns="http://www.w3.org/2000/svg" xmlns:xlink="http://www.w3.org/1999/xlink" viewBox="0 0 2280 2024"><defs><style>.cls-1,.cls-10,.cls-16,.cls-17,.cls-18,.cls-19,.cls-20,.cls-22,.cls-9{fill:none;}.cls-2{fill:#b3c6e5;}.cls-13,.cls-3{fill:#fff;}.cls-3{opacity:0.11;}.cls-4{clip-path:url(#clip-path);}.cls-5{fill:#845040;}.cls-6{fill:#f9c1ac;}.cls-7{fill:#9b6751;}.cls-8{fill:#ba7b65;}.cls-16,.cls-17,.cls-18,.cls-19,.cls-22,.cls-9{stroke:#0d2545;}.cls-10,.cls-16,.cls-17,.cls-18,.cls-20,.cls-22,.cls-9{stroke-linecap:round;}.cls-10,.cls-16,.cls-17,.cls-18,.cls-19,.cls-20,.cls-22,.cls-9{stroke-miterlimit:10;}.cls-20,.cls-9{stroke-width:2px;}.cls-10,.cls-20{stroke:#071626;}.cls-10,.cls-16,.cls-19{stroke-width:1.5px;}.cls-11{fill:#60382d;}.cls-12{fill:#e2a086;}.cls-14{fill:#071626;}.cls-15{fill:#0d2545;}.cls-18{stroke-width:1.2px;}.cls-21{fill:#704537;}.cls-22{stroke-width:3px;}</style><clipPath id="clip-path"><rect class="cls-1" x="328.88" y="312" width="1401.24" height="1087"/></clipPath></defs><title>d_il.7</title><g id="Слой_4" data-name="Слой 4"><path class="cls-2" d="M2175.63,1193q-1.22,4.11-2.48,8.22c-120.31,393-452.15,675.47-847,728.59-224.18,30.16-451.52,1-669.18-85.63C289.84,1698,99.27,1467.7,73.28,1130.78c-6.12-79.35,6.76-159.19,39-231.44,148.19-331.88,557.38-214.51,855.09-417,41.18-28,77.93-62.36,110-101.09,130.73-157.94,280.43-220.67,452.75-214.84,377.46,12.77,668.48,234.25,677.94,785.84C2209.47,1033.72,2198.81,1115.06,2175.63,1193Z"/><path class="cls-2" d="M992.64,267.83c-4.95,28-17.24,77.29-46.57,123.58-50.34,79.46-144,116.76-233.29,94.68A247.48,247.48,0,0,1,652.65,463c-37.6-20.75-56.89-78.63,11.1-88.92,7.09-1.07,14.84-2.81,23.56-4.25C869,339.85,910.16,230.22,961.06,213.38c16.2-5.37,33,6.83,34.06,24.41C995.74,247.85,994.27,258.61,992.64,267.83Z"/><path class="cls-3" d="M992.64,267.83c-4.95,28-17.24,77.29-46.57,123.58-50.34,79.46-144,116.76-233.29,94.68A247.48,247.48,0,0,1,652.65,463c-37.6-20.75-56.89-78.63,11.1-88.92,7.09-1.07,14.84-2.81,23.56-4.25C869,339.85,910.16,230.22,961.06,213.38c16.2-5.37,33,6.83,34.06,24.41C995.74,247.85,994.27,258.61,992.64,267.83Z"/><path class="cls-3" d="M2173.15,1201.18q1.26-4.11,2.48-8.22c23.18-77.9,33.84-159.24,32.44-240.75-5.62-327.75-110.65-538.95-274.15-659.06,0,0,207.34,303.58,40.51,704.91-68.86,165.64-185.83,306.67-334.29,407.35C1182.93,1715.49,708.59,1687.66,278,1604.69c93.77,96.86,219.77,176.07,379,239.46,217.66,86.66,445,115.78,669.18,85.62C1721,1876.65,2052.84,1594.14,2173.15,1201.18Z"/></g><g id="Слой_5" data-name="Слой 5"><g class="cls-4"><rect class="cls-5" x="433.09" y="451.48" width="1193.35" height="872.7" rx="55.84"/><path class="cls-5" d="M771.5,426.9h47.44a0,0,0,0,1,0,0v34.2a0,0,0,0,1,0,0H748.4a0,0,0,0,1,0,0V450A23.11,23.11,0,0,1,771.5,426.9Z"/><path class="cls-5" d="M1238.46,427.43H1309a0,0,0,0,1,0,0v34.2a0,0,0,0,1,0,0h-47.44a23.11,23.11,0,0,1-23.11-23.11v-11.1A0,0,0,0,1,1238.46,427.43Z" transform="translate(2547.46 889.07) rotate(-180)"/><rect class="cls-6" x="818.41" y="391.09" width="25.65" height="76.96"/><rect class="cls-6" x="1212.8" y="383.61" width="25.65" height="76.96"/><path class="cls-7" d="M1621.93,760.68,1044.66,947.85a49,49,0,0,1-30.31,0L440.2,760.71a49,49,0,0,1-33.83-46.6V487.67a49,49,0,0,1,49-49H1606.82a49,49,0,0,1,49,49V714.05A49,49,0,0,1,1621.93,760.68Z"/><path class="cls-5" d="M804.76,370.52A24.32,24.32,0,0,1,818.14,362c31.54-7.94,206.33-47,425.66,1.33,0,0,18.29,4.49,14.94,20.12a20,20,0,0,1-19.54,15.45,43.64,43.64,0,0,1-13-1.9c-13.89-4.27-230.86-37.41-389.05,2.14,0,0-33.13,7.48-36.34-11.76C800.77,387.35,798.2,379,804.76,370.52Z"/><path class="cls-8" d="M974.46,934.11v85.46a16,16,0,0,0,16,16h75.88a16,16,0,0,0,16-16V934.11a.05.05,0,0,0-.05-.05H974.51A0,0,0,0,0,974.46,934.11Zm64.66,67.82a9.61,9.61,0,0,1-10.21,9.6,9.87,9.87,0,0,1-9-10V979.86a9.87,9.87,0,0,1,9-10,9.62,9.62,0,0,1,10.21,9.6Z"/><polygon class="cls-5" points="979.8 908.41 979.8 877.41 1031.1 836.79 1082.41 877.41 1082.41 916.96 979.8 908.41"/><rect class="cls-6" x="960.56" y="906.27" width="137.88" height="43.82" rx="18.89"/><line class="cls-9" x1="483.33" y1="734.72" x2="913" y2="876.88"/><line class="cls-9" x1="1584.22" y1="734.72" x2="1154.55" y2="876.88"/><path class="cls-9" d="M470,942.61V1228a58.78,58.78,0,0,0,58.78,58.78h941.64"/><path class="cls-9" d="M818.14,362c31.54-7.94,206.33-47,425.66,1.33"/><path class="cls-9" d="M1037,973.65a10.11,10.11,0,0,1,2.7,6.9v20.31a10.16,10.16,0,0,1-16.84,7.64"/></g></g><g id="Слой_2" data-name="Слой 2"><line class="cls-10" x1="1248" y1="1837" x2="1436" y2="1837"/><path class="cls-10" d="M1548,1786h159.47"/><path class="cls-11" d="M1586.78,1698.16s-9.73,13.63-11.48,27.16c0,0-38.85,18.78-50.76,40.08,0,0-12.18,15.2.84,19.54,10.43,3.48,79.19,5.27,110.57-2.52a21.46,21.46,0,0,0,15.67-16.27c3-13.24,13.44-32.92,25.2-40.24,20.49-11.88-26.25-67.4-26.25-67.4l-63.79,39.65"/><path class="cls-12" d="M1770.73,895.73s-20.22,20.13-18.84,43.91,12.42,34.19,10.34,51.27c-.73,6-.63,9.69-.2,12s4.46,2.91,7.13,1c5.17-3.8,13-11.77,12.12-24.92a10.93,10.93,0,0,1,9.5,5.69c3.21,5.92,13.22,13.18,12.3,29.9s4.85,22.71,9,19.7,8.53-28.6,8.53-28.6,8.1-2.52,6.31-8c-.6-1.84-1.18-4.06-1.77-6.61a87.71,87.71,0,0,1-1.78-27.71v0s7.46-.59,8.11-10.3a9.43,9.43,0,0,0,2.08-9.3c-1.8-5.49-11.14-30.26-13.84-34.61s-22.55-67.87-11.55-82.89-5.75,49.36-5.75,49.36Z"/><path class="cls-13" d="M1817.5,874.72l3.6,16.9s-27.62,11.93-66,13.64l-13.7-49Z"/><path class="cls-14" d="M1324,893l-.15,228.42a342.39,342.39,0,0,0,12.48,107.9c15.34,54.23,40.4,119.34,75.67,170l155.1,298.19s70.35,8.29,96.57-32.89L1508.3,1201.75l33.23-472.15-181.07,75.28-21.4,17.72"/><path class="cls-14" d="M1639.28,888.63h0a15.8,15.8,0,0,0-.26,2.45c3,65.92,9,110.92-88.39,266.51l-86,144.77L1340.5,1789.18s-74.43,9.78-86.39-26.29c0,0,37.51-321.41,63.78-464.64,11.19-61,21.19-86.26,34.58-121l154-390.6,132.86,102"/><path class="cls-12" d="M1475.73,323.23s.11,25.17-1.38,32.77c-.46,10.92-57,45.95-57,45.95l139.36,14.55s-7.58-58.35,11.76-148.13S1475.73,323.23,1475.73,323.23Z"/><path class="cls-15" d="M1474.55,355.05s40.69,3,64.08-40c12.24-22.49-16.71-26.78-38.15-25.87-14.07,18.53-24.75,34.05-24.75,34.05S1475.48,345,1474.55,355.05Z"/><path class="cls-12" d="M1452.72,170.35s-9.62,20.89-17.51,53.87c-4.85,20.27-7.47,42.65-5.15,63.35,1.58,14.05,9.43,30.89,15.57,38,6.45,7.53,16,11.45,26,12.92a62.8,62.8,0,0,0,21.91-.81c27.74-5.77,58.79-18,72.67-46,19.36-39.11,33.28-115.95-5.69-124.09S1452.72,170.35,1452.72,170.35Z"/><path class="cls-15" d="M1527,225.92a9.16,9.16,0,0,0-1.25-1.54,64.66,64.66,0,0,0-16.67-12.19c-6.38-3.27-14.16-6.1-15.91-1.65-2.28,5.82,17.73,9.42,30.27,17.8C1528.31,231.58,1528.92,228.85,1527,225.92Z"/><path class="cls-13" d="M1471.5,361.06s-4.19,17.94,17.66,35.31c0,0,46.75-11.18,66.77-31.31l48.79,51.13-88,217.84-19.64,175.38s-48.9,9.1-101.18-9.47c-46.34-16.46-9-164.39-9-164.39l60.17-255.26,24.42-19.23"/><ellipse class="cls-15" cx="1501.05" cy="240.74" rx="4.41" ry="4.22"/><ellipse class="cls-15" cx="1452.03" cy="232.27" rx="4.21" ry="4.02"/><path class="cls-16" d="M1476.19,237c-2.26,7.27-6.83,18.85-14.92,27.47a22.84,22.84,0,0,0,12.8,7"/><path class="cls-16" d="M1457.06,286.58s16.61,12.67,32.09-1.6a13.92,13.92,0,0,0,1.82-1.52"/><path class="cls-17" d="M1471.53,303.74s4.6-4.05,9.52-3.18"/><path class="cls-15" d="M1449,180a111.44,111.44,0,0,1-4.7-32.53c.39-28,24.1-56.28,55.92-53.25A96.71,96.71,0,0,1,1523,99.45a119.14,119.14,0,0,1,45.36,29.09c5.9,6,16.49,15.84,22.64,17.46,19,5,44.18,15.36,31.6,60.54S1570.54,293.65,1561,309c0,0,5.75-28.08-2.24-42.06C1558,244.91,1557,246,1557,246s-5.26-15.93-1.52-36.84a19.28,19.28,0,0,0-20.09-22.53l-.61,0C1514.21,187.88,1475.31,200,1449,180Z"/><path class="cls-12" d="M1554.18,247.37l1.87-3.22c11-11.18,18.3-7.84,22.41-3.28a17.56,17.56,0,0,1,4.29,13.62c-.8,7.93-5.39,20.29-25.74,23"/><path class="cls-18" d="M1565.94,244.31s12.71-.7,12.5,12.11"/><path class="cls-15" d="M1449.66,201.12a67.33,67.33,0,0,0-8.9,2.47q-1,3.33-2,6.91c12.73-2.47,26.66-2.05,26.17-7C1464.48,199.07,1456.48,199.73,1449.66,201.12Z"/><path class="cls-14" d="M1468.56,418.11l9.08,17.05,14.9,1.55,13.6-18.17-5.17-6.17c-3.84-4.14-7.2-10.57-11.81-13.86l-1.13-.3c-.39-.55-2.73,1.89-3.16,2.43l-5.37,4.26"/><polygon class="cls-14" points="1482.72 415.57 1414.02 688.54 1455.22 767.14 1497.94 662.12 1492.86 414.07 1482.72 415.57"/><path class="cls-19" d="M1442.33,397s9.06,20.1,21.67,27c0,0,17-23.13,24.63-26a100.75,100.75,0,0,1,21.52,28.1s44.76-11,52.9-31"/><path class="cls-12" d="M1084,521.56a64.79,64.79,0,0,0-21-24.72c-.92-.65-1.86-1.31-2.85-2-16-10.89-22.36-13.64-27-21.36a19.76,19.76,0,0,1-3-13.09,22,22,0,0,1,5.49-11.53c-.23-9.67,8.49-15.71,8.49-15.71-2.19-12.9,9.25-23.75,9.25-23.75-1.16-16.76,17.4-6.59,17.4-6.59,10.06-5.71,20.64,2.45,20.64,2.45,16.54,12.4,24,32.13,23.19,45.65,0,.19,0,.37,0,.56a71.61,71.61,0,0,0,12,39"/><path class="cls-15" d="M1644.41,648.79c5.6,9.46,11.89,19.94,18.41,30.65a334.19,334.19,0,0,1,32.56,71.2c25.83,80.16,46,142.93,46,142.93,37.08,6.81,80.87-15.77,80.87-15.77s-22.37-141.44-38.14-221.23a191.7,191.7,0,0,0-8.14-29c-16.09-43.69-41.22-140-72-190a54.66,54.66,0,0,0-18-18c-69.79-42.77-129.93-54.55-129.93-54.55,17.55,59.16-34.14,178-61.67,235.85a255.35,255.35,0,0,0-23.39,82.28c-4.16,38.65-8.68,116.41,6.73,166,37.64,121,174,103,174,103-8.86-60,2.51-306.74,5.09-335.07"/><path class="cls-16" d="M1053.9,410.23s3.24,9.06,17.81,18.22,14.11,21.4,13.65,33.63,6.77,22.3,6.77,22.3"/><path class="cls-13" d="M1094.48,566.32l-14.45-47s29.72-12.82,41.77-42.46l57,79.4Z"/><path class="cls-15" d="M1338.23,600.11c6.11,135-27.5,315.42-28.48,323.06,0,0,110.88-8,137.33-146,22.08-115.21-44.17-352.78,24.91-416,0,0-62.34,13.05-99.89,28.33a74,74,0,0,0-30,22.53c-24.09,30.3-89.18,110.23-133.73,146.34,0,0-44.35-34.4-72.83-65.1,0,0-15.88,49.23-53.12,68.28,0,0,60.7,91.8,119.42,115.7a45.38,45.38,0,0,0,29.08,1.73c17.23-4.74,55.26-21.68,109.4-59.87"/><ellipse class="cls-14" cx="1431.43" cy="636.74" rx="6.2" ry="6.05"/><ellipse class="cls-14" cx="1427.09" cy="714.74" rx="6.2" ry="6.05"/><path class="cls-20" d="M1687,429.07s-39.67,68-39.67,147"/><path class="cls-20" d="M1463.36,365.06s-37.64,20-60,44.79l24.13,8.91L1393.7,447S1391,530.59,1443,599.78"/><path class="cls-20" d="M1560,369.06s32.38,31.79,32.24,62.61L1563.89,435l32.89,23.31s-29.35,82.52-92.73,141.69"/><path class="cls-21" d="M1309.94,1777.26a38.08,38.08,0,0,1-2.17-5.48c-5.26-16.88-11.88-26.11-25.51-31.76-10.48-4.35-22.25-3.84-31.88,2.28a24.71,24.71,0,0,0-4.75,3.81c-7.82,8.22-17.45,15.87-28.9,18-15,2.82-78.6,8.26-63,31.81a24,24,0,0,0,5.85,6c30.16,22.13,108.84,56.12,137.26,23.77,4,.71,8.33,2.3,12.17,3.23a10.9,10.9,0,0,0,8.44-1.28c5.3-3.38,7.45-10.35,8.9-16,2.43-9.48,2.87-14.22,4.68-21.66C1317.66,1789.74,1313.08,1783.61,1309.94,1777.26Z"/><path class="cls-16" d="M1576.19,1725.34s21.44-3.29,33.09,3.36"/><path class="cls-20" d="M1349.42,414.07s-6.1,50-10.17,113"/><path class="cls-22" d="M1504.31,1237.29l-38.64,65.07-26.24,102.89"/><path class="cls-22" d="M1337.93,1215.94c5.11-16.1,10.5-29.93,16.58-45.72L1425,991.5"/></g></svg>