<svg xmlns="http://www.w3.org/2000/svg" viewBox="0 0 2280 2024"><defs><style>.cls-1{fill:#b3c6e5;}.cls-2,.cls-5{fill:#fff;}.cls-2{opacity:0.11;}.cls-3{fill:#e2a086;}.cls-4{fill:#0d2545;}.cls-10,.cls-6,.cls-7,.cls-9{fill:none;stroke-miterlimit:10;}.cls-6,.cls-7{stroke:#0d2545;stroke-linecap:round;}.cls-6{stroke-width:3px;}.cls-10,.cls-7{stroke-width:2px;}.cls-8{fill:#f2f2f2;}.cls-10,.cls-9{stroke:#fff;}.cls-9{stroke-width:10px;}</style></defs><title>d_il.5</title><g id="Слой_7" data-name="Слой 7"><path class="cls-1" d="M2175.63,1128q-1.22,4.11-2.48,8.22c-120.31,393-452.15,675.47-847,728.59-224.18,30.16-451.52,1-669.18-85.63C289.84,1633,99.27,1402.7,73.28,1065.78c-6.12-79.35,6.76-159.19,39-231.44,148.19-331.88,557.38-214.51,855.09-417,41.18-28,77.93-62.36,110-101.09,130.73-157.94,280.43-220.67,452.75-214.84,377.46,12.77,668.48,234.25,677.94,785.84C2209.47,968.72,2198.81,1050.06,2175.63,1128Z"/><path class="cls-1" d="M992.64,202.83c-4.95,28-17.24,77.29-46.57,123.58-50.34,79.46-144,116.76-233.29,94.68A247.48,247.48,0,0,1,652.65,398c-37.6-20.75-56.89-78.63,11.1-88.92,7.09-1.07,14.84-2.81,23.56-4.25C869,274.85,910.16,165.22,961.06,148.38c16.2-5.37,33,6.83,34.06,24.41C995.74,182.85,994.27,193.61,992.64,202.83Z"/><path class="cls-2" d="M992.64,202.83c-4.95,28-17.24,77.29-46.57,123.58-50.34,79.46-144,116.76-233.29,94.68A247.48,247.48,0,0,1,652.65,398c-37.6-20.75-56.89-78.63,11.1-88.92,7.09-1.07,14.84-2.81,23.56-4.25C869,274.85,910.16,165.22,961.06,148.38c16.2-5.37,33,6.83,34.06,24.41C995.74,182.85,994.27,193.61,992.64,202.83Z"/><path class="cls-2" d="M1530.13,101.37c-172.33-5.83-322,56.9-452.75,214.84-32.06,38.73-68.81,73.08-110,101.09C761.76,557.19,503,544.47,313.69,632.58c0,0,168.82-35.08,392.81-23.08,188.89,10.12,414.76-12.47,567.27-220.08C1407,208,1638.24,126.36,1856,183.43q6.7,1.75,13.51,3.64h0C1770.55,132.7,1655.08,105.6,1530.13,101.37Z"/></g><g id="Слой_4" data-name="Слой 4"><path class="cls-3" d="M727.94,1027.34s-16.92,130.6,25,203.5-204.3,158.81-204.3,158.81-14.84-194.41-68.8-264.73S727.94,1027.34,727.94,1027.34Z"/><path class="cls-4" d="M483.16,1129.61l180.1-9.65s-31.91,116.57-128.79,164C524.46,1228.91,508.25,1165.77,483.16,1129.61Z"/><path class="cls-3" d="M384.32,745.77S368,849.22,371.62,908.2c0,0-20.87,51.73-70.78,94.37a84.23,84.23,0,0,0,41.74,29s-7.36,90.44,26.33,149.78a73.39,73.39,0,0,0,64.21,37.1c122.77-.7,241-65.74,244.3-144.23C681.05,989,852.55,665,384.32,745.77Z"/><path class="cls-4" d="M383.72,756.9s-63.06-88.76,10.93-146.58a127.8,127.8,0,0,1,39.42-20.55c118.48-38.38,348.09.38,381.73,210.25,0,0-29.94-51.39-55.35-52.34,0,0,71,54.24,18.68,178.41a254.41,254.41,0,0,1-23.79,43.52c-11.76,17.4-32,79.43-30.73,121.15,0,0-91.65-20.93-117.06-119.91S505.76,749.94,383.72,756.9Z"/><path class="cls-5" d="M417,1061.56s-32,28.06-73.62,25.82h0a116.73,116.73,0,0,0,2.44,22.52l1.24,5.93S392.49,1117.82,417,1061.56Z"/><path class="cls-4" d="M383.62,756.88s90-8.74,108.69,74.19c12.63,56,7.26,83.48,50.81,123.41s85.3-96.19,85.3-96.19S498.35,696.8,383.62,756.88Z"/><path class="cls-3" d="M570.34,1024.35c37.6-12.06,46.64-35.12,50.39-56.66,7.69-44.06-30.63-70.43-66.24-53.42-1.48.71-2.29,1.19-2.29,1.19s-30,16.34-33.58,46.28"/><path class="cls-6" d="M554.46,935s41.75-20,51.78,26.78"/><path class="cls-7" d="M571.08,1023.29c37.67-11.83,45.64-35.09,50.73-56.35"/><circle class="cls-4" cx="401.86" cy="939.44" r="14.02"/><path class="cls-8" d="M752.19,1225.28S835.46,1348,859.42,1425.45s41.65,288.89,41.65,288.89h0a692,692,0,0,1-512,.14l-.35-.14s25-190.61,132.28-302.84l15.61.67s-22.91-44.28,14.58-67.52,201-119.37,201-119.37"/></g><g id="Слой_5" data-name="Слой 5"><path class="cls-3" d="M1643.71,1027.34s16.91,130.6-25,203.5S1823,1389.65,1823,1389.65s14.84-194.41,68.8-264.73S1643.71,1027.34,1643.71,1027.34Z"/><path class="cls-4" d="M1888.48,1129.61,1708.39,1120s31.9,116.57,128.78,164C1847.18,1228.91,1863.39,1165.77,1888.48,1129.61Z"/><path class="cls-3" d="M1936.18,723.87S1966.8,824,1971.44,882.94c0,0,27.89,48.3,83.26,83.56a84.28,84.28,0,0,1-37.27,34.58s19.92,88.52-5.16,152a73.38,73.38,0,0,1-58.4,45.7c-121.66,16.45-247.78-31.45-262-108.7C1676.32,1006.12,1461.26,709.29,1936.18,723.87Z"/><path class="cls-4" d="M1938.32,734.81s50.06-96.7-31.28-143.62a128.1,128.1,0,0,0-41.91-14.85c-122.68-21.45-344.63,49-348.63,261.51,0,0,22.48-55.07,47.5-59.56,0,0-62.75,63.63,6.42,179.27a254.07,254.07,0,0,0,29.63,39.76c14.08,15.59,42.82,74.18,47.35,115.68,0,0,87.83-33.53,99.17-135.08S1816.52,745,1938.32,734.81Z"/><path class="cls-4" d="M1938.71,735s-90.6,3.68-97.55,88.41c-4.69,57.23,4.47,83.67-33.08,129.29s-97.89-83.33-97.89-83.33S1816.72,691.54,1938.71,735Z"/><path class="cls-3" d="M1790.88,1025.7c-38.91-6.69-51.08-28.27-57.81-49.07-13.76-42.56,20.5-74,58.13-62.15,1.57.5,2.45.86,2.45.86s31.93,12,39.7,41.14"/><path class="cls-6" d="M1794.12,935S1750,921,1746.59,968.73"/><path class="cls-7" d="M1790,1024.75c-39-6.45-50.1-28.37-58.11-48.72"/><circle class="cls-4" cx="1945.85" cy="918.09" r="14.02"/><path class="cls-8" d="M1619.46,1225.28s-83.28,122.69-107.23,200.17-50.89,288.89-50.89,288.89l22,7.86a712.25,712.25,0,0,0,499.58-7.86h0s-25-190.61-132.28-302.84l-15.6.67s22.91-44.28-14.58-67.52-201-119.37-201-119.37"/><path class="cls-4" d="M1860.42,877.21a31.11,31.11,0,0,1,3.34-5.13,194.65,194.65,0,0,1,46.66-42.18c18.23-11.79,40.73-22.56,47.1-9.1,8.32,17.6-50.54,33.8-85.84,63.1C1858.06,895.2,1855.53,886.85,1860.42,877.21Z"/><path class="cls-6" d="M1975.15,1069.35h0a65.56,65.56,0,0,0,32.3-4.08,74,74,0,0,1,15.53-4.57"/></g><g id="Слой_2" data-name="Слой 2"><path class="cls-4" d="M958,887.61s10.93-74.7,0-143,18.22-83.81,51-86.54c0,0-10-26.42,18.22-58.31s171.27-132.09,275.12-31,123.9,107.5,115.7,164-17.31,165.8-14.58,185.84S1062.78,1068.9,958,887.61Z"/><path class="cls-3" d="M1199,1509.86,1503,1413c-55.27-19.66-115.71-72.36-137.7-86.88a106.79,106.79,0,0,1-47.06-74.25c-7.24-52,5.54-113.28,5.54-113.28L1199,1059v-24.29l-19.06,12.14-11.91-7.59v15.19L1043.19,1134s12.78,61.27,5.54,113.28a106.81,106.81,0,0,1-47.05,74.25c-22,14.52-91.41,71.78-146.68,91.44l313,92.3v18.64l20.49-9.32,10.48,4.77Z"/><path class="cls-4" d="M1317.4,1244.27c-3.64-50.11,7.29-105.68,7.29-105.68l-78-47.63L1090.3,1202.44S1207.14,1322.9,1317.4,1244.27Z"/><path class="cls-3" d="M1383,926.33l-31.89-243.24L1184.4,630.25h-9.57l-166.71,52.84L976.23,926.33s-11.25,94.43,10.28,164.12a145.46,145.46,0,0,0,31.36,54.69c39.74,43.88,80.68,67.19,111.45,79.56a137.39,137.39,0,0,0,106.52-1.47c26.39-11.61,59.93-32.15,96-68.66a173.64,173.64,0,0,0,46.72-87.12C1392,1001.69,1383,926.33,1383,926.33Z"/><path class="cls-4" d="M983.07,887.15c15.48-40.08,25.37-75.46,27.37-134.63A212.24,212.24,0,0,1,1016,711h0a11.23,11.23,0,0,1,12.69-8.55c12.69,2.06,37,9.33,73.29,33.94,55.7,37.73,132.67,93.19,250.12,36.17a3.25,3.25,0,0,1,4.67,3.07c-1.17,23.83,16.77,106.19,32.63,131.57,17.3,27.68-.77-65.47-.48-76.11a11.07,11.07,0,0,0-.08-1.72L1371.18,690.1a11.23,11.23,0,0,0-3.21-6.55l-79-78.95a11.25,11.25,0,0,0-5-2.92l-91.29-24.51a11.26,11.26,0,0,0-8,.85L993,676a11.28,11.28,0,0,0-6.13,9.51l-6.93,150.89a12.09,12.09,0,0,1-.31,2.16l-7.49,30.6a11.28,11.28,0,0,0,2,9.51h0C979.76,886.09,979.71,895.85,983.07,887.15Z"/><path class="cls-3" d="M986.63,882.29a6.66,6.66,0,0,0-2.3-2.33h0c-24.39-14.66-55.39,1.23-59,30.07-4.08,32.18-3,89.23,55.05,91.92C1056.35,1005.46,994.63,896,986.63,882.29Z"/><path class="cls-6" d="M943.16,895.6s25.84-1.93,29.67,23.19"/><path class="cls-3" d="M1375.88,880.89s.53-.36,1.49-.94c24.39-14.66,55.38,1.23,59,30.07,4.07,32.18,3,89.23-55.05,91.92C1300.27,1005.69,1375.88,880.89,1375.88,880.89Z"/><path class="cls-6" d="M1418.52,895.6s-25.84-1.93-29.67,23.19"/><path class="cls-5" d="M1560.47,1422.45c-122.38-50.33-215.74-114.15-215.74-114.15s-72.45,50.88-111.87,81.3c-29.34,22.63-15.6,49.77-15.6,49.77l-34.23,1.47-34.23-1.47s14.18-32.12-15.16-54.75c-39.43-30.42-109.58-83-109.58-83S928,1372.12,805.59,1422.45c-125.69,51.69-209.52,203.25-206,371.76q.09,4.23.21,8.52h0C979.34,1914,1375.09,1915.09,1755,1806l11.21-3.22q.12-4.29.21-8.52C1770,1625.7,1686.16,1474.14,1560.47,1422.45Z"/><path class="cls-6" d="M943.44,1362.76s71,117.07,204.06,129.39"/><path class="cls-6" d="M1423.54,1362.76s-71.06,117.07-204.07,129.39"/><line class="cls-6" x1="1183.03" y1="1458.26" x2="1183.03" y2="1776.6"/><path class="cls-6" d="M1112.43,1061.15s.54.83,1.58,2.19c9.74,12.65,33.06,21.59,49,22.87,27.2,2.19,65.29.07,83.36-4.1"/><path class="cls-7" d="M1158.43,1117.18s20.5-17.76,53.44,0"/><path class="cls-6" d="M1187.75,914.78c-2.71,25.63-10.15,67-30.64,100.61a73.61,73.61,0,0,0,45.26,15.87"/><path class="cls-4" d="M1035.56,825.35a30.25,30.25,0,0,1,5.88-1.69,194.51,194.51,0,0,1,62.88-1.38c21.5,3,45.56,9.59,41.57,23.93-5.21,18.76-60.33-7.5-106.2-8.44C1022,837.41,1025.55,829.44,1035.56,825.35Z"/><circle class="cls-4" cx="1096.03" cy="902.64" r="15.49"/><circle class="cls-4" cx="1269.12" cy="902.64" r="15.49"/><path class="cls-4" d="M1326.59,826.72a30,30,0,0,0-5.83-1.84,194.31,194.31,0,0,0-62.83-3c-21.57,2.44-45.8,8.39-42.18,22.83,4.72,18.89,60.5-5.91,106.38-5.65C1339.83,839.13,1336.49,831.07,1326.59,826.72Z"/><path class="cls-4" d="M485.43,885.26a30.38,30.38,0,0,0-4.09-4.55,194.33,194.33,0,0,0-52.55-34.56c-19.82-8.87-43.7-16.07-47.94-1.8C375.31,863,436,870,475.33,893.59,490.51,902.68,491.74,894,485.43,885.26Z"/></g><g id="Слой_6" data-name="Слой 6"><ellipse class="cls-9" cx="1183.27" cy="719.36" rx="920.45" ry="65.09"/><ellipse class="cls-10" cx="1179.34" cy="739.71" rx="920.45" ry="68.35"/><path class="cls-4" d="M364.39,716.34c-9.6-30.83-11.53-73.36,30.26-106a127.8,127.8,0,0,1,39.42-20.55c99.31-32.16,276.67-10.15,351.3,121.39C799.78,736.56,371.78,740.09,364.39,716.34Z"/><path class="cls-4" d="M1948.34,707.75C1961.12,663.49,1953,617,1907,590.51a128.1,128.1,0,0,0-41.91-14.85c-102.82-18-275.37,28.6-330.89,169.28C1523.49,772.1,1941.44,731.65,1948.34,707.75Z"/><path class="cls-4" d="M958,742.76c-10.93-68.33,18.22-83.81,51-86.55,0,0-10-26.42,18.22-58.3s171.27-132.1,275.12-31,123.9,107.5,115.7,164S973.5,583.33,958,742.76Z"/><path class="cls-6" d="M570,1413s145.5-61.5,215.5-129.5"/><path class="cls-6" d="M1799.5,1414S1654,1352.5,1584,1284.5"/></g></svg>