<?xml version="1.0" encoding="UTF-8"?>
<svg xmlns="http://www.w3.org/2000/svg" xmlns:xlink="http://www.w3.org/1999/xlink" width="150pt" height="37.5pt" viewBox="0 0 150 37.5" version="1.2">
<defs>
<clipPath id="clip1">
  <path d="M 5 7 L 146 7 L 146 30.789062 L 5 30.789062 Z M 5 7 "/>
</clipPath>
</defs>
<g id="surface1">
<g clip-path="url(#clip1)" clip-rule="nonzero">
<path style=" stroke:none;fill-rule:nonzero;fill:rgb(98.039246%,100%,0%);fill-opacity:1;" d="M 143.679688 17.679688 C 98.785156 13.21875 53.574219 12.582031 8.570312 15.769531 C 9.179688 13.699219 9.789062 11.625 10.394531 9.554688 C 55.511719 11.289062 100.625 13.027344 145.742188 14.761719 C 145.949219 14.769531 145.117188 20.96875 143.921875 20.972656 C 99.261719 21.140625 54.605469 21.3125 9.949219 21.480469 C 10.558594 19.410156 11.164062 17.339844 11.769531 15.269531 C 55.339844 18.367188 98.910156 21.464844 142.480469 24.558594 C 142.746094 24.578125 141.804688 30.792969 140.65625 30.773438 C 95.449219 30.03125 50.242188 29.292969 5.03125 28.550781 C 4.863281 28.546875 5.636719 22.320312 6.855469 22.339844 C 52.0625 23.078125 97.269531 23.820312 142.480469 24.558594 C 141.871094 26.632812 141.265625 28.703125 140.65625 30.773438 C 97.085938 27.675781 53.519531 24.578125 9.949219 21.480469 C 9.6875 21.460938 10.617188 15.273438 11.769531 15.269531 C 56.429688 15.097656 101.085938 14.929688 145.742188 14.761719 C 145.136719 16.832031 144.527344 18.902344 143.921875 20.972656 C 98.804688 19.238281 53.6875 17.503906 8.570312 15.769531 C 8.367188 15.761719 9.195312 9.640625 10.394531 9.554688 C 55.398438 6.371094 100.609375 7.007812 145.503906 11.46875 C 145.839844 11.5 144.753906 17.785156 143.679688 17.679688 "/>
</g>
</g>
</svg>
