<?xml version="1.0"?>
<svg xmlns="http://www.w3.org/2000/svg" xmlns:xlink="http://www.w3.org/1999/xlink" version="1.1" id="Capa_1" x="0px" y="0px" viewBox="0 0 512.26 512.26" style="enable-background:new 0 0 512.26 512.26;" xml:space="preserve" width="512px" height="512px" class=""><g><g>
	<path d="M379.993,388.342c-35.09,0.098-68.762-13.846-93.508-38.725c-3.332-3.332-3.332-8.735,0-12.067   c3.332-3.332,8.735-3.332,12.067,0c38.868,38.852,99.768,44.839,145.458,14.299s63.445-89.1,42.409-139.871   c-21.036-50.771-75.007-79.613-128.906-68.888c-53.9,10.725-92.719,58.029-92.719,112.985   c0.024,63.192-44.616,117.591-106.597,129.902S34.174,365.08,10.045,306.676S6.426,180.958,59.023,145.932   s122.615-27.997,167.2,16.784c3.328,3.339,3.318,8.743-0.021,12.071c-3.339,3.328-8.743,3.318-12.071-0.021   c-38.805-38.944-99.722-45.039-145.474-14.556S5.069,249.259,26.063,300.069s74.967,79.705,128.892,69.002   s92.772-58.019,92.771-112.996c0-73.049,59.218-132.267,132.267-132.267S512.26,183.026,512.26,256.075   S453.042,388.342,379.993,388.342z" data-original="#428DFF" class="active-path" data-old_color="#428DFF" fill="#69E781"/>
</g></g> </svg>
