<svg id="Capa_1" enable-background="new 0 0 512 512" height="512" viewBox="0 0 512 512" width="512" xmlns="http://www.w3.org/2000/svg"><path d="m478.35 494.038-.062.062c-10.888 10.888-28.541 10.888-39.429 0l-83.67-83.67c-3.492-3.492-3.492-9.153 0-12.644l26.847-26.847c3.492-3.492 9.153-3.492 12.644 0l83.67 83.67c10.888 10.887 10.888 28.54 0 39.429z" fill="#a64c31"/><path d="m478.319 454.577-.51-.51c-1.321 2.702-3.096 5.237-5.342 7.483-10.905 10.905-28.586 10.905-39.491 0l-70.776-70.776-7.001 7.001c-3.497 3.497-3.497 9.167 0 12.664l83.629 83.629c10.905 10.905 28.586 10.905 39.491 0 10.906-10.905 10.906-28.585 0-39.491z" fill="#8a3e25"/><path d="m489.488 348.433h-466.976c-8.284 0-15-6.716-15-15v-285.498h496.976v285.499c0 8.284-6.716 14.999-15 14.999z" fill="#b3d8fb"/><path d="m425.534 47.935v285.475c0 8.297-6.726 15.023-15.023 15.023h78.954c8.297 0 15.023-6.726 15.023-15.023v-285.475z" fill="#89c6fc"/><ellipse cx="255.039" cy="270.788" fill="#b3d8fb" rx="170.295" ry="170.295" transform="matrix(.707 -.707 .707 .707 -116.777 259.652)"/><path d="m134.622 150.371c-53.603 53.603-63.99 134.044-31.184 198.063h303.202c32.805-64.018 22.418-144.46-31.185-198.063-66.503-66.505-174.329-66.505-240.833 0z" fill="#c1e2ff"/><path d="m207.465 107.249c37.596 3.851 74.157 20.17 102.964 48.977 66.505 66.505 66.505 174.33 0 240.834-21.022 21.022-46.174 35.39-72.843 43.122 49.199 5.04 100.173-11.28 137.87-48.977 66.504-66.504 66.504-174.329 0-240.834-45.483-45.483-110.29-59.851-167.991-43.122z" fill="#89c6fc"/><path d="m207.465 107.249c37.596 3.851 74.157 20.17 102.964 48.977 51.98 51.98 63.331 129.202 34.056 192.208h62.155c32.805-64.018 22.418-144.46-31.185-198.063-45.482-45.483-110.289-59.851-167.99-43.122z" fill="#b3d8fb"/><path d="m385.44 401.189c-71.903 71.903-188.898 71.903-260.802 0-71.903-71.903-71.903-188.898.001-260.801s188.898-71.903 260.801-.001c71.903 71.903 71.903 188.898 0 260.802zm-240.834-240.834c-60.893 60.893-60.893 159.974-.001 220.867 60.893 60.893 159.974 60.893 220.867 0s60.893-159.974 0-220.867c-60.892-60.894-159.973-60.894-220.866 0z" fill="#8c9ba6"/><path d="m245.054 86.738c43.844 2.356 87.001 20.232 120.418 53.649 71.903 71.903 71.903 188.898 0 260.802-33.416 33.416-76.573 51.293-120.415 53.649 50.493 2.713 101.897-15.164 140.383-53.65 71.903-71.903 71.903-188.898 0-260.802-38.487-38.486-89.892-56.362-140.386-53.648z" fill="#7c8b96"/><path d="m22.512 9.77h466.976c8.284 0 15 6.716 15 15v44.519h-496.976v-44.519c0-8.284 6.716-15 15-15z" fill="#0a81f9"/><path d="m425.534 69.289h78.954v-44.496c0-8.297-6.726-15.023-15.023-15.023h-63.931z" fill="#0571f9"/><path d="m378.123 162.873c-2.739-3.117-7.484-3.426-10.602-.689-3.117 2.737-3.426 7.483-.69 10.601 41.647 47.439 47.691 114.861 19.268 168.137h-167.106c-4.149 0-7.512 3.363-7.512 7.512s3.363 7.512 7.512 7.512h157.898c-4.908 7.026-10.481 13.715-16.731 19.965-28.032 28.032-65.365 43.47-105.122 43.47-39.756 0-77.09-15.438-105.121-43.47-6.261-6.261-11.842-12.947-16.75-19.965h51.773c4.149 0 7.512-3.363 7.512-7.512s-3.363-7.512-7.512-7.512h-60.989c-30.053-56.244-21.403-127.886 25.966-175.256 51.292-51.292 134.126-57.76 192.676-15.044 3.348 2.443 8.05 1.711 10.495-1.641 2.445-3.351 1.711-8.051-1.641-10.496-31.166-22.737-69.664-33.7-108.421-30.874-39.163 2.857-76.002 19.703-103.732 47.432-63.821 63.822-63.821 167.668 0 231.49 30.869 30.869 71.976 47.87 115.745 47.87 43.77 0 84.876-17.001 115.746-47.87 60.821-60.822 64.045-159.065 7.338-223.66z"/><path d="m171.915 232.847v49.717c0 9.146-3.518 13.836-9.849 13.836-6.801 0-9.381-3.986-9.381-9.498 0-5.745-1.759-11.139-8.677-11.139-5.863 0-9.146 4.573-9.146 11.726 0 8.325 4.339 23.686 27.438 23.686 18.996 0 28.846-10.671 28.846-28.377v-49.951c0-5.745-3.752-9.615-9.615-9.615-5.864 0-9.616 3.87-9.616 9.615z"/><path d="m205.215 265.913c0 25.562 12.429 45.262 42.682 45.262 28.845 0 42.682-21.458 42.682-45.262 0-24.741-15.009-43.15-42.682-43.15s-42.682 18.409-42.682 43.15zm66.133 0c0 16.182-5.98 29.784-23.451 29.784-18.058 0-23.451-13.602-23.451-29.784s7.739-27.672 23.451-27.672 23.451 11.491 23.451 27.672z"/><path d="m372.306 246.567c0-18.643-16.767-21.81-30.839-21.81h-25.562c-6.801 0-11.257 2.697-11.257 11.257v61.911c0 8.56 4.456 11.257 11.257 11.257h28.259c16.651 0 31.073-7.27 31.073-24.975 0-11.609-5.862-17.941-14.775-20.285v-.235c7.974-3.167 11.844-9.968 11.844-17.12zm-48.427-7.74h15.243c7.153 0 13.954 2.229 13.954 10.319 0 6.683-4.338 10.319-13.367 10.319h-15.83zm16.181 55.58h-16.182v-22.747h13.836c9.381 0 18.292 1.29 18.292 11.491.001 9.731-8.442 11.256-15.946 11.256z"/><path d="m489.465 2.258h-466.93c-12.425 0-22.535 10.109-22.535 22.535v308.617c0 12.426 10.11 22.535 22.535 22.535h60.488c9.021 18.261 21.122 35.374 36.303 50.555 36.195 36.195 84.391 56.128 135.713 56.128 39.272 0 76.707-11.685 108.342-33.383l42.369 42.368c1.467 1.467 3.39 2.2 5.312 2.2s3.845-.734 5.312-2.2c2.933-2.933 2.933-7.69 0-10.623l-40.821-40.82c5.266-4.261 10.344-8.814 15.199-13.669 4.875-4.875 9.425-9.954 13.666-15.202l68.591 68.591c7.959 7.959 7.959 20.909.001 28.868-7.961 7.959-20.91 7.959-28.868 0l-5.567-5.567c-2.934-2.933-7.69-2.933-10.624 0-2.933 2.933-2.933 7.69 0 10.623l5.568 5.567c6.908 6.908 15.982 10.362 25.057 10.362s18.149-3.454 25.058-10.362c13.815-13.817 13.815-36.298 0-50.114l-70.151-70.152c5.107-7.463 9.639-15.204 13.574-23.169h62.41c12.426 0 22.535-10.109 22.535-22.535v-308.618c-.002-12.426-10.112-22.535-22.537-22.535zm-474.442 22.535c0-4.142 3.37-7.512 7.512-7.512h466.93c4.142 0 7.512 3.37 7.512 7.512v36.984h-481.954zm365.104 371.084c-68.973 68.974-181.205 68.974-250.177 0-68.974-68.974-68.974-181.204.001-250.178 33.357-33.357 77.781-51.727 125.089-51.727s91.732 18.37 125.088 51.727c68.974 68.974 68.974 181.203-.001 250.178zm109.338-54.955h-55.792c26.93-68.88 12.632-150.293-42.922-205.847-36.194-36.194-84.391-56.127-135.711-56.127-51.321 0-99.518 19.933-135.713 56.128-55.553 55.554-69.851 136.967-42.922 205.846h-53.87c-4.142 0-7.512-3.37-7.512-7.512v-256.609h481.953v256.609c.001 4.142-3.369 7.512-7.511 7.512z"/><circle cx="44.053" cy="40.281" r="9.817"/><circle cx="77.439" cy="40.281" r="9.817"/><circle cx="110.824" cy="40.281" r="9.817"/></svg>