<svg id="Layer_1" data-name="Layer 1" xmlns="http://www.w3.org/2000/svg" viewBox="0 0 1500.26 1291.94"><defs><style>.cls-1{fill:none;}.cls-2{fill:#0d2545;}</style></defs><title>zaryab svg</title><path class="cls-1" d="M0,0V1067.77c48.78,28.18,175.24,92.33,343.15,78.72C582,1127.13,723.86,965.12,752,931.6c134.82,243.06,355.38,385.34,558.14,356.7,44.84-6.34,113.77-24.56,189.86-82.24V0Z" transform="translate(0.26)"/><path class="cls-2" d="M0,0-.26,841.84c57.48,34.49,185.1,100.49,360,105,193.51,5,335.39-68.07,393-102A1639.91,1639.91,0,0,0,891.74,951.31c93.86,64.33,148.36,101.67,231.84,127.78,42.88,13.42,136.2,41.44,253.3,20.77a491.1,491.1,0,0,0,123-39Q1500,530.43,1500,0Z" transform="translate(0.26)"/></svg>