<svg height="512" viewBox="0 0 60 52" width="512" xmlns="http://www.w3.org/2000/svg"><path id="Shape" d="m47.44 5.86c-5.2465835-3.21416415-11.2872704-4.8975207-17.44-4.86-16.54 0-30 11.66-30 26s13.05 21.5 13 21.4c.0478411.030531.0979936.057279.15.08 9.4121578 5.4004227 20.836762 5.9837277 30.75 1.57 10 4.37 15.51-.09 15.74-.28.2285401-.1903565.360483-.4725678.36-.77 0-1.12-1.18-.5-4.87-7.83 8.7-11.49 5.5-27.1-7.69-35.31zm-45.44 21.14c0-19 24.72-30.52 43.3-20.09l-14.3 17.65v-3.56c-.0000001-4.9705627-4.0294373-8.9999999-9-8.9999999s-8.9999999 4.0294372-9 8.9999999v12c0 .5522847.4477153 1 1 1s1-.4477153 1-1v-9h14v3c0 .1.48-.57-15.62 19.3-6.9-4.37-11.38-11.4-11.38-19.3zm27-5h-14v-1c.0000001-3.8659932 3.1340068-6.9999999 7-6.9999999s6.9999999 3.1340067 7 6.9999999zm24.06 19.53c1.2035883 2.5721133 2.68221 5.0063068 4.41 7.26-1.8.94-6.24 2.42-13.16-.75-.269234-.1264089-.580766-.1264089-.85 0-9.0422168 4.1793962-19.5150271 3.9095356-28.33-.73l17.28-21.31h10.59v3.24c.0373021 2.9164581-1.0105161 5.7427161-2.94 7.93-1.9954515-2.2510864-3.0856773-5.161918-3.06-8.17 0-.5522847-.4477153-1-1-1s-1 .4477153-1 1c-.0396718 3.5004286 1.2177861 6.8916467 3.53 9.52-1.3210536.9490592-2.9034388 1.4660415-4.53 1.48-.5522847 0-1 .4477153-1 1s.4477153 1 1 1c2.1759505-.0243621 4.2837861-.7621046 6-2.1 1.7099847 1.3492739 3.8218233 2.0884175 6 2.1.5522847 0 1-.4477153 1-1s-.4477153-1-1-1c-1.6037941-.0217716-3.1602937-.5464344-4.45-1.5 2.2569151-2.553004 3.4862569-5.8526285 3.45-9.26v-3.24h3c.5522847 0 1-.4477153 1-1s-.4477153-1-1-1h-7v-3c0-.5522847-.4477153-1-1-1s-1 .4477153-1 1v3h-5l13-16c11.9 7.84 14.4 22.11 6.16 32.51-.2182742.295777-.2566749.6874633-.1 1.02z" transform="translate(0 -1)"/></svg>