<svg xmlns="http://www.w3.org/2000/svg" height="934pt" version="1.1" viewBox="-62 1 934 934.99868" width="934pt">
<g id="surface1">
<path d="M 421.117188 125.214844 L 421.117188 90.800781 C 442.578125 83.21875 455.453125 61.273438 451.605469 38.832031 C 447.75 16.398438 428.300781 0 405.539062 0 C 382.78125 0 363.320312 16.398438 359.472656 38.832031 C 355.621094 61.273438 368.503906 83.21875 389.960938 90.800781 L 389.960938 125.214844 C 169.464844 133.703125 -3.671875 317.117188 0.574219 537.75 C 4.816406 758.363281 184.875 935 405.539062 935 C 626.199219 935 806.257812 758.363281 810.503906 537.75 C 814.742188 317.117188 641.613281 133.703125 421.117188 125.214844 Z M 405.539062 31.355469 C 414.144531 31.355469 421.117188 38.332031 421.117188 46.929688 C 421.117188 55.535156 414.144531 62.515625 405.539062 62.515625 C 396.9375 62.515625 389.960938 55.535156 389.960938 46.929688 C 389.960938 38.332031 396.9375 31.355469 405.539062 31.355469 Z M 405.539062 903.75 C 199.046875 903.75 31.65625 736.355469 31.65625 529.863281 C 31.65625 323.375 199.046875 155.980469 405.539062 155.980469 C 612.03125 155.980469 779.421875 323.375 779.421875 529.863281 C 779.179688 736.257812 611.933594 903.507812 405.539062 903.75 Z M 405.539062 903.75 " style=" stroke:none;fill-rule:nonzero;fill:rgb(0%,0%,0%);fill-opacity:1;" />
<path d="M 639.011719 274.71875 L 352.574219 472.992188 C 351.375 474.410156 350.058594 475.726562 348.632812 476.929688 L 150.394531 763.339844 C 146.117188 769.53125 146.878906 777.886719 152.199219 783.199219 C 157.511719 788.515625 165.875 789.28125 172.0625 785.007812 L 458.503906 586.738281 C 459.703125 585.320312 461.023438 583.992188 462.445312 582.796875 L 660.683594 296.382812 C 664.960938 290.207031 664.195312 281.847656 658.878906 276.523438 C 653.566406 271.210938 645.207031 270.449219 639.011719 274.71875 Z M 224.828125 710.582031 L 363.726562 509.953125 L 425.445312 571.675781 Z M 447.476562 549.648438 L 385.753906 487.929688 L 586.253906 349.15625 Z M 447.476562 549.648438 " style=" stroke:none;fill-rule:nonzero;fill:rgb(0%,0%,0%);fill-opacity:1;" />
</g>
</svg>