<?xml version="1.0" encoding="UTF-8"?>
<svg width="793px" height="341px" viewBox="0 0 793 341" version="1.1" xmlns="http://www.w3.org/2000/svg" xmlns:xlink="http://www.w3.org/1999/xlink">
    <!-- Generator: Sketch 53 (72520) - https://sketchapp.com -->
    <title>xxxhdpi/Main Logo</title>
    <desc>Created with Sketch.</desc>
    <g id="Main-Logo" stroke="none" stroke-width="1" fill="none" fill-rule="evenodd">
        <g id="Group-2" transform="translate(148.000000, 144.000000)">
            <g id="Group" transform="translate(0.000000, 16.512000)">
                <path d="M0,39 C21.7793183,49.6666667 45.945985,55 72.5,55 C99.054015,55 123.220682,49.6666667 145,39" id="Path-4" stroke="#0A2545" stroke-width="7"></path>
                <circle id="Oval" fill="#0A2545" cx="31" cy="11" r="11"></circle>
                <circle id="Oval" fill="#0A2545" cx="59" cy="11" r="11"></circle>
                <circle id="Oval" fill="#0A2545" cx="87" cy="11" r="11"></circle>
                <circle id="Oval" fill="#0A2545" cx="114" cy="11" r="11"></circle>
            </g>
            <path d="M187.432,32.76 L179.116,32.76 L179.116,24.192 L187.432,24.192 L187.432,18.48 C187.432,15.679986 187.627998,13.1460113 188.02,10.878 C188.412002,8.60998866 189.153995,6.66400812 190.246,5.04 C191.338005,3.41599188 192.86399,2.17000434 194.824,1.302 C196.78401,0.43399566 199.331984,0 202.468,0 C204.764011,0 206.89199,0.19599804 208.852,0.588 L208.18,9.156 C207.451996,8.98799916 206.752003,8.84800056 206.08,8.736 C205.407997,8.62399944 204.708004,8.568 203.98,8.568 C202.579993,8.568 201.460004,8.79199776 200.62,9.24 C199.779996,9.68800224 199.122002,10.2899962 198.646,11.046 C198.169998,11.8020038 197.862001,12.683995 197.722,13.692 C197.581999,14.700005 197.512,15.7639944 197.512,16.884 L197.512,24.192 L206.836,24.192 L206.836,32.76 L197.512,32.76 L197.512,64.512 L187.432,64.512 L187.432,32.76 Z M211.372,44.352 C211.372,41.159984 211.945994,38.262013 213.094,35.658 C214.242006,33.053987 215.79599,30.8280092 217.756,28.98 C219.71601,27.1319908 222.039987,25.704005 224.728,24.696 C227.416013,23.687995 230.271985,23.184 233.296,23.184 C236.320015,23.184 239.175987,23.687995 241.864,24.696 C244.552013,25.704005 246.87599,27.1319908 248.836,28.98 C250.79601,30.8280092 252.349994,33.053987 253.498,35.658 C254.646006,38.262013 255.22,41.159984 255.22,44.352 C255.22,47.544016 254.646006,50.441987 253.498,53.046 C252.349994,55.650013 250.79601,57.8759908 248.836,59.724 C246.87599,61.5720092 244.552013,62.999995 241.864,64.008 C239.175987,65.016005 236.320015,65.52 233.296,65.52 C230.271985,65.52 227.416013,65.016005 224.728,64.008 C222.039987,62.999995 219.71601,61.5720092 217.756,59.724 C215.79599,57.8759908 214.242006,55.650013 213.094,53.046 C211.945994,50.441987 211.372,47.544016 211.372,44.352 Z M221.452,44.352 C221.452,45.9200078 221.717997,47.4319927 222.25,48.888 C222.782003,50.3440073 223.565995,51.6319944 224.602,52.752 C225.638005,53.8720056 226.883993,54.7679966 228.34,55.44 C229.796007,56.1120034 231.447991,56.448 233.296,56.448 C235.144009,56.448 236.795993,56.1120034 238.252,55.44 C239.708007,54.7679966 240.953995,53.8720056 241.99,52.752 C243.026005,51.6319944 243.809997,50.3440073 244.342,48.888 C244.874003,47.4319927 245.14,45.9200078 245.14,44.352 C245.14,42.7839922 244.874003,41.2720073 244.342,39.816 C243.809997,38.3599927 243.026005,37.0720056 241.99,35.952 C240.953995,34.8319944 239.708007,33.9360034 238.252,33.264 C236.795993,32.5919966 235.144009,32.256 233.296,32.256 C231.447991,32.256 229.796007,32.5919966 228.34,33.264 C226.883993,33.9360034 225.638005,34.8319944 224.602,35.952 C223.565995,37.0720056 222.782003,38.3599927 222.25,39.816 C221.717997,41.2720073 221.452,42.7839922 221.452,44.352 Z M301.42,64.512 L291.844,64.512 L291.844,58.044 L291.676,58.044 C290.723995,60.0600101 289.26801,61.8099926 287.308,63.294 C285.34799,64.7780074 282.688017,65.52 279.328,65.52 C276.639987,65.52 274.358009,65.0860043 272.482,64.218 C270.605991,63.3499957 269.080006,62.1740074 267.904,60.69 C266.727994,59.2059926 265.888003,57.5120095 265.384,55.608 C264.879997,53.7039905 264.628,51.7160104 264.628,49.644 L264.628,24.192 L274.708,24.192 L274.708,44.604 C274.708,45.7240056 274.763999,46.9699931 274.876,48.342 C274.988001,49.7140069 275.281998,51.001994 275.758,52.206 C276.234002,53.410006 276.961995,54.4179959 277.942,55.23 C278.922005,56.0420041 280.307991,56.448 282.1,56.448 C283.780008,56.448 285.193994,56.1680028 286.342,55.608 C287.490006,55.0479972 288.441996,54.2920048 289.198,53.34 C289.954004,52.3879952 290.499998,51.2960062 290.836,50.064 C291.172002,48.8319938 291.34,47.5440067 291.34,46.2 L291.34,24.192 L301.42,24.192 L301.42,64.512 Z M312.844,24.192 L322.924,24.192 L322.924,30.576 L323.092,30.576 C324.212006,28.2239882 325.80799,26.4040064 327.88,25.116 C329.95201,23.8279936 332.331987,23.184 335.02,23.184 C335.636003,23.184 336.237997,23.2399994 336.826,23.352 C337.414003,23.4640006 338.015997,23.6039992 338.632,23.772 L338.632,33.516 C337.791996,33.2919989 336.966004,33.1100007 336.154,32.97 C335.341996,32.8299993 334.544004,32.76 333.76,32.76 C331.407988,32.76 329.518007,33.1939957 328.09,34.062 C326.661993,34.9300043 325.570004,35.9239944 324.814,37.044 C324.057996,38.1640056 323.554001,39.2839944 323.302,40.404 C323.049999,41.5240056 322.924,42.3639972 322.924,42.924 L322.924,64.512 L312.844,64.512 L312.844,24.192 Z M345.688,1.008 L355.768,1.008 L355.768,64.512 L345.688,64.512 L345.688,1.008 Z M375.424,47.88 C375.760002,50.9040151 376.93599,53.2559916 378.952,54.936 C380.96801,56.6160084 383.403986,57.456 386.26,57.456 C388.780013,57.456 390.893991,56.9380052 392.602,55.902 C394.310009,54.8659948 395.807994,53.5640078 397.096,51.996 L404.32,57.456 C401.967988,60.3680146 399.336015,62.4399938 396.424,63.672 C393.511985,64.9040062 390.460016,65.52 387.268,65.52 C384.243985,65.52 381.388013,65.016005 378.7,64.008 C376.011987,62.999995 373.68801,61.5720092 371.728,59.724 C369.76799,57.8759908 368.214006,55.650013 367.066,53.046 C365.917994,50.441987 365.344,47.544016 365.344,44.352 C365.344,41.159984 365.917994,38.262013 367.066,35.658 C368.214006,33.053987 369.76799,30.8280092 371.728,28.98 C373.68801,27.1319908 376.011987,25.704005 378.7,24.696 C381.388013,23.687995 384.243985,23.184 387.268,23.184 C390.068014,23.184 392.629988,23.6739951 394.954,24.654 C397.278012,25.6340049 399.265992,27.0479908 400.918,28.896 C402.570008,30.7440092 403.857995,33.0259864 404.782,35.742 C405.706005,38.4580136 406.168,41.5799824 406.168,45.108 L406.168,47.88 L375.424,47.88 Z M396.088,40.32 C396.032,37.3519852 395.108009,35.0140085 393.316,33.306 C391.523991,31.5979915 389.032016,30.744 385.84,30.744 C382.815985,30.744 380.422009,31.6119913 378.658,33.348 C376.893991,35.0840087 375.816002,37.4079854 375.424,40.32 L396.088,40.32 Z M440.776,58.968 L440.524,58.968 C439.067993,61.2640115 437.220011,62.9299948 434.98,63.966 C432.739989,65.0020052 430.276013,65.52 427.588,65.52 C425.739991,65.52 423.934009,65.2680025 422.17,64.764 C420.405991,64.2599975 418.838007,63.504005 417.466,62.496 C416.093993,61.487995 414.988004,60.2280076 414.148,58.716 C413.307996,57.2039924 412.888,55.4400101 412.888,53.424 C412.888,51.2399891 413.279996,49.3780077 414.064,47.838 C414.848004,46.2979923 415.897993,45.0100052 417.214,43.974 C418.530007,42.9379948 420.055991,42.1120031 421.792,41.496 C423.528009,40.8799969 425.333991,40.4180015 427.21,40.11 C429.086009,39.8019985 430.97599,39.6060004 432.88,39.522 C434.78401,39.4379996 436.575992,39.396 438.256,39.396 L440.776,39.396 L440.776,38.304 C440.776,35.7839874 439.908009,33.8940063 438.172,32.634 C436.435991,31.3739937 434.224013,30.744 431.536,30.744 C429.407989,30.744 427.420009,31.1219962 425.572,31.878 C423.723991,32.6340038 422.128007,33.6559936 420.784,34.944 L415.492,29.652 C417.732011,27.3559885 420.349985,25.704005 423.346,24.696 C426.342015,23.687995 429.435984,23.184 432.628,23.184 C435.484014,23.184 437.89199,23.5059968 439.852,24.15 C441.81201,24.7940032 443.435994,25.619995 444.724,26.628 C446.012006,27.636005 447.005997,28.7979934 447.706,30.114 C448.406004,31.4300066 448.909998,32.7599933 449.218,34.104 C449.526002,35.4480067 449.708,36.7499937 449.764,38.01 C449.82,39.2700063 449.848,40.3759952 449.848,41.328 L449.848,64.512 L440.776,64.512 L440.776,58.968 Z M440.188,46.452 L438.088,46.452 C436.687993,46.452 435.120009,46.5079994 433.384,46.62 C431.647991,46.7320006 430.010008,46.9979979 428.47,47.418 C426.929992,47.8380021 425.628005,48.4539959 424.564,49.266 C423.499995,50.0780041 422.968,51.2119927 422.968,52.668 C422.968,53.6200048 423.177998,54.4179968 423.598,55.062 C424.018002,55.7060032 424.563997,56.2519978 425.236,56.7 C425.908003,57.1480022 426.663996,57.469999 427.504,57.666 C428.344004,57.862001 429.183996,57.96 430.024,57.96 C433.496017,57.96 436.057992,57.1340083 437.71,55.482 C439.362008,53.8299917 440.188,51.5760143 440.188,48.72 L440.188,46.452 Z M492.604,58.464 L492.436,58.464 C490.979993,60.9280123 489.020012,62.7199944 486.556,63.84 C484.091988,64.9600056 481.432014,65.52 478.576,65.52 C475.439984,65.52 472.654012,64.9740055 470.218,63.882 C467.781988,62.7899945 465.696009,61.2920095 463.96,59.388 C462.223991,57.4839905 460.908004,55.2440129 460.012,52.668 C459.115996,50.0919871 458.668,47.3200148 458.668,44.352 C458.668,41.3839852 459.143995,38.6120129 460.096,36.036 C461.048005,33.4599871 462.377991,31.2200095 464.086,29.316 C465.794009,27.4119905 467.851988,25.9140055 470.26,24.822 C472.668012,23.7299945 475.299986,23.184 478.156,23.184 C480.06001,23.184 481.739993,23.379998 483.196,23.772 C484.652007,24.164002 485.939994,24.6679969 487.06,25.284 C488.180006,25.9000031 489.131996,26.5579965 489.916,27.258 C490.700004,27.9580035 491.343997,28.6439966 491.848,29.316 L492.1,29.316 L492.1,1.008 L502.18,1.008 L502.18,64.512 L492.604,64.512 L492.604,58.464 Z M468.748,44.352 C468.748,45.9200078 469.013997,47.4319927 469.546,48.888 C470.078003,50.3440073 470.861995,51.6319944 471.898,52.752 C472.934005,53.8720056 474.179993,54.7679966 475.636,55.44 C477.092007,56.1120034 478.743991,56.448 480.592,56.448 C482.440009,56.448 484.091993,56.1120034 485.548,55.44 C487.004007,54.7679966 488.249995,53.8720056 489.286,52.752 C490.322005,51.6319944 491.105997,50.3440073 491.638,48.888 C492.170003,47.4319927 492.436,45.9200078 492.436,44.352 C492.436,42.7839922 492.170003,41.2720073 491.638,39.816 C491.105997,38.3599927 490.322005,37.0720056 489.286,35.952 C488.249995,34.8319944 487.004007,33.9360034 485.548,33.264 C484.091993,32.5919966 482.440009,32.256 480.592,32.256 C478.743991,32.256 477.092007,32.5919966 475.636,33.264 C474.179993,33.9360034 472.934005,34.8319944 471.898,35.952 C470.861995,37.0720056 470.078003,38.3599927 469.546,39.816 C469.013997,41.2720073 468.748,42.7839922 468.748,44.352 Z" id="fourlead" fill="#0A2545" fill-rule="nonzero"></path>
        </g>
    </g>
</svg>