<svg height="512pt" viewBox="0 0 512 512" width="512pt" xmlns="http://www.w3.org/2000/svg"><path d="m359.804688 504.5h-298.007813c-29.988281 0-54.296875-24.308594-54.296875-54.292969v-388.414062c0-29.984375 24.308594-54.292969 54.296875-54.292969h298.007813c29.984374 0 54.292968 24.308594 54.292968 54.292969v388.410156c0 29.988281-24.308594 54.296875-54.292968 54.296875zm0 0" fill="#eeeeed"/><path d="m414.097656 113.3125h-261.25c-1.464844-41.632812-1.425781-78.507812-1.296875-105.8125h-89.753906c-29.988281 0-54.296875 24.308594-54.296875 54.292969v388.410156c0 29.988281 24.308594 54.296875 54.292969 54.296875h199.972656c-77.109375-66.429688-100.546875-228.054688-107.472656-358.332031h259.804687zm0 0" fill="#dfdfdd"/><path d="m414.097656 113.3125h-406.597656v-51.519531c0-29.984375 24.308594-54.292969 54.296875-54.292969h298.007813c29.984374 0 54.292968 24.308594 54.292968 54.292969zm0 0" fill="#eb8d9a"/><path d="m491 119.703125-45.84375-32.097656c-14.320312-10.03125-34.058594-6.546875-44.085938 7.773437l-21.308593 30.429688 97.703125 68.410156 21.308594-30.429688c10.027343-14.320312 6.546874-34.058593-7.773438-44.085937zm0 0" fill="#eb8d9a"/><path d="m379.761719 125.808594-123.9375 177c-15.125 21.597656-24.296875 46.796875-26.597657 73.0625l-2.914062 33.3125c-1.769531 20.1875 18.984375 34.71875 37.347656 26.15625l30.308594-14.136719c23.894531-11.144531 44.433594-28.382813 59.558594-49.980469l123.9375-177.003906zm0 0" fill="#80bbe6"/><path d="m255.824219 302.808594c-15.125 21.597656-24.296875 46.796875-26.597657 73.0625l-2.914062 33.3125c-1.769531 20.1875 18.984375 34.71875 37.347656 26.15625l14.457032-6.746094c-38.371094-29.957031-12.9375-114.402344 10.148437-172.113281zm0 0" fill="#76acd4"/><path d="m394.164062 196.105469 12.285157 8.605469-102.480469 146.339843-12.285156-8.601562zm0 0" fill="#76acd4"/><path d="m379.777344 125.824219 97.707031 68.414062-28.289063 40.398438-97.707031-68.414063zm0 0" fill="#495059"/><path d="m249.402344 312.839844c-11.296875 19.210937-18.222656 40.730468-20.175782 63.03125l-2.914062 33.3125c-1.769531 20.1875 18.984375 34.71875 37.347656 26.15625l30.308594-14.136719c20.289062-9.460937 38.140625-23.332031 52.332031-40.515625zm0 0" fill="#f8e47c"/><path d="m249.402344 312.839844c-11.296875 19.210937-18.222656 40.730468-20.175782 63.03125l-2.914062 33.3125c-1.769531 20.1875 18.984375 34.71875 37.347656 26.15625l14.457032-6.746094c-24.769532-19.335938-22.953126-61.378906-12.339844-104.289062zm0 0" fill="#edd35f"/><path d="m229.222656 375.917969-2.910156 33.265625c-1.769531 20.1875 18.984375 34.71875 37.347656 26.15625l30.265625-14.117188zm0 0" fill="#495059"/><path d="m278.121094 428.59375c-9.453125-7.378906-15.023438-18.070312-17.722656-30.847656l-31.171876-21.824219-2.914062 33.261719c-1.769531 20.1875 18.984375 34.71875 37.351562 26.15625zm0 0" fill="#41464f"/><path d="m151.550781 7.5h-89.753906c-29.988281 0-54.296875 24.308594-54.296875 54.292969v51.519531h145.347656c-1.464844-41.636719-1.425781-78.503906-1.296875-105.8125zm0 0" fill="#d67c88"/><path d="m275.324219 41.144531h-129.050781c-7.8125 0-14.144532 6.335938-14.144532 14.148438v10.226562c0 7.8125 6.332032 14.148438 14.144532 14.148438h129.050781c7.8125 0 14.144531-6.335938 14.144531-14.148438v-10.226562c0-7.8125-6.332031-14.148438-14.144531-14.148438zm0 0" fill="#fff"/><path d="m151.515625 41.144531h-5.242187c-7.8125 0-14.144532 6.335938-14.144532 14.148438v10.226562c0 7.8125 6.332032 14.148438 14.144532 14.148438h5.667968c-.261718-13.679688-.382812-26.589844-.425781-38.523438zm0 0" fill="#eeeeed"/><path d="m495.300781 113.558594-45.84375-32.097656c-8.179687-5.730469-18.023437-8.078126-27.859375-6.699219v-12.96875c0-34.070313-27.722656-61.792969-61.792968-61.792969h-249.378907c-4.144531 0-7.5 3.359375-7.5 7.5s3.355469 7.5 7.5 7.5h249.378907c25.800781 0 46.792968 20.992188 46.792968 46.792969v18.308593c-4.550781 2.777344-8.523437 6.476563-11.671875 10.972657l-10.320312 14.738281h-369.605469v-44.019531c0-25.800781 20.992188-46.792969 46.792969-46.792969h13.882812c4.140625 0 7.5-3.359375 7.5-7.5s-3.359375-7.5-7.5-7.5h-13.882812c-34.070313 0-61.792969 27.722656-61.792969 61.792969v388.414062c0 34.070313 27.722656 61.792969 61.792969 61.792969h298.011719c26.691406 0 50.269531-17.011719 58.664062-42.332031 1.304688-3.933594-.828125-8.175781-4.757812-9.480469-3.933594-1.300781-8.179688.828125-9.480469 4.757812-6.359375 19.171876-24.210938 32.054688-44.425781 32.054688h-298.011719c-25.800781 0-46.792969-20.992188-46.792969-46.792969v-329.394531h359.105469l-.484375.691406s0 0-.003906 0v.003906l-28.277344 40.386719c-.003906.003907-.003906.003907-.007813.007813-.003906.003906-.003906.003906-.007812.007812l-21.367188 30.519532h-242.121093c-4.144532 0-7.5 3.359374-7.5 7.5 0 4.144531 3.355468 7.5 7.5 7.5h231.617187l-34.628906 49.453124h-196.988281c-4.144532 0-7.5 3.359376-7.5 7.5 0 4.144532 3.355468 7.5 7.5 7.5h186.484374l-18.640624 26.625c-2.417969 3.453126-4.671876 7.007813-6.800782 10.628907-.011718.023437-.027344.046875-.039062.074219-2.320313 3.953124-4.46875 7.992187-6.429688 12.125h-154.574218c-4.144532 0-7.5 3.359374-7.5 7.5 0 4.144531 3.355468 7.5 7.5 7.5h148.386718c-4.410156 12.453124-7.273437 25.457031-8.445312 38.699218-.003906.023438-.007813.050782-.007813.074219-.003906.035156-.007812.070313-.011719.105469l-2.917968 33.3125c-1.066406 12.183594 4.277344 23.644531 14.292968 30.660156 5.839844 4.089844 12.554688 6.167969 19.335938 6.167969 4.855469 0 9.742188-1.066407 14.363281-3.222657l30.304688-14.132812c.0625-.027344.125-.0625.1875-.089844.003906-.003906.007812-.003906.011719-.007812 24.96875-11.6875 46.523437-29.792969 62.335937-52.378906l46.925781-67.015626v124.710938c0 4.140625 3.355469 7.5 7.5 7.5 4.144532 0 7.5-3.359375 7.5-7.5v-146.132812l33.726563-48.164063s0 0 0-.003906c0 0 0 0 .003906-.003907l49.589844-70.820312c12.382812-17.6875 8.066406-42.152344-9.617188-54.535156zm-234.808593 314.980468c-6.171876 2.875-13.179688 2.265626-18.753907-1.640624-5.578125-3.902344-8.550781-10.28125-7.957031-17.0625l1.78125-20.324219 43.417969 30.402343zm34.121093-15.988281-57.472656-40.242187c1.996094-16.953125 7.03125-33.40625 14.796875-48.539063l83.222656 58.273438c-11.5625 12.472656-25.300781 22.832031-40.546875 30.507812zm113.269531-132.03125c0 .003907-.003906.007813-.007812.011719l-60.488281 86.390625c-.84375 1.199219-1.707031 2.386719-2.582031 3.558594l-85.296876-59.726563c.800782-1.226562 1.621094-2.441406 2.460938-3.644531l91.351562-130.460937 85.414063 59.808593zm39.457032-56.347656-85.417969-59.808594 19.683594-28.109375 85.414062 59.808594zm45.289062-64.683594-17.003906 24.285157-85.417969-59.808594 17.007813-24.285156c3.699218-5.285157 9.234375-8.8125 15.589844-9.933594 1.417968-.25 2.835937-.375 4.246093-.375 4.910157 0 9.695313 1.5 13.804688 4.375l45.84375 32.101562c10.910156 7.636719 13.570312 22.730469 5.929687 33.640625zm-217.304687-72.320312c11.933593 0 21.644531-9.710938 21.644531-21.648438v-10.226562c0-11.9375-9.710938-21.648438-21.644531-21.648438h-129.050781c-11.933594 0-21.644532 9.710938-21.644532 21.648438v10.226562c0 11.9375 9.710938 21.648438 21.644532 21.648438zm-135.695313-21.648438v-10.226562c0-3.664063 2.980469-6.648438 6.644532-6.648438h129.046874c3.667969 0 6.648438 2.984375 6.648438 6.648438v10.226562c0 3.664063-2.980469 6.648438-6.648438 6.648438h-129.046874c-3.664063 0-6.644532-2.984375-6.644532-6.648438zm-57.792968 320.269531c-4.144532 0-7.5 3.359376-7.5 7.5 0 4.144532 3.355468 7.5 7.5 7.5h69.824218c4.144532 0 7.5-3.355468 7.5-7.5 0-4.140624-3.355468-7.5-7.5-7.5zm0 0"/></svg>