<?xml version="1.0" encoding="iso-8859-1"?>
<!-- Generator: Adobe Illustrator 19.0.0, SVG Export Plug-In . SVG Version: 6.00 Build 0)  -->
<svg version="1.1" id="Capa_1" xmlns="http://www.w3.org/2000/svg" xmlns:xlink="http://www.w3.org/1999/xlink" x="0px" y="0px"
	 viewBox="0 0 512 512" style="enable-background:new 0 0 512 512;" xml:space="preserve">
<g>
	<g>
		<path d="M473.6,0H38.4C17.229,0,0,17.229,0,38.4v435.2C0,494.771,17.229,512,38.4,512h435.2c21.171,0,38.4-17.229,38.4-38.4V38.4
			C512,17.229,494.771,0,473.6,0z M494.933,473.6c0,11.767-9.566,21.333-21.333,21.333H38.4c-11.759,0-21.333-9.566-21.333-21.333
			V38.4c0-11.768,9.574-21.333,21.333-21.333h435.2c11.759,0,21.333,9.566,21.333,21.333V473.6z"/>
	</g>
</g>
<g>
	<g>
		<path d="M76.8,34.133H42.667c-4.71,0-8.533,3.814-8.533,8.533V76.8c0,4.719,3.823,8.533,8.533,8.533H76.8
			c4.71,0,8.533-3.814,8.533-8.533V42.667C85.333,37.948,81.51,34.133,76.8,34.133z M68.267,68.267H51.2V51.2h17.067V68.267z"/>
	</g>
</g>
<g>
	<g>
		<path d="M145.067,34.133h-34.133c-4.71,0-8.533,3.814-8.533,8.533V76.8c0,4.719,3.823,8.533,8.533,8.533h34.133
			c4.71,0,8.533-3.814,8.533-8.533V42.667C153.6,37.948,149.777,34.133,145.067,34.133z M136.533,68.267h-17.067V51.2h17.067V68.267
			z"/>
	</g>
</g>
<g>
	<g>
		<path d="M213.333,34.133H179.2c-4.71,0-8.533,3.814-8.533,8.533V76.8c0,4.719,3.823,8.533,8.533,8.533h34.133
			c4.71,0,8.533-3.814,8.533-8.533V42.667C221.867,37.948,218.044,34.133,213.333,34.133z M204.8,68.267h-17.067V51.2H204.8V68.267z
			"/>
	</g>
</g>
<g>
	<g>
		<path d="M473.6,0H38.4C17.229,0,0,17.229,0,38.4v72.533c0,4.719,3.823,8.533,8.533,8.533h494.933c4.71,0,8.533-3.814,8.533-8.533
			V38.4C512,17.229,494.771,0,473.6,0z M494.933,102.4H17.067v-64c0-11.768,9.574-21.333,21.333-21.333h435.2
			c11.759,0,21.333,9.566,21.333,21.333V102.4z"/>
	</g>
</g>
<g>
	<g>
		<path d="M102.4,145.067H51.2c-4.71,0-8.533,3.814-8.533,8.533v51.2c0,4.719,3.823,8.533,8.533,8.533h51.2
			c4.71,0,8.533-3.814,8.533-8.533v-51.2C110.933,148.881,107.11,145.067,102.4,145.067z M93.867,196.267H59.733v-34.133h34.133
			V196.267z"/>
	</g>
</g>
<g>
	<g>
		<path d="M102.4,230.4H51.2c-4.71,0-8.533,3.814-8.533,8.533v51.2c0,4.719,3.823,8.533,8.533,8.533h51.2
			c4.71,0,8.533-3.814,8.533-8.533v-51.2C110.933,234.214,107.11,230.4,102.4,230.4z M93.867,281.6H59.733v-34.133h34.133V281.6z"/>
	</g>
</g>
<g>
	<g>
		<path d="M102.4,315.733H51.2c-4.71,0-8.533,3.814-8.533,8.533v51.2c0,4.719,3.823,8.533,8.533,8.533h51.2
			c4.71,0,8.533-3.814,8.533-8.533v-51.2C110.933,319.548,107.11,315.733,102.4,315.733z M93.867,366.933H59.733V332.8h34.133
			V366.933z"/>
	</g>
</g>
<g>
	<g>
		<path d="M102.4,401.067H51.2c-4.71,0-8.533,3.814-8.533,8.533v51.2c0,4.719,3.823,8.533,8.533,8.533h51.2
			c4.71,0,8.533-3.814,8.533-8.533v-51.2C110.933,404.881,107.11,401.067,102.4,401.067z M93.867,452.267H59.733v-34.133h34.133
			V452.267z"/>
	</g>
</g>
<g>
	<g>
		<path d="M298.667,153.6h-153.6c-4.71,0-8.533,3.814-8.533,8.533s3.823,8.533,8.533,8.533h153.6c4.71,0,8.533-3.814,8.533-8.533
			S303.377,153.6,298.667,153.6z"/>
	</g>
</g>
<g>
	<g>
		<path d="M341.333,187.733H145.067c-4.71,0-8.533,3.814-8.533,8.533s3.823,8.533,8.533,8.533h196.267
			c4.71,0,8.533-3.814,8.533-8.533S346.044,187.733,341.333,187.733z"/>
	</g>
</g>
<g>
	<g>
		<path d="M443.733,153.6h-51.2c-14.114,0-25.6,11.486-25.6,25.6s11.486,25.6,25.6,25.6h51.2c14.114,0,25.6-11.486,25.6-25.6
			S457.847,153.6,443.733,153.6z M443.733,187.733h-51.2c-4.702,0-8.533-3.823-8.533-8.533s3.831-8.533,8.533-8.533h51.2
			c4.702,0,8.533,3.823,8.533,8.533S448.435,187.733,443.733,187.733z"/>
	</g>
</g>
<g>
	<g>
		<path d="M298.667,238.933h-153.6c-4.71,0-8.533,3.814-8.533,8.533s3.823,8.533,8.533,8.533h153.6c4.71,0,8.533-3.814,8.533-8.533
			S303.377,238.933,298.667,238.933z"/>
	</g>
</g>
<g>
	<g>
		<path d="M341.333,273.067H145.067c-4.71,0-8.533,3.814-8.533,8.533c0,4.719,3.823,8.533,8.533,8.533h196.267
			c4.71,0,8.533-3.814,8.533-8.533C349.867,276.881,346.044,273.067,341.333,273.067z"/>
	</g>
</g>
<g>
	<g>
		<path d="M443.733,238.933h-51.2c-14.114,0-25.6,11.486-25.6,25.6s11.486,25.6,25.6,25.6h51.2c14.114,0,25.6-11.486,25.6-25.6
			S457.847,238.933,443.733,238.933z M443.733,273.067h-51.2c-4.702,0-8.533-3.823-8.533-8.533c0-4.71,3.831-8.533,8.533-8.533h51.2
			c4.702,0,8.533,3.823,8.533,8.533C452.267,269.244,448.435,273.067,443.733,273.067z"/>
	</g>
</g>
<g>
	<g>
		<path d="M298.667,324.267h-153.6c-4.71,0-8.533,3.814-8.533,8.533c0,4.719,3.823,8.533,8.533,8.533h153.6
			c4.71,0,8.533-3.814,8.533-8.533C307.2,328.081,303.377,324.267,298.667,324.267z"/>
	</g>
</g>
<g>
	<g>
		<path d="M341.333,358.4H145.067c-4.71,0-8.533,3.814-8.533,8.533s3.823,8.533,8.533,8.533h196.267c4.71,0,8.533-3.814,8.533-8.533
			S346.044,358.4,341.333,358.4z"/>
	</g>
</g>
<g>
	<g>
		<path d="M443.733,324.267h-51.2c-14.114,0-25.6,11.486-25.6,25.6s11.486,25.6,25.6,25.6h51.2c14.114,0,25.6-11.486,25.6-25.6
			S457.847,324.267,443.733,324.267z M443.733,358.4h-51.2c-4.702,0-8.533-3.823-8.533-8.533s3.831-8.533,8.533-8.533h51.2
			c4.702,0,8.533,3.823,8.533,8.533S448.435,358.4,443.733,358.4z"/>
	</g>
</g>
<g>
	<g>
		<path d="M298.667,409.6h-153.6c-4.71,0-8.533,3.814-8.533,8.533s3.823,8.533,8.533,8.533h153.6c4.71,0,8.533-3.814,8.533-8.533
			S303.377,409.6,298.667,409.6z"/>
	</g>
</g>
<g>
	<g>
		<path d="M341.333,443.733H145.067c-4.71,0-8.533,3.814-8.533,8.533c0,4.719,3.823,8.533,8.533,8.533h196.267
			c4.71,0,8.533-3.814,8.533-8.533C349.867,447.548,346.044,443.733,341.333,443.733z"/>
	</g>
</g>
<g>
	<g>
		<path d="M443.733,409.6h-51.2c-14.114,0-25.6,11.486-25.6,25.6s11.486,25.6,25.6,25.6h51.2c14.114,0,25.6-11.486,25.6-25.6
			S457.847,409.6,443.733,409.6z M443.733,443.733h-51.2c-4.702,0-8.533-3.823-8.533-8.533s3.831-8.533,8.533-8.533h51.2
			c4.702,0,8.533,3.823,8.533,8.533S448.435,443.733,443.733,443.733z"/>
	</g>
</g>
<g>
</g>
<g>
</g>
<g>
</g>
<g>
</g>
<g>
</g>
<g>
</g>
<g>
</g>
<g>
</g>
<g>
</g>
<g>
</g>
<g>
</g>
<g>
</g>
<g>
</g>
<g>
</g>
<g>
</g>
</svg>
