<svg id="Capa_1" enable-background="new 0 0 512 512" height="512" viewBox="0 0 512 512" width="512" xmlns="http://www.w3.org/2000/svg"><g><path d="m239.433 97.834c4.142 0 7.5-3.358 7.5-7.5v-4.142c0-4.142-3.358-7.5-7.5-7.5s-7.5 3.358-7.5 7.5v4.142c0 4.142 3.358 7.5 7.5 7.5z"/><path d="m272.567 97.834c4.142 0 7.5-3.358 7.5-7.5v-4.142c0-4.142-3.358-7.5-7.5-7.5s-7.5 3.358-7.5 7.5v4.142c0 4.142 3.358 7.5 7.5 7.5z"/><path d="m459.32 415.015c.841-.738 1.671-1.494 2.475-2.286 11.009-10.838 17.072-25.315 17.072-40.762v-10.967c4.929-2.673 8.283-7.894 8.283-13.884v-24.85c0-22.405-18.228-40.633-40.633-40.633h-17.35v-25.633c0-4.142-3.358-7.5-7.5-7.5h-158.167v-18.133h42.2c13.271 0 24.066-10.796 24.066-24.067v-28.992c0-21.725-15.556-39.879-36.112-43.926.833-.731 1.655-1.48 2.452-2.264 11.023-10.841 17.094-25.325 17.094-40.784v-10.967c4.929-2.673 8.283-7.894 8.283-13.884v-24.85c0-22.405-18.228-40.633-40.633-40.633h-49.7c-22.405 0-40.633 18.228-40.633 40.633v24.85c0 5.99 3.355 11.211 8.283 13.884v10.148c0 17.403 7.723 33.13 19.862 43.81-20.713 3.923-36.429 22.147-36.429 43.983v28.992c0 13.27 10.796 24.067 24.066 24.067h5.167c4.142 0 7.5-3.358 7.5-7.5s-3.358-7.5-7.5-7.5h-5.166c-4.999 0-9.066-4.067-9.066-9.067v-28.992c0-7.098 2.5-13.621 6.661-18.743l6.383 18.057c2.005 5.671 6.958 9.657 12.928 10.402.667.083 1.331.124 1.99.124 3.703 0 7.23-1.297 10.028-3.623l11.307 8.481c2.788 2.091 6.129 3.136 9.47 3.136s6.682-1.045 9.47-3.136l11.307-8.481c2.798 2.327 6.324 3.623 10.028 3.623.659 0 1.324-.041 1.99-.124 5.969-.745 10.923-4.73 12.928-10.402l6.383-18.057c4.161 5.122 6.661 11.645 6.661 18.743v28.992c0 4.999-4.067 9.067-9.066 9.067h-64.233c-4.142 0-7.5 3.358-7.5 7.5s3.358 7.5 7.5 7.5h7.033v18.133h-158.168c-4.142 0-7.5 3.358-7.5 7.5v25.633h-17.35c-22.405 0-40.633 18.228-40.633 40.633v24.85c0 5.99 3.355 11.211 8.283 13.884v10.091c0 17.432 7.725 33.178 19.87 43.865-20.716 3.919-36.436 22.145-36.436 43.985v28.991c0 13.271 10.796 24.067 24.066 24.067h18.134c4.142 0 7.5-3.358 7.5-7.5s-3.358-7.5-7.5-7.5h-18.135c-4.999 0-9.066-4.067-9.066-9.067v-28.991c0-7.098 2.5-13.621 6.661-18.743l6.383 18.056c2.004 5.672 6.958 9.658 12.927 10.402.667.083 1.331.124 1.99.124 3.703 0 7.23-1.297 10.028-3.624l11.308 8.481c2.788 2.091 6.129 3.136 9.47 3.136s6.682-1.045 9.47-3.136l11.308-8.481c2.798 2.327 6.324 3.623 10.028 3.623.659 0 1.324-.04 1.99-.124 5.969-.745 10.922-4.731 12.927-10.402l6.383-18.057c4.161 5.122 6.661 11.645 6.661 18.743v28.991c0 4.999-4.067 9.067-9.067 9.067h-51.267c-4.142 0-7.5 3.358-7.5 7.5s3.358 7.5 7.5 7.5h51.266c13.27 0 24.067-10.796 24.067-24.067v-28.991c0-21.726-15.556-39.88-36.113-43.927.841-.738 1.67-1.494 2.475-2.286 11.009-10.838 17.072-25.315 17.072-40.762v-10.964c4.929-2.673 8.284-7.894 8.284-13.884v-24.85c0-22.405-18.228-40.633-40.634-40.633h-17.35v-18.133h316.333v18.133h-17.35c-22.406 0-40.634 18.228-40.634 40.633v24.85c0 5.99 3.355 11.211 8.284 13.884v10.091c0 17.432 7.725 33.178 19.87 43.865-20.716 3.919-36.437 22.146-36.437 43.985v28.991c0 13.271 10.796 24.067 24.067 24.067h99.4c13.271 0 24.066-10.796 24.066-24.067v-28.991c0-21.725-15.556-39.879-36.113-43.926zm-253.803-374.382c0-14.134 11.499-25.633 25.633-25.633h49.7c14.134 0 25.633 11.499 25.633 25.633v24.85c0 .432-.352.783-.783.783-12.145 0-22.71-8.622-25.121-20.499-1.485-7.321-7.986-12.634-15.457-12.634h-18.243c-7.472 0-13.973 5.313-15.458 12.634-2.411 11.878-12.976 20.5-25.121 20.5-.432 0-.783-.352-.783-.783zm8.283 48.883v-8.957c15.962-3.016 29.004-15.465 32.321-31.808.073-.357.391-.617.757-.617h18.243c.366 0 .685.259.757.617 3.317 16.343 16.359 28.792 32.321 31.808v9.775c0 11.405-4.479 22.091-12.612 30.09-8.131 7.997-18.899 12.303-30.312 12.104-22.869-.383-41.475-19.677-41.475-43.012zm11.262 82.624c-.48-.06-.589-.369-.642-.517l-7.847-22.199c3.249-1.22 6.765-1.892 10.435-1.892h14.978l-16.176 24.264c-.086.132-.262.402-.748.344zm31.408 7.866c-.277.208-.663.208-.94 0l-11.443-8.582 11.913-17.87 11.913 17.87zm31.11-8.382c-.052.148-.161.457-.642.517-.482.051-.662-.212-.749-.343l-16.176-24.264h14.978c3.67 0 7.186.672 10.435 1.892zm-228.185 282.149c-.48-.06-.589-.368-.642-.517l-7.847-22.198c3.249-1.22 6.765-1.892 10.435-1.892h14.979l-16.176 24.264c-.087.131-.267.402-.749.343zm31.408 7.866c-.275.208-.663.208-.94 0l-11.443-8.583 11.913-17.87 11.913 17.87zm31.11-8.382c-.052.148-.161.456-.642.516-.479.054-.662-.212-.749-.343l-16.176-24.264h14.978c3.67 0 7.186.672 10.435 1.892zm-1.975-51.217c-8.12 7.994-18.864 12.293-30.281 12.122-22.896-.357-41.523-19.678-41.523-43.07v-8.897c10.536-1.975 19.646-8.025 25.633-16.451 6.397 9.001 16.359 15.291 27.813 16.797-1.347 1.356-2.18 3.223-2.18 5.285v4.142c0 4.142 3.358 7.5 7.5 7.5s7.5-3.358 7.5-7.5v-4.142c0-1.887-.702-3.607-1.853-4.925h19.986v9.067c0 11.395-4.473 22.075-12.595 30.072zm20.879-79.773v24.85c0 .432-.352.783-.784.783h-33.133c-14.134 0-25.633-11.499-25.633-25.633 0-4.142-3.358-7.5-7.5-7.5s-7.5 3.358-7.5 7.5c0 14.134-11.499 25.633-25.633 25.633-.432 0-.783-.352-.783-.783v-24.85c0-14.134 11.499-25.633 25.633-25.633h49.7c14.134-.001 25.633 11.498 25.633 25.633zm250.66 131.164c-.087.131-.268.401-.749.343-.48-.06-.589-.368-.642-.517l-7.847-22.199c3.249-1.22 6.765-1.892 10.435-1.892h14.978zm30.19-18.244 11.913 17.87-11.443 8.583c-.276.208-.663.208-.94 0l-11.443-8.582zm14.013-6.02h14.978c3.67 0 7.186.672 10.435 1.892l-7.847 22.199c-.052.148-.161.457-.642.517-.48.054-.662-.212-.749-.343zm-64.497-106.9c0-14.134 11.499-25.633 25.634-25.633h49.7c14.134 0 25.633 11.499 25.633 25.633v24.85c0 .432-.352.783-.783.783h-33.133c-14.134 0-25.633-11.499-25.633-25.633 0-4.142-3.358-7.5-7.5-7.5s-7.5 3.358-7.5 7.5c0 14.134-11.499 25.633-25.633 25.633-.432 0-.784-.352-.784-.783v-24.85zm8.284 48.825v-8.897c10.536-1.975 19.646-8.025 25.633-16.451 6.397 9.001 16.359 15.291 27.813 16.797-1.347 1.356-2.18 3.223-2.18 5.285v4.142c0 4.142 3.358 7.5 7.5 7.5s7.5-3.358 7.5-7.5v-4.142c0-1.887-.702-3.607-1.853-4.925h19.987v9.067c0 11.397-4.473 22.077-12.595 30.073-8.12 7.995-18.853 12.284-30.281 12.122-22.897-.358-41.524-19.68-41.524-43.071zm100.966 116.841c0 4.999-4.067 9.067-9.066 9.067h-99.4c-5 0-9.067-4.067-9.067-9.067v-28.991c0-7.098 2.5-13.621 6.661-18.743l6.383 18.056c2.004 5.672 6.958 9.658 12.927 10.402.667.083 1.331.124 1.99.124 3.703 0 7.23-1.297 10.028-3.623l11.308 8.481c2.788 2.091 6.129 3.136 9.47 3.136s6.682-1.045 9.47-3.136l11.307-8.481c2.798 2.327 6.324 3.623 10.028 3.623.658 0 1.323-.04 1.99-.124 5.969-.745 10.922-4.731 12.927-10.402l6.383-18.057c4.161 5.122 6.661 11.645 6.661 18.743z"/><path d="m405.1 379.467c4.142 0 7.5-3.358 7.5-7.5v-4.142c0-4.142-3.358-7.5-7.5-7.5s-7.5 3.358-7.5 7.5v4.142c0 4.142 3.358 7.5 7.5 7.5z"/><path d="m73.767 360.325c-4.142 0-7.5 3.358-7.5 7.5v4.142c0 4.142 3.358 7.5 7.5 7.5s7.5-3.358 7.5-7.5v-4.142c0-4.142-3.358-7.5-7.5-7.5z"/></g></svg>