<?xml version="1.0" encoding="iso-8859-1"?>
<!-- Generator: Adobe Illustrator 19.0.0, SVG Export Plug-In . SVG Version: 6.00 Build 0)  -->
<svg version="1.1" id="Layer_1" xmlns="http://www.w3.org/2000/svg" xmlns:xlink="http://www.w3.org/1999/xlink" x="0px" y="0px"
	 viewBox="0 0 512.001 512.001" style="enable-background:new 0 0 512.001 512.001;" xml:space="preserve">
<path style="fill:#3FC8F2;" d="M336.083,358.447c-22.008,17.208-49.712,27.466-79.813,27.466c-30.101,0-57.806-10.258-79.813-27.466
	l-83.838,83.838c43.687,38.355,100.949,61.619,163.651,61.619s119.965-23.264,163.651-61.619L336.083,358.447z"/>
<path style="fill:#894BA2;" d="M358.919,335.48l83.904,83.903c35.025-39.894,57.448-91.115,61.079-147.458H385.008
	C382.139,295.687,372.848,317.465,358.919,335.48z"/>
<path style="fill:#F77935;" d="M272.463,127.546c58.51,7.288,104.918,53.551,112.427,111.993h119.011
	c-8-124.156-107.283-223.438-231.438-231.438V127.546z"/>
<path style="fill:#FFDB56;" d="M153.62,335.48c-16.946-21.917-27.036-49.405-27.036-79.253c0-66.139,49.512-120.711,113.492-128.681
	V8.1C110.564,16.445,8.098,124.113,8.098,255.732c0,62.703,23.264,119.965,61.619,163.651L153.62,335.48z"/>
<path style="fill:#D9510D;" d="M471.218,239.538h32.684C495.902,115.382,396.619,16.1,272.463,8.1v4.796
	C380.849,34.484,463.759,126.694,471.218,239.538z"/>
<path style="fill:#763794;" d="M471.268,271.926c-3.027,48.177-19.801,92.617-46.454,129.451l18.008,18.007
	c35.025-39.894,57.448-91.113,61.079-147.458L471.268,271.926L471.268,271.926z"/>
<path style="fill:#0DAACE;" d="M242.16,503.494c4.671,0.262,9.373,0.41,14.109,0.41c62.703,0,119.965-23.264,163.651-61.619
	l-15.852-15.852C362.793,470.124,305.816,498.821,242.16,503.494z"/>
<path style="fill:#FBA806;" d="M240.075,127.545v-0.211c-5.348-0.672-10.798-1.019-16.329-1.019
	c-71.698,0-129.821,58.123-129.821,129.821c0,38.194,16.496,72.534,42.749,96.288l16.945-16.945
	c-16.946-21.917-27.036-49.406-27.036-79.253C126.583,190.088,176.095,135.516,240.075,127.545z"/>
<path style="fill:#0DAACE;" d="M163.664,371.238c17.967,9.398,38.401,14.72,60.082,14.72c5.587,0,11.092-0.353,16.493-1.039
	c-23.876-2.945-45.745-12.369-63.784-26.473L163.664,371.238z"/>
<path d="M503.901,263.829H385.008c-4.097,0-7.547,3.06-8.039,7.126c-2.615,21.663-11.072,42.263-24.456,59.573
	c-2.493,3.224-2.2,7.798,0.68,10.679l83.904,83.903c1.521,1.52,3.581,2.371,5.726,2.371c0.087,0,0.175-0.001,0.262-0.004
	c2.237-0.072,4.344-1.068,5.822-2.751c37.604-42.832,59.415-95.488,63.075-152.279c0.145-2.233-0.643-4.427-2.174-6.059
	C508.278,264.755,506.139,263.829,503.901,263.829z M442.331,407.442l-72.78-72.779c11.359-16.384,19.021-35.039,22.444-54.639
	h103.12C490.421,327.064,472.305,370.792,442.331,407.442z"/>
<path d="M271.462,135.581c54.992,6.851,98.334,50.024,105.397,104.99c0.518,4.039,3.958,7.065,8.031,7.065h119.011
	c2.238,0,4.377-0.925,5.906-2.559c1.531-1.632,2.318-3.826,2.174-6.059C503.734,111.014,400.987,8.268,272.984,0.02
	c-2.238-0.155-4.427,0.643-6.059,2.174c-1.633,1.53-2.559,3.668-2.559,5.906v119.446
	C264.366,131.63,267.409,135.076,271.462,135.581z M280.56,16.892c113.021,11.37,203.179,101.529,214.549,214.549H391.828
	c-10.253-56.559-54.673-100.816-111.267-110.86V16.892z"/>
<path d="M99.749,73.705c37.623-32.373,83.18-51.917,132.23-56.817v103.7c-44.766,8.008-83.377,38.196-101.858,80.145
	c-1.803,4.092,0.053,8.871,4.146,10.674c1.061,0.469,2.17,0.69,3.259,0.69c3.111,0,6.079-1.804,7.414-4.836
	c17.166-38.966,54.002-66.431,96.136-71.681c4.054-0.505,7.096-3.95,7.096-8.034V8.1c0-2.238-0.925-4.377-2.559-5.906
	c-1.633-1.531-3.822-2.33-6.059-2.174C183.687,3.618,131.691,24.854,89.186,61.43c-3.39,2.916-3.773,8.029-0.856,11.418
	C91.249,76.24,96.361,76.622,99.749,73.705z"/>
<path d="M160.027,330.527c-16.581-21.444-25.347-47.136-25.347-74.3c0-6.91,0.584-13.839,1.735-20.592
	c0.751-4.409-2.213-8.591-6.621-9.343c-4.407-0.741-8.59,2.213-9.343,6.621c-1.304,7.65-1.965,15.494-1.965,23.315
	c0,28.385,8.446,55.352,24.497,78.439L70.211,407.44c-34.897-42.76-54.016-96.289-54.016-151.706
	c0-59.007,21.609-115.729,60.844-159.718c2.978-3.337,2.684-8.455-0.652-11.432c-3.337-2.978-8.454-2.684-11.432,0.652
	C23.068,132.194,0.001,192.745,0.001,255.732c0,62.24,22.598,122.257,63.631,168.993c1.477,1.683,3.584,2.677,5.822,2.751
	c0.087,0.003,0.175,0.004,0.262,0.004c2.144,0,4.204-0.851,5.726-2.371l83.904-83.904
	C162.227,338.324,162.518,333.751,160.027,330.527z"/>
<path d="M341.809,352.721c-2.894-2.891-7.488-3.173-10.714-0.652c-21.542,16.844-47.418,25.748-74.827,25.748
	c-27.41,0-53.282-8.903-74.826-25.748c-3.223-2.519-7.818-2.239-10.714,0.652l-83.838,83.838c-1.583,1.584-2.44,3.752-2.366,5.988
	c0.073,2.237,1.068,4.344,2.751,5.822c46.737,41.034,106.754,63.631,168.993,63.631s122.257-22.598,168.993-63.631
	c1.683-1.477,2.677-3.584,2.751-5.822c0.072-2.237-0.785-4.405-2.366-5.988L341.809,352.721z M256.269,495.807
	c-55.417,0-108.946-19.12-151.706-54.016l72.68-72.68c23.207,16.315,50.377,24.9,79.025,24.9c28.647,0,55.818-8.585,79.026-24.9
	l72.679,72.68C365.217,476.687,311.686,495.807,256.269,495.807z"/>
<g>
</g>
<g>
</g>
<g>
</g>
<g>
</g>
<g>
</g>
<g>
</g>
<g>
</g>
<g>
</g>
<g>
</g>
<g>
</g>
<g>
</g>
<g>
</g>
<g>
</g>
<g>
</g>
<g>
</g>
</svg>
