<svg id="Capa_1" enable-background="new 0 0 512 512" height="512" viewBox="0 0 512 512" width="512" xmlns="http://www.w3.org/2000/svg"><path d="m361.996 37.5-143.163-30v497l143.163-30 142.504 30v-497z" fill="#7b7c9b"/><path d="m504.5 504.5h-285.667l60-60h165.167z" fill="#616281"/><path d="m504.5 7.5-60.5 60h-165.167l-60-60z" fill="#9b9bb0"/><path d="m444.5 474.5-105-218.5 105-218.5h30v437z" fill="#78d0ff"/><path d="m248.833 474.5v-437h195.667v180l-30 61.255 30 61.256v134.489h-30.001l-18.916-15-18.917 15h-30l-18.916-15-18.917 15z" fill="#bce8ff"/><path d="m414.5 187.5h-30l30 152.511c0 8.28 6.71 14.5 15 14.5 8.28 0 15-6.22 15-14.5v-122.511c0-16.5-13.5-30-30-30z" fill="#be437c"/><path d="m308.833 187.5h30l-30 152.011c0 8.28-6.72 15-15 15s-15-6.72-15-15v-122.011c0-16.5 13.5-30 30-30z" fill="#fa71a3"/><path d="m384.5 187.5h-45.667c-16.5 0-30 13.5-30 30v257h37.833v-134.989h30v134.989h37.833l.001-257c0-16.5-13.5-30-30-30z" fill="#fa4087"/><path d="m361.996 67.5v90c24.853 0 45-20.147 45-45s-20.148-45-45-45z" fill="#be437c"/><path d="m376.996 112.5c0-24.853-6.716-45-15-45-24.853 0-45 20.147-45 45s20.147 45 45 45c8.284 0 15-20.147 15-45z" fill="#fa4087"/><path d="m143.167 187.5h-30l30 152.511c0 8.28 6.71 14.5 15 14.5 8.28 0 15-6.22 15-14.5v-122.511c0-16.5-13.5-30-30-30z" fill="#be437c"/><path d="m37.5 187.5h30l-30 152.011c0 8.28-6.72 15-15 15s-15-6.72-15-15v-122.011c0-16.5 13.5-30 30-30z" fill="#fa71a3"/><path d="m143.167 217.5c0-16.5-13.5-30-30-30h-45.667c-16.5 0-30 13.5-30 30v268.084c0 10.447 8.469 18.916 18.917 18.916 10.447 0 18.917-8.469 18.917-18.916v-146.073h30v146.073c0 10.447 8.469 18.916 18.917 18.916 10.447 0 18.916-8.469 18.916-18.916z" fill="#fa4087"/><path d="m90.662 67.5v90c24.853 0 45-20.147 45-45s-20.147-45-45-45z" fill="#be437c"/><path d="m105.662 112.5c0-24.853-6.716-45-15-45-24.853 0-45 20.147-45 45s20.147 45 45 45c8.285 0 15-20.147 15-45z" fill="#fa4087"/><path d="m293.833 362.011c2.629 0 5.153-.458 7.5-1.29v83.779c0 4.142 3.358 7.5 7.5 7.5s7.5-3.358 7.5-7.5v-227c0-4.142-3.358-7.5-7.5-7.5s-7.5 3.358-7.5 7.5v122.011c0 4.136-3.365 7.5-7.5 7.5-4.136 0-7.5-3.364-7.5-7.5v-122.011c0-12.407 10.093-22.5 22.5-22.5h105.667c12.407 0 22.5 10.093 22.5 22.5v122.011c0 4.136-3.364 7.5-7.5 7.5-4.135 0-7.5-3.364-7.5-7.5-.001-.019-.001-122.011-.001-122.011 0-4.142-3.358-7.5-7.5-7.5s-7.5 3.358-7.5 7.5v227c0 4.142 3.358 7.5 7.5 7.5s7.5-3.358 7.5-7.5v-83.78c2.348.833 4.871 1.29 7.501 1.29 12.407 0 22.5-10.093 22.5-22.5v-122.01c0-20.678-16.822-37.5-37.5-37.5h-105.667c-20.678 0-37.5 16.822-37.5 37.5v122.011c0 12.406 10.093 22.5 22.5 22.5z"/><path d="m376.666 332.011h-30c-4.142 0-7.5 3.358-7.5 7.5v104.989c0 4.142 3.358 7.5 7.5 7.5s7.5-3.358 7.5-7.5v-97.489h15v97.489c0 4.142 3.358 7.5 7.5 7.5s7.5-3.358 7.5-7.5v-104.989c0-4.142-3.358-7.5-7.5-7.5z"/><path d="m361.996 165c28.949 0 52.5-23.551 52.5-52.5s-23.552-52.5-52.5-52.5-52.5 23.551-52.5 52.5 23.551 52.5 52.5 52.5zm0-90c20.678 0 37.5 16.822 37.5 37.5s-16.822 37.5-37.5 37.5-37.5-16.822-37.5-37.5 16.822-37.5 37.5-37.5z"/><path d="m504.5 0h-285.667c-4.142 0-7.5 3.358-7.5 7.5v497c0 4.142 3.358 7.5 7.5 7.5h285.667c4.142 0 7.5-3.358 7.5-7.5v-497c0-4.142-3.358-7.5-7.5-7.5zm-33.106 30h-219.454l-15-15h249.454zm-230.061 10.606v200.394c0 4.142 3.358 7.5 7.5 7.5s7.5-3.358 7.5-7.5v-196h210.667v422h-210.667v-196c0-4.142-3.358-7.5-7.5-7.5s-7.5 3.358-7.5 7.5v200.394l-15 15v-460.787zm10.607 441.394h219.454l15 15h-249.454zm230.06-10.606v-430.788l15-15v460.787z"/><path d="m143.167 180h-105.667c-20.678 0-37.5 16.822-37.5 37.5v122.011c0 12.407 10.093 22.5 22.5 22.5 2.629 0 5.153-.458 7.5-1.29v124.863c0 14.565 11.851 26.416 26.417 26.416s26.417-11.851 26.417-26.417v-138.572h15v138.573c0 14.566 11.851 26.417 26.417 26.417s26.417-11.851 26.417-26.417v-124.864c2.348.833 4.871 1.29 7.5 1.29 12.407 0 22.5-10.093 22.5-22.5v-122.01c-.001-20.678-16.824-37.5-37.501-37.5zm22.5 159.511c0 4.136-3.364 7.5-7.5 7.5-4.135 0-7.5-3.364-7.5-7.5 0-.01 0-122.011 0-122.011 0-4.142-3.358-7.5-7.5-7.5s-7.5 3.358-7.5 7.5v268.083c0 6.295-5.122 11.417-11.417 11.417s-11.417-5.122-11.417-11.417v-146.072c0-4.142-3.358-7.5-7.5-7.5h-30c-4.142 0-7.5 3.358-7.5 7.5v146.073c0 6.295-5.122 11.417-11.417 11.417s-11.416-5.123-11.416-11.418v-268.083c0-4.142-3.358-7.5-7.5-7.5s-7.5 3.358-7.5 7.5v122.011c0 4.136-3.364 7.5-7.5 7.5s-7.5-3.364-7.5-7.5v-122.011c0-12.407 10.093-22.5 22.5-22.5h105.667c12.407 0 22.5 10.093 22.5 22.5z"/><path d="m90.662 165c28.949 0 52.5-23.551 52.5-52.5s-23.551-52.5-52.5-52.5-52.5 23.551-52.5 52.5 23.551 52.5 52.5 52.5zm0-90c20.678 0 37.5 16.822 37.5 37.5s-16.822 37.5-37.5 37.5-37.5-16.822-37.5-37.5 16.822-37.5 37.5-37.5z"/></svg>