<svg height="480pt" viewBox="0 0 480 480.006" width="480pt" xmlns="http://www.w3.org/2000/svg"><path d="m443.371094 416.351562c7.816406-8.546874 12.632812-19.882812 12.632812-32.34375 0-23.738281-17.335937-43.449218-40-47.28125v-64.71875c0-2.128906-.839844-4.160156-2.34375-5.65625l-32.210937-32.210937c1.457031-2.765625 3-5.488281 4.28125-8.320313 1.417969-3.117187.679687-6.796874-1.824219-9.132812l-14.902344-13.96875c1.640625-4.960938 2.992188-10.015625 4.046875-15.136719l20.007813-4.671875c3.335937-.777344 5.808594-3.59375 6.144531-7 .527344-5.398437.800781-10.746094.800781-15.902344 0-5.160156-.273437-10.503906-.808594-15.90625-.335937-3.40625-2.808593-6.222656-6.144531-7l-20.007812-4.671874c-1.054688-5.121094-2.40625-10.167969-4.046875-15.136719l14.902344-13.96875c2.496093-2.335938 3.234374-6.015625 1.824218-9.132813-4.351562-9.609375-9.710937-18.875-15.945312-27.519531-2-2.785156-5.519532-3.992187-8.824219-2.984375l-19.390625 5.894531c-3.496094-3.921875-7.214844-7.65625-11.152344-11.152343l5.90625-19.390626c.992188-3.273437-.203125-6.824218-2.984375-8.824218-8.640625-6.226563-17.90625-11.59375-27.527343-15.945313-3.121094-1.390625-6.792969-.679687-9.136719 1.824219l-13.96875 14.914062c-4.953125-1.640624-10.015625-3-15.136719-4.058593l-4.671875-20.007813c-.777344-3.335937-3.589844-5.808594-7-6.144531-10.800781-1.0625-21.015625-1.0625-31.816406 0-3.40625.335937-6.222657 2.808594-7 6.144531l-4.671875 20.007813c-5.121094 1.058593-10.167969 2.410156-15.136719 4.046875l-13.964844-14.902344c-2.347656-2.496094-6-3.207031-9.136719-1.824219-9.609374 4.351563-18.875 9.710938-27.519531 15.945313-2.785156 2-3.976562 5.542968-2.984375 8.824218l5.894532 19.390626c-3.925782 3.503906-7.664063 7.222656-11.152344 11.144531l-19.359375-5.894531c-3.257813-1-6.824219.207031-8.824219 2.980468-6.222656 8.640625-11.589844 17.90625-15.945312 27.53125-1.414063 3.117188-.679688 6.796875 1.824218 9.132813l14.914063 13.96875c-1.640625 4.953125-3 10.015625-4.058594 15.136719l-20.007813 4.671874c-3.335937.777344-5.804687 3.59375-6.140624 7-.53125 5.402344-.800782 10.746094-.800782 15.90625 0 5.15625.269532 10.503907.808594 15.902344.335938 3.40625 2.804688 6.222656 6.140625 7l20.011719 4.671875c1.054687 5.121094 2.40625 10.167969 4.046875 15.136719l-14.90625 13.96875c-2.496094 2.335938-3.230469 6.015625-1.824219 9.132812 1.28125 2.832032 2.824219 5.5625 4.28125 8.320313l-32.207031 32.210937c-1.511719 1.496094-2.351563 3.527344-2.351563 5.65625v64.71875c-22.664062 3.832032-40 23.542969-40 47.28125 0 12.460938 4.816406 23.796876 12.632813 32.34375-20.457031 1.75-36.63281275 18.773438-36.63281275 39.6875v15.96875c0 4.421876 3.57421875 8 7.99999975 8h128c4.421875 0 8-3.578124 8-8v-15.96875c0-20.90625-16.175781-37.929687-36.632812-39.6875 7.816406-8.546874 12.632812-19.882812 12.632812-32.34375 0-23.738281-17.335937-43.449218-40-47.28125v-61.410156l26.976563-26.972656c1.101562 1.652344 2.078125 3.390625 3.238281 5 2 2.773438 5.519531 3.980469 8.824219 2.980469l19.390625-5.894531c3.496094 3.921874 7.21875 7.65625 11.152344 11.152343l-5.902344 19.390625c-.992188 3.273438.199218 6.824219 2.984375 8.824219 8.640625 6.226563 17.902343 11.59375 27.527343 15.945313 3.136719 1.398437 6.792969.6875 9.136719-1.824219l13.96875-14.910157c4.949219 1.636719 10.015625 3 15.132813 4.054688l4.671875 20.007812c.777343 3.335938 3.59375 5.808594 7 6.144532 2.679687.261718 5.265625.261718 7.90625.398437v17.128907c-22.664063 3.824218-40 23.535156-40 47.28125 0 12.460937 4.816406 23.796874 12.632812 32.34375-20.464843 1.734374-36.640625 18.757812-36.640625 39.671874v15.96875c0 4.421876 3.574219 8 8 8h128c4.421875 0 8-3.578124 8-8v-15.96875c0-20.90625-16.175781-37.929687-36.632812-39.6875 7.816406-8.546874 12.632812-19.882812 12.632812-32.34375 0-23.738281-17.335937-43.449218-40-47.28125v-17.128906c2.640625-.136718 5.222656-.136718 7.902344-.398437 3.410156-.335938 6.226562-2.808594 7-6.144531l4.671875-20.007813c5.121094-1.058594 10.167969-2.410156 15.136719-4.050781l13.96875 14.90625c2.34375 2.503906 6.015625 3.214844 9.136718 1.824218 9.605469-4.351562 18.871094-9.710937 27.519532-15.945312 2.78125-2 3.976562-5.542969 2.984375-8.824219l-5.898438-19.390625c3.921875-3.496094 7.65625-7.214844 11.152344-11.152344l19.394531 5.902344c3.261719.992188 6.824219-.207031 8.824219-2.980468 1.15625-1.617188 2.140625-3.355469 3.238281-5.011719l26.96875 26.992187v61.410156c-22.664062 3.824219-40 23.535157-40 47.28125 0 12.460938 4.816406 23.796876 12.632813 32.34375-20.457031 1.75-36.632813 18.773438-36.632813 39.6875v15.96875c0 4.421876 3.574219 8 8 8h128c4.421875 0 8-3.578124 8-8v-15.96875c0-20.914062-16.175781-37.9375-36.632812-39.6875zm-315.367188 39.6875v7.96875h-112v-7.96875c0-13.25 10.78125-24.03125 24.03125-24.03125h63.9375c13.246094 0 24.03125 10.78125 24.03125 24.03125zm-24-72.03125c0 17.644532-14.351562 32-32 32-17.648437 0-32-14.355468-32-32 0-17.648437 14.351563-32 32-32 17.648438 0 32 14.351563 32 32zm192 72.03125v7.96875h-112v-7.96875c0-13.25 10.78125-24.03125 24.03125-24.03125h63.9375c13.246094 0 24.03125 10.78125 24.03125 24.03125zm-24-72.03125c0 17.644532-14.351562 32-32 32-17.648437 0-32-14.355468-32-32 0-17.648437 14.351563-32 32-32 17.648438 0 32 14.351563 32 32zm88.03125-144.683593-18.808594-5.726563c-3.105468-.960937-6.457031.082032-8.503906 2.566406-4.953125 6.035157-10.519531 11.601563-16.550781 16.554688-2.496094 2.054688-3.503906 5.414062-2.570313 8.503906l5.722657 18.808594c-4.824219 3.191406-9.832031 6.09375-14.960938 8.671875l-13.535156-14.457031c-2.210937-2.367188-5.640625-3.167969-8.648437-2.023438-7.265626 2.726563-14.832032 4.75-22.488282 6.015625-3.191406.519531-5.761718 2.917969-6.496094 6.070313l-4.527343 19.417968c-5.871094.359376-11.441407.359376-17.3125 0l-4.527344-19.417968c-.738281-3.152344-3.296875-5.542969-6.496094-6.070313-7.664062-1.265625-15.226562-3.289062-22.480469-6.015625-3.039062-1.167968-6.457031-.351562-8.65625 2.015625l-13.542968 14.457031c-5.136719-2.570312-10.144532-5.480468-14.960938-8.664062l5.726563-18.808594c.9375-3.097656-.078125-6.457031-2.566407-8.503906-6.03125-4.953125-11.601562-10.519531-16.550781-16.554688-2.058593-2.492187-5.410156-3.519531-8.503906-2.566406l-18.808594 5.71875c-3.191406-4.824218-6.097656-9.832031-8.671875-14.957031l14.453125-13.539063c2.363281-2.207031 3.160157-5.613281 2.027344-8.644531-2.730469-7.265625-4.753906-14.832031-6.019531-22.488281-.519532-3.195312-2.917969-5.761719-6.070313-6.496094l-19.417969-4.53125c-.191406-2.933594-.285156-5.820312-.285156-8.652344 0-2.832031.09375-5.722656.269532-8.65625l19.417968-4.53125c3.152344-.734374 5.542969-3.292968 6.070313-6.496093 1.265625-7.664063 3.289062-15.222657 6.015625-22.476563 1.144531-3.035156.34375-6.449218-2.015625-8.65625l-14.453125-13.546875c2.566406-5.132812 5.476562-10.140625 8.664062-14.957031l18.804688 5.726562c3.097656.945313 6.457031-.078124 8.503906-2.574218 4.9375-6.011719 10.503906-11.578125 16.554688-16.546875 2.496093-2.054688 3.503906-5.414063 2.566406-8.503907l-5.71875-18.808593c4.824218-3.191407 9.832031-6.09375 14.960937-8.671875l13.535157 14.457031c2.199218 2.359375 5.625 3.152344 8.648437 2.023437 7.261719-2.726562 14.832031-4.75 22.488281-6.015624 3.191406-.519532 5.757813-2.917969 6.496094-6.070313l4.527344-19.417969c5.871094-.359375 11.4375-.359375 17.3125 0l4.527344 19.417969c.734374 3.152344 3.296874 5.542969 6.496093 6.070313 7.664063 1.265624 15.222657 3.289062 22.480469 6.015624 3.03125 1.152344 6.445312.351563 8.65625-2.015624l13.542969-14.457032c5.136719 2.570313 10.144531 5.480469 14.960937 8.664063l-5.730468 18.808593c-.933594 3.097657.082031 6.457032 2.570312 8.503907 6.03125 4.953125 11.597656 10.519531 16.550781 16.554687 2.054688 2.496094 5.414063 3.519532 8.503907 2.566406l18.808593-5.71875c3.191407 4.824219 6.09375 9.832032 8.671875 14.957032l-14.457031 13.539062c-2.359375 2.207032-3.160156 5.613282-2.023437 8.648438 2.726562 7.261718 4.753906 14.832031 6.015624 22.484375.519532 3.195312 2.921876 5.761719 6.074219 6.496093l19.414063 4.53125c.191406 2.933594.289062 5.824219.289062 8.65625 0 2.832032-.097656 5.71875-.273437 8.652344l-19.414063 4.53125c-3.152344.734375-5.546875 3.292969-6.074218 6.496094-1.261719 7.65625-3.289063 15.214844-6.015626 22.488281-1.136718 3.03125-.335937 6.4375 2.023438 8.644531l14.457031 13.539063c-2.574219 5.144531-5.488281 10.144531-8.671875 14.964844zm47.96875 112.683593c17.648438 0 32 14.351563 32 32 0 17.644532-14.351562 32-32 32-17.648437 0-32-14.355468-32-32 0-17.648437 14.351563-32 32-32zm56 112h-112v-7.96875c0-13.25 10.78125-24.03125 24.03125-24.03125h63.9375c13.246094 0 24.03125 10.78125 24.03125 24.03125zm0 0"/><path d="m240.003906 56.007812c-57.34375 0-104 46.652344-104 104 0 57.34375 46.65625 104 104 104s104-46.65625 104-104c0-57.347656-46.65625-104-104-104zm-55.609375 172.125c2.007813-20.191406 18.96875-36.125 39.609375-36.125h32c20.640625 0 37.597656 15.933594 39.605469 36.125-15.167969 12.410157-34.527344 19.875-55.605469 19.875-21.082031 0-40.441406-7.464843-55.609375-19.875zm55.609375-52.125c-17.648437 0-32-14.355468-32-32 0-17.648437 14.351563-32 32-32 17.648438 0 32 14.351563 32 32 0 17.644532-14.351562 32-32 32zm69.085938 38.335938c-5.65625-16.851562-19.109375-30.167969-36.015625-35.625 9.175781-8.753906 14.929687-21.066406 14.929687-34.710938 0-26.472656-21.527344-48-48-48s-48 21.527344-48 48c0 13.644532 5.75 25.957032 14.933594 34.703126-16.902344 5.453124-30.359375 18.773437-36.015625 35.625-11.808594-14.976563-18.917969-33.824219-18.917969-54.328126 0-48.523437 39.480469-88 88-88 48.519532 0 88 39.476563 88 88 0 20.503907-7.113281 39.351563-18.914062 54.335938zm0 0"/><path d="m432.003906 152.007812h16v16h-16zm0 0"/><path d="m464.003906 152.007812h16v16h-16zm0 0"/><path d="m464.003906 184.007812h16v16h-16zm0 0"/><path d="m464.003906 120.007812h16v16h-16zm0 0"/><path d="m.00390625 152.007812h15.99999975v16h-15.99999975zm0 0"/><path d="m.00390625 184.007812h15.99999975v16h-15.99999975zm0 0"/><path d="m.00390625 120.007812h15.99999975v16h-15.99999975zm0 0"/><path d="m32.003906 152.007812h16v16h-16zm0 0"/></svg>