<?xml version="1.0" encoding="iso-8859-1"?>
<!-- Generator: Adobe Illustrator 19.0.0, SVG Export Plug-In . SVG Version: 6.00 Build 0)  -->
<svg version="1.1" id="Capa_1" xmlns="http://www.w3.org/2000/svg" xmlns:xlink="http://www.w3.org/1999/xlink" x="0px" y="0px"
	 viewBox="0 0 512 512" style="enable-background:new 0 0 512 512;" xml:space="preserve">
<g>
	<g>
		<path d="M504.417,208.764l-39.317-9.795l-20.923-50.488l20.865-34.711c2.366-3.935,1.748-8.976-1.499-12.223l-53.09-53.089
			c-3.248-3.247-8.289-3.865-12.224-1.5l-34.71,20.866L313.031,46.9l-9.796-39.317C302.126,3.127,298.124,0,293.532,0h-75.064
			c-4.592,0-8.594,3.127-9.703,7.583L198.969,46.9L148.48,67.823l-34.71-20.866c-3.936-2.366-8.978-1.748-12.224,1.5l-53.09,53.089
			c-3.247,3.247-3.865,8.288-1.499,12.223l20.865,34.711L46.9,198.969l-39.317,9.795C3.127,209.875,0,213.876,0,218.468v75.064
			c0,4.592,3.127,8.593,7.583,9.704l39.316,9.794l20.924,50.489L46.958,398.23c-2.366,3.935-1.748,8.976,1.499,12.223l53.09,53.089
			c3.248,3.247,8.289,3.864,12.224,1.5l34.71-20.866l50.488,20.924l9.796,39.317c1.109,4.456,5.111,7.583,9.703,7.583h75.064
			c4.592,0,8.594-3.127,9.703-7.583l9.796-39.317l50.488-20.924l34.71,20.866c3.934,2.364,8.976,1.747,12.224-1.5l53.09-53.089
			c3.247-3.247,3.865-8.288,1.499-12.223l-20.865-34.711l20.924-50.489l39.316-9.794c4.456-1.11,7.583-5.112,7.583-9.704v-75.064
			C512,213.876,508.873,209.875,504.417,208.764z M492,285.718l-36.625,9.124c-3.076,0.767-5.607,2.946-6.821,5.875l-24.784,59.804
			c-1.214,2.93-0.967,6.262,0.668,8.98l19.438,32.336l-42.038,42.038l-32.335-19.438c-2.718-1.634-6.052-1.882-8.98-0.667
			l-59.804,24.784c-2.929,1.214-5.108,3.745-5.875,6.821L285.718,492h-59.436l-9.125-36.626c-0.767-3.076-2.946-5.607-5.875-6.821
			l-59.804-24.784c-2.927-1.213-6.261-0.967-8.98,0.667l-32.335,19.438l-42.038-42.038L87.563,369.5
			c1.635-2.718,1.882-6.05,0.668-8.98l-24.784-59.804c-1.214-2.929-3.745-5.108-6.821-5.875L20,285.718v-59.436l36.626-9.125
			c3.077-0.767,5.607-2.946,6.821-5.875l24.783-59.803c1.214-2.93,0.967-6.262-0.668-8.98l-19.438-32.336l42.038-42.038
			l32.335,19.438c2.719,1.633,6.052,1.882,8.98,0.667l59.804-24.784c2.929-1.214,5.108-3.745,5.875-6.821L226.282,20h59.436
			l9.125,36.626c0.767,3.076,2.946,5.607,5.875,6.821l59.804,24.784c2.928,1.214,6.262,0.967,8.98-0.667l32.335-19.438
			l42.038,42.038L424.437,142.5c-1.635,2.718-1.882,6.05-0.668,8.98l24.783,59.803c1.214,2.929,3.744,5.108,6.821,5.875L492,226.282
			V285.718z"/>
	</g>
</g>
<g>
	<g>
		<path d="M296.388,99.077c-5.354-1.375-10.8,1.851-12.173,7.2c-1.372,5.349,1.851,10.799,7.2,12.172
			C354.171,134.556,398,191.119,398,256c0,34.062-12.06,65.359-32.128,89.853c-1.303-12.098-6.051-23.697-13.72-33.224
			c-9.093-11.294-21.9-19.22-36.065-22.317l-17.855-3.904c-4.792-1.048-8.408-5.007-9.152-9.793
			c15.616-10.62,25.895-28.529,25.895-48.796V194.64c0-32.518-26.455-58.973-58.974-58.973c-32.519,0-58.974,26.455-58.974,58.973
			v33.179c0,20.168,10.182,37.997,25.669,48.636c-0.667,4.834-4.313,8.898-9.172,9.964l-17.654,3.873
			c-14.154,3.105-26.952,11.033-36.035,22.325c-7.666,9.53-12.411,21.134-13.709,33.234C126.059,321.356,114,290.061,114,256
			c0-63.948,43.045-120.304,104.676-137.046c5.33-1.448,8.477-6.942,7.029-12.272c-1.448-5.329-6.943-8.477-12.271-7.029
			C143.112,118.756,94,183.048,94,256c0,89.327,72.673,162,162,162s162-72.673,162-162C418,181.984,367.991,117.455,296.388,99.077z
			 M217.026,194.64c0-21.49,17.484-38.973,38.974-38.973s38.974,17.483,38.974,38.973v0.884c-5.944-1.535-11.411-4.602-15.899-9.011
			l-8.896-8.736c-2.187-2.146-5.235-3.17-8.275-2.784c-3.04,0.389-5.733,2.149-7.309,4.777
			c-6.243,10.416-17.665,16.886-29.809,16.886h-7.76V194.64z M217.026,227.818v-11.163h7.76c14.935,0,29.178-6.213,39.387-16.745
			l0.887,0.871c8.273,8.127,18.671,13.342,29.914,15.152v11.885c0,21.49-17.483,38.973-38.974,38.973
			C234.509,266.791,217.026,249.308,217.026,227.818z M275.676,294.351c-11.702,8.647-27.845,8.605-39.507-0.119
			c2.155-2.8,3.852-5.952,4.991-9.334c4.744,1.234,9.716,1.894,14.84,1.894c5.041,0,9.936-0.638,14.609-1.834
			C271.766,288.366,273.489,291.539,275.676,294.351z M346.251,365.551C321.698,385.814,290.246,398,256,398
			c-34.246,0-65.698-12.186-90.251-32.449v-12.954c0-20.41,14.47-38.398,34.405-42.771l17.654-3.873
			c0.36-0.079,0.716-0.169,1.072-0.26C229.182,315.758,242.587,320.8,256,320.8c13.395,0,26.782-5.03,37.078-15.068
			c0.293,0.073,0.585,0.148,0.881,0.213l17.856,3.904c19.953,4.363,34.436,22.353,34.436,42.778V365.551z"/>
	</g>
</g>
<g>
	<g>
		<path d="M256.673,94.001L256,94c-5.522,0-10,4.477-10,10s4.478,10,10,10l0.579,0.001c0.016,0,0.031,0,0.048,0
			c5.501,0,9.973-4.446,9.999-9.953C266.651,98.525,262.195,94.027,256.673,94.001z"/>
	</g>
</g>
<g>
	<g>
		<path d="M208.423,357.875l9.877-9.877c3.906-3.905,3.906-10.237,0.001-14.142c-3.906-3.905-10.236-3.905-14.143,0l-16.947,16.948
			c-3.905,3.905-3.905,10.236,0,14.142l16.947,16.948c1.953,1.953,4.512,2.929,7.071,2.929s5.118-0.977,7.071-2.929
			c3.905-3.905,3.905-10.237,0-14.142L208.423,357.875z"/>
	</g>
</g>
<g>
	<g>
		<path d="M327.891,350.804l-16.946-16.948c-3.905-3.905-10.235-3.905-14.143,0c-3.905,3.905-3.905,10.237,0,14.142l9.877,9.877
			l-9.877,9.877c-3.905,3.905-3.905,10.237,0,14.142c1.953,1.953,4.512,2.929,7.071,2.929s5.118-0.977,7.071-2.929l16.947-16.948
			C331.796,361.041,331.796,354.71,327.891,350.804z"/>
	</g>
</g>
<g>
	<g>
		<path d="M273.115,328.894c-4.763-2.799-10.891-1.207-13.688,3.555l-23.93,40.72c-2.799,4.761-1.207,10.89,3.555,13.688
			c1.592,0.936,3.335,1.38,5.057,1.38c3.429,0,6.769-1.765,8.631-4.935l23.93-40.72C279.469,337.82,277.877,331.692,273.115,328.894
			z"/>
	</g>
</g>
<g>
</g>
<g>
</g>
<g>
</g>
<g>
</g>
<g>
</g>
<g>
</g>
<g>
</g>
<g>
</g>
<g>
</g>
<g>
</g>
<g>
</g>
<g>
</g>
<g>
</g>
<g>
</g>
<g>
</g>
</svg>
